<?xml version="1.0" encoding="UTF-8" standalone="no"?>
<!-- Created with Inkscape (http://www.inkscape.org/) -->

<svg
   xmlns:dc="http://purl.org/dc/elements/1.1/"
   xmlns:cc="http://creativecommons.org/ns#"
   xmlns:rdf="http://www.w3.org/1999/02/22-rdf-syntax-ns#"
   xmlns:svg="http://www.w3.org/2000/svg"
   xmlns="http://www.w3.org/2000/svg"
   xmlns:sodipodi="http://sodipodi.sourceforge.net/DTD/sodipodi-0.dtd"
   xmlns:inkscape="http://www.inkscape.org/namespaces/inkscape"
   version="1.1"
   id="svg4586"
   xml:space="preserve"
   width="614.66669"
   height="338.66666"
   viewBox="0 0 614.66669 338.66666"
   sodipodi:docname="original.svg"
   inkscape:version="0.92.1 r15371"><metadata
     id="metadata4592"><rdf:RDF><cc:Work
         rdf:about=""><dc:format>image/svg+xml</dc:format><dc:type
           rdf:resource="http://purl.org/dc/dcmitype/StillImage" /><dc:title></dc:title></cc:Work></rdf:RDF></metadata><defs
     id="defs4590"><clipPath
       clipPathUnits="userSpaceOnUse"
       id="clipPath4614"><path
         d="m 495.629,498.551 h 3657.38 v 1729.3 H 495.629 Z"
         id="path4612"
         inkscape:connector-curvature="0" /></clipPath><clipPath
       clipPathUnits="userSpaceOnUse"
       id="clipPath4630"><path
         d="M 0,3.30859 H 4610 V 2533.3086 H 0 Z"
         id="path4628"
         inkscape:connector-curvature="0" /></clipPath><clipPath
       clipPathUnits="userSpaceOnUse"
       id="clipPath4782"><path
         d="M 0,3.30859 H 4610 V 2533.3086 H 0 Z"
         id="path4780"
         inkscape:connector-curvature="0" /></clipPath><clipPath
       clipPathUnits="userSpaceOnUse"
       id="clipPath4798"><path
         d="M 0,3.30859 H 4610 V 2533.3086 H 0 Z"
         id="path4796"
         inkscape:connector-curvature="0" /></clipPath><clipPath
       clipPathUnits="userSpaceOnUse"
       id="clipPath4814"><path
         d="M 0,3.30859 H 4610 V 2533.3086 H 0 Z"
         id="path4812"
         inkscape:connector-curvature="0" /></clipPath></defs><sodipodi:namedview
     pagecolor="#ffffff"
     bordercolor="#666666"
     borderopacity="1"
     objecttolerance="10"
     gridtolerance="10"
     guidetolerance="10"
     inkscape:pageopacity="0"
     inkscape:pageshadow="2"
     inkscape:window-width="1600"
     inkscape:window-height="837"
     id="namedview4588"
     showgrid="false"
     inkscape:zoom="1.428133"
     inkscape:cx="334.55195"
     inkscape:cy="134.67342"
     inkscape:window-x="-8"
     inkscape:window-y="-8"
     inkscape:window-maximized="1"
     inkscape:current-layer="g4594" /><g
     id="g4594"
     inkscape:groupmode="layer"
     inkscape:label="original-eps-converted-to"
     transform="matrix(1.3333333,0,0,-1.3333333,0,338.66667)"><g
       id="g4596"
       transform="scale(0.1)"><path
         d="m 496.52,506.25 h 3648.52 v 1721.6 H 496.52 Z"
         style="fill:#ffffff;fill-opacity:1;fill-rule:evenodd;stroke:none"
         id="path4598"
         inkscape:connector-curvature="0" /><path
         d="M 496.52,678.863 H 4145.04 M 496.52,850.656 H 4145.04 M 496.52,1022.45 H 4145.04 M 496.52,1194.25 H 4145.04 M 496.52,1367.45 H 4145.04 M 496.52,1539.25 H 4145.04 M 496.52,1711.05 H 4145.04 M 496.52,1882.84 H 4145.04 M 496.52,2056.05 H 4145.04 M 496.52,2227.84 h 3648.52"
         style="fill:none;stroke:#d9d9d9;stroke-width:8.87380028;stroke-linecap:butt;stroke-linejoin:round;stroke-miterlimit:10;stroke-dasharray:none;stroke-opacity:1"
         id="path4600"
         inkscape:connector-curvature="0" /><path
         d="M 4145.04,506.246 V 2227.84"
         style="fill:none;stroke:#898989;stroke-width:5.91590023;stroke-linecap:butt;stroke-linejoin:round;stroke-miterlimit:10;stroke-dasharray:none;stroke-opacity:1"
         id="path4602"
         inkscape:connector-curvature="0" /><path
         d="m 4145.04,506.246 h 42.19 m -42.19,215.231 h 42.19 m -42.19,215.789 h 42.19 m -42.19,214.414 h 42.19 m -42.19,215.77 h 42.19 m -42.19,214.41 h 42.19 m -42.19,215.8 h 42.19 m -42.19,214.41 h 42.19 m -42.19,215.77 h 42.19"
         style="fill:none;stroke:#898989;stroke-width:5.91590023;stroke-linecap:butt;stroke-linejoin:round;stroke-miterlimit:10;stroke-dasharray:none;stroke-opacity:1"
         id="path4604"
         inkscape:connector-curvature="0" /><path
         d="M 496.52,506.246 H 4145.04"
         style="fill:none;stroke:#d9d9d9;stroke-width:8.87380028;stroke-linecap:butt;stroke-linejoin:round;stroke-miterlimit:10;stroke-dasharray:none;stroke-opacity:1"
         id="path4606"
         inkscape:connector-curvature="0" /><g
         id="g4608"><g
           id="g4610"
           clip-path="url(#clipPath4614)"><path
             d="m 498.711,678.863 4.019,292.5 h 4.301 l 5.699,-120.707 h 4.18 l 4.301,-69.609 h 4.301 l 4.218,-51.094 h 4.29 l 4.218,51.094 h 4.301 l 4.18,396.223 h 5.703 l 4.297,137.68 h 4.222 l 4.289,154.73 h 4.301 l 4.18,-102.23 h 4.301 l 4.218,-52.5 h 4.29 l 5.71,-34.09 h 4.18 l 4.328,16.98 h 4.301 l 4.18,17.11 h 4.301 l 4.21,-17.11 h 4.301 l 5.699,17.11 h 12.782 l 4.218,-51.09 h 4.29 l 4.218,68.09 h 4.301 l 4.301,-51.09 h 5.582 l 4.297,51.09 h 4.301 l 4.21,35.5 h 4.301 l 4.18,-35.5 h 4.301 l 4.218,35.5 h 4.29 l 5.71,-16.99 h 4.18 l 4.328,-86.6 h 4.301 l 4.18,68.09 h 4.301 l 4.21,-51.09 h 4.301 l 4.297,-17 h 5.582 l 4.301,68.09 h 4.301 l 4.218,-34.11 h 4.29 l 4.218,-33.98 h 4.301 l 4.301,-17.11 h 5.582 l 4.297,137.7 h 4.301 l 4.21,-86.61 h 4.301 l 4.18,34.11 h 4.301 l 4.289,-68.09 h 4.219 l 5.71,51.09 h 4.29 l 4.218,17 h 4.301 l 4.18,18.51 h 4.301 l 4.21,-69.6 h 4.301 l 4.297,69.6 h 5.582 l 4.301,-86.6 h 4.301 l 4.218,120.59 h 4.29 l 4.218,-86.61 h 4.301 l 4.301,154.82 h 5.582 l 4.297,-188.8 h 4.301 l 4.21,68.09 h 4.301 l 4.18,18.51 h 4.301 l 4.289,-52.62 h 4.219 l 5.71,-33.98 h 4.29 l 4.218,103.59 h 4.301 l 4.18,-69.61 h 4.301 l 4.289,34.11 h 14.222 l 4.18,69.6 h 4.301 l 4.218,-86.6 h 4.29 l 4.218,17 h 4.302 l 4.3,620.5 h 4.18 l 5.7,154.73 h 4.3 l 4.21,17.07 h 12.78 l 4.29,-51.09 h 4.22 l 5.71,34.02 h 12.81 l 4.18,-68.13 h 4.3 l 4.29,51.11 h 14.22 l 4.18,-17 h 12.81 l 4.3,51.09 h 4.22 l 4.3,-34.09 h 4.18 l 5.7,-51.11 h 4.3 l 4.21,51.11 h 4.3 l 4.18,17.02 h 4.3 l 4.29,17.07 h 4.22 l 5.71,-34.09 h 4.29 l 4.22,-17 h 4.3 l 4.18,34.02 h 12.81 l 4.3,-17.02 h 5.7 l 4.18,17.02 h 4.3 l 4.22,-17.02 h 4.29 l 4.3,51.09 h 4.22 l 4.3,-51.09 h 4.18 l 5.7,17.02 h 12.81 l 4.3,-34.02 h 4.18 l 4.29,17 h 4.22 l 4.3,-17 h 5.7 l 4.22,34.02 h 4.3 l 4.18,-17.02 h 12.81 l 4.3,51.09 h 14.18 l 4.22,-51.09 h 4.29 l 4.3,34.09 h 4.22 l 4.3,34.8 h 4.18 l 5.7,-85.89 h 4.3 l 4.21,85.89 h 4.3 l 4.3,-34.8 h 4.18 l 4.29,-85.2 h 4.22 l 4.3,68.13 h 5.7 l 4.22,-68.13 h 4.3 l 4.3,51.11 h 31.17 l 4.22,-241.41 h 4.29 l 4.3,34.09 h 4.22 l 4.3,35.52 h 4.18 l 5.7,85.19 h 4.3 l 4.21,103.63 h 4.3 l 4.3,-34.02 h 4.18 l 4.29,17 h 14.22 l 4.22,-69.57 h 4.3 l 4.3,-51.14 h 4.18 l 4.29,120.71 h 12.82 l 5.58,34.09 h 4.3 l 4.29,-34.09 h 4.22 l 4.3,-51.11 h 4.22 l 4.3,68.13 h 4.29 l 5.59,-34.02 h 4.3 l 4.21,-34.11 h 4.3 l 4.3,17 h 4.18 l 4.29,-17 h 4.22 l 4.3,68.13 h 5.7 l 4.22,-51.13 h 4.3 l 4.3,34.11 h 4.18 l 4.29,-550.91 h 12.82 l 5.58,34.11 h 4.3 l 4.29,-103.68 h 4.22 l 4.3,-34.02 h 4.22 l 4.3,86.61 h 14.18 l 4.29,68.07 h 4.22 l 4.3,-85.18 h 4.18 l 4.29,102.29 h 4.34 l 4.18,-171.79 h 5.7 l 4.22,103.59 h 4.3 l 4.3,-16.98 h 4.18 l 4.29,120.69 h 4.22 l 4.3,-224.41 h 4.3 l 5.58,120.7 h 4.3 l 4.29,34.11 h 4.22 l 4.3,-120.7 h 4.22 l 4.3,-239.89 h 4.29 l 5.59,137.69 h 4.3 l 4.29,33.99 h 12.7 l 4.29,-52.5 h 4.34 l 4.18,69.6 h 5.7 l 4.3,-895.304 h 4.22 l 4.3,1376.594 h 4.18 l 4.29,86.61 h 4.3 l 4.22,-17 h 4.3 l 5.58,-1446.204 h 4.3 l 4.29,1532.804 h 4.22 l 4.3,17 h 4.22 l 4.3,17.11 h 4.29 l 4.18,-86.68 h 5.71 l 4.29,69.57 h 12.7 l 4.29,17.11 h 4.34 l 4.18,-17.11 h 5.7 l 4.3,-17 h 4.22 l 4.3,-173.19 h 4.18 l 4.29,241.32 h 4.3 l 4.22,-120.7 h 4.3 l 5.7,52.57 h 4.18 l 4.29,17 h 4.22 l 4.3,-17 h 4.3 l 4.22,34.11 h 4.29 l 4.18,-52.57 h 5.71 l 4.29,86.59 h 4.22 l 4.3,-68.13 h 4.18 l 4.29,68.13 h 4.34 l 4.18,-34.02 h 5.7 l 4.3,-775.32 h 4.22 l 4.3,-68.07 h 4.18 l 4.29,-35.52 h 4.3 l 4.22,-326.594 h 4.3 l 5.7,-86.609 h 4.18 l 4.29,413.203 h 4.22 l 4.3,-239.996 h 4.3 l 4.22,-69.488 h 4.29 l 4.18,275.394 h 14.22 l 4.3,-17 h 4.3 l 4.17,137.7 h 4.34 l 4.18,224.3 h 4.3 l 5.7,309.61 h 4.22 l 4.3,16.98 h 4.18 l 4.29,-16.98 h 4.3 l 4.22,68.07 h 4.3 l 5.7,-102.18 h 4.18 l 4.29,-103.71 h 4.22 l 4.3,120.71 h 4.3 l 4.22,17.11 h 4.29 l 4.18,33.98 h 5.71 l 4.29,-85.2 h 4.22 l 4.3,154.81 h 4.3 l 4.17,-103.59 h 4.34 l 4.18,137.68 h 4.3 l 5.7,-69.61 h 4.22 l 4.3,190.32 h 4.29 l 4.18,-103.71 h 4.3 l 4.22,69.6 h 4.3 l 5.7,51.11 h 4.18 l 4.29,17.02 h 4.22 l 4.3,-241.32 h 4.3 l 4.22,154.73 h 4.29 l 4.18,-17.04 h 5.71 l 4.29,69.61 h 4.22 l 4.3,-69.61 h 4.3 l 4.17,69.61 h 12.82 l 5.7,17 h 12.81 l 4.18,-103.68 h 4.3 l 4.22,-17.03 h 4.3 l 4.29,-34.11 h 5.59 l 4.29,-550.89 h 4.34 l 4.18,137.82 h 4.3 l 4.22,-17.11 h 4.29 l 4.18,51.09 h 5.71 l 4.29,120.7 h 4.22 l 4.3,-224.29 h 4.3 l 4.17,-120.71 h 4.34 l 4.18,-222.9 h 4.3 l 5.7,-34.1 h 4.22 l 4.3,-52.5 h 4.29 l 4.18,120.71 h 4.3 l 4.22,-17.11 h 4.3 l 4.29,51.22 h 5.59 l 4.29,-51.22 h 4.34 l 4.18,-33.98 h 4.3 l 4.22,137.7 h 4.29 l 4.3,-154.82 h 5.59 l 4.29,85.21 h 4.3 l 4.22,52.61 h 4.3 l 4.17,51.09 h 4.34 l 4.18,-120.7 h 4.3 l 5.7,17 h 4.22 l 4.3,120.7 h 4.29 l 4.18,-171.81 h 4.3 l 4.22,-120.695 h 4.3 l 4.29,68.195 h 14.22 l 4.18,18.4 h 4.3 l 4.22,222.89 h 4.29 l 4.3,-171.79 h 4.18 l 5.7,51.22 h 4.3 l 4.22,-68.22 h 12.81 l 4.3,103.72 h 4.18 l 5.7,-69.61 h 4.3 l 4.22,120.7 h 4.29 l 4.18,103.59 h 4.3 l 4.22,-16.99 h 4.3 l 4.29,119.22 h 5.59 l 4.29,-17.02 h 12.82 l 4.22,-396.11 h 4.29 l 4.3,396.11 h 4.18 l 5.7,224.29 h 4.3 l 4.22,51.14 h 4.3 l 4.17,-51.14 h 4.34 l 4.3,171.8 h 4.18 l 5.7,69.61 h 4.3 l 4.22,-120.7 h 4.29 l 4.18,34.09 h 4.3 l 4.3,120.7 4.22,120.71 h 4.29 l 5.71,17 h 4.17 l 4.34,-51.11 h 12.7 l 4.29,-18.46 h 4.3 l 4.18,-343.64 h 5.7 l 4.3,-154.68 h 4.22 l 4.3,-17.11 h 4.17 l 4.34,-154.7 h 4.3 l 4.18,-120.69 h 4.29 l 5.71,-86.61 h 4.22 l 4.29,-17.11 h 4.18 l 4.3,103.72 h 4.3 l 4.22,-241.415 h 4.29 l 5.71,-16.992 h 4.17 l 4.34,85.187 h 4.18 l 4.3,-17.1 h 4.29 l 4.22,35.5 h 4.3 l 4.18,-173.196 h 5.7 l 4.3,258.406 h 4.22 l 4.3,671.59 h 4.17 l 4.34,-258.39 h 4.3 l 4.18,154.73 h 4.29 l 5.71,35.46 h 4.22 l 4.29,34.11 h 4.18 l 4.3,-52.5 h 4.3 l 4.22,-51.11 h 4.29 l 5.71,137.7 h 4.17 l 4.34,120.7 h 4.18 l 4.3,-86.59 h 4.29 l 4.22,-17.11 h 4.3 l 4.18,69.61 h 5.7 l 4.3,-52.5 h 4.22 l 4.3,241.32 h 4.29 l 4.22,-68.13 h 4.3 l 4.18,17 h 4.29 l 5.71,51.13 h 4.22 l 4.29,-68.13 h 4.18 l 4.3,-69.6 h 4.3 l 4.22,-68.09 h 4.29 l 5.71,51.09 h 12.69 l 4.3,103.6 h 4.29 l 4.22,51.13 h 14.18 l 4.3,-17.02 h 12.81 l 4.22,17.02 h 4.3 l 4.18,-17.02 h 14.22 l 4.29,-51.11 h 4.3 l 4.18,-1532.804 h 4.3 l 4.22,1412.114 h 4.29 l 4.22,-17 h 5.66 l 4.34,17 h 4.18 l 4.3,120.69 h 4.29 l 4.22,51.11 h 4.3 l 4.18,-17 h 5.7 l 4.3,-17.11 h 4.22 l 4.3,-35.46 h 4.29 l 4.22,69.57 h 4.3 l 4.18,-17 h 4.29 l 5.71,17 h 4.22 l 4.29,-17 h 4.3 l 4.18,-52.57 h 4.3 l 4.22,-85.25 h 4.29 l 4.3,-465.66 h 5.58 l 4.34,-326.52 h 4.3 l 4.18,188.79 h 4.29 l 4.22,18.51 h 14.18 l 4.3,16.99 h 12.81 l 4.22,120.71 h 4.3 l 4.18,-258.39 h 4.29 l 5.71,205.89 h 4.22 l 4.29,-34.11 h 4.3 l 4.18,-17.1 h 4.3 l 4.22,-86.61 h 4.29 l 4.3,137.82 h 5.58 l 4.34,-85.2 h 4.3 l 4.18,102.2 h 4.29 l 4.22,-68.21 h 4.3 l 4.3,-33.99 h 4.18 l 5.7,68.09 h 4.3 l 4.22,-68.09 h 4.29 l 4.22,102.2 h 4.3 l 4.18,-205.91 h 4.29 l 5.71,103.71 h 4.22 l 4.29,-224.41 h 4.3 l 4.18,137.81 h 4.3 l 4.22,68.09 h 4.29 l 4.3,-102.18 h 14.22 l 4.18,-69.61 h 4.29 l 4.22,241.39 h 4.3 l 4.3,-309.48 h 4.18 l 5.7,188.79 h 4.3 l 4.22,86.59 4.29,309.5 h 8.52 l 4.29,-309.5 h 4.18 l 5.71,-16.99 h 4.29 l 4.22,137.7 h 4.3 l 4.18,-173.21 h 4.3 l 4.22,-51.09 h 4.29 l 4.3,86.6 h 5.58 l 4.34,-69.6 h 4.3 l 4.18,51.09 h 12.81 l 4.3,173.21 h 4.18 l 5.7,-154.7 h 4.3 l 4.22,-52.62 h 4.29 l 4.22,17.11 h 4.3 l 4.29,17 h 4.18 l 4.3,-119.18 h 5.7 l 4.22,-103.72 h 4.3 l 4.18,-379.097 h 4.3 l 4.33,103.711 h 4.18 l 4.3,-69.609 h 5.7 l 4.22,275.395 h 4.3 l 4.18,224.41 h 4.29 l 4.22,-292.497 h 4.3 l 4.3,498.317 h 4.18 l 5.7,362.07 h 4.3 l 4.22,86.61 h 4.29 l 4.22,16.98 h 4.3 l 4.29,17.11 h 4.18 l 4.3,-154.79 h 5.7 l 4.22,68.2 h 4.3 l 4.18,-51.09 h 12.81 l 4.3,103.59 h 5.7 l 4.22,-413.2 h 4.3 l 4.18,-430.21 h 4.29 l 4.3,-275.384 h 4.22 l 4.3,-52.5 h 14.18 l 3.9,154.688"
             style="fill:none;stroke:#4472c4;stroke-width:11.83199978;stroke-linecap:round;stroke-linejoin:round;stroke-miterlimit:10;stroke-dasharray:none;stroke-opacity:1"
             id="path4616"
             inkscape:connector-curvature="0" /><g
             id="g4618"
             transform="scale(4.47996)"><path
               d="m 111.32,305.238 0.898,-13.306 0.96,11.719 1.272,3.175 0.933,-0.943 0.96,-2.232 0.96,3.489 0.941,-3.489 0.958,1.902 0.942,1.273 0.96,-136.903 0.933,-18.077 1.273,-0.313 0.959,-0.959 0.942,627.84 0.958,-626.881 0.96,36.76 0.933,-36.114 0.96,-0.646 0.941,-19.644 0.958,19.644 h 1.274 l 0.933,-0.959 0.967,1.605 0.96,-0.333 0.933,-0.941 0.96,0.941 h 0.939 l 0.96,-1.272 1.273,-18.059 0.933,19.018 0.96,-0.628 0.96,0.941 h 0.941 l 0.958,-19.643 0.941,19.33 0.96,0.313 0.96,-0.941 1.246,-18.39 0.96,19.018 0.96,-0.628 0.939,1.274 0.961,-19.976 0.932,19.016 0.96,0.314 h 0.942 l 0.958,-19.644 1.274,20.29 0.933,-0.646 0.966,-0.959 0.96,-18.059 0.933,19.331 0.96,-2.214 0.94,-16.471 0.96,18.372 0.959,-0.314 1.246,-19.016 0.96,19.33 0.96,-0.628 0.942,0.941 0.958,-19.331 0.941,18.39 0.96,0.941 0.96,-19.331 1.246,18.39 0.959,-18.39 0.96,19.018 0.94,-0.628 0.96,-18.39 0.933,19.331 0.96,-19.643 0.958,19.016 0.941,0.314 1.275,-19.644 0.958,19.957 h 0.941 l 0.96,-20.114 0.933,20.447 0.96,-19.664 0.94,18.39 0.96,-18.39 0.959,19.331 1.246,-1.587 0.96,-17.744 0.96,19.331 0.942,-0.941 0.957,-18.39 0.942,19.331 0.96,-19.957 0.96,20.29 1.246,-19.976 0.959,19.016 0.96,0.314 0.94,-19.33 0.96,18.702 0.933,0.941 0.96,-19.643 0.958,19.016 0.941,-19.016 1.275,19.643 0.957,-19.957 0.942,20.29 0.96,-0.646 0.933,-19.33 0.96,19.33 0.958,-19.33 0.942,18.702 0.959,-18.39 1.273,19.331 0.933,-20.114 0.96,0.783 0.942,19.331 0.957,-19.957 0.942,39.935 0.96,16128.176 0.96,-15946.902 0.933,-45.958 1.272,19.976 0.96,-26.63 0.94,8.241 0.96,-3.174 0.933,-5.694 0.96,10.786 0.957,-4.447 0.942,-2.852 1.275,2.207 0.957,1.917 0.942,-5.712 0.96,5.712 0.933,-0.644 0.96,-5.068 0.957,6.027 0.943,-7.299 0.96,0.645 1.272,13.62 0.933,-7.925 0.96,-44.041 0.942,86.521 0.957,-101.432 0.96,107.117 0.942,-43.728 0.96,-5.71 0.933,-5.379 1.272,10.131 0.96,-178.102 0.94,242.46 0.96,15.823 0.933,-64.33 0.96,-24.398 0.957,5.382 0.942,-0.942 1.275,-4.125 0.957,4.125 0.942,1.587 0.96,-5.398 0.933,4.124 0.96,-13.306 0.957,13.621 0.943,-4.753 0.96,6.339 1.272,-21.859 0.933,32.951 0.96,-10.131 0.942,-41.838 0.957,34.538 0.96,43.746 0.942,-42.168 0.96,2.232 h 0.933 l 1.272,1.257 0.96,-82.077 0.94,164.796 0.96,-83.661 0.96,-44.688 0.933,88.729 0.957,-62.432 0.942,30.11 0.96,-46.893 1.272,34.859 0.942,-6.669 0.96,49.438 0.933,-41.182 0.96,-7.611 0.957,-9.19 0.943,15.214 0.959,12.034 1.273,-7.612 0.933,-100.135 0.96,162.573 0.942,-40.875 0.957,-45.315 0.96,26.297 0.942,3.793 0.96,-10.445 0.933,-41.199 1.272,73.209 0.96,-25.043 0.94,-11.092 0.96,5.397 0.959,-1.587 0.934,-3.81 0.957,6.339 0.942,-2.859 0.96,-4.107 1.272,6.966 0.942,-1.272 0.96,-5.067 0.96,5.397 0.933,-1.272 0.957,-3.811 0.943,4.439 0.959,-0.628 1.273,-4.125 0.933,5.712 0.96,-3.165 0.941,-5.406 0.958,13.636 0.96,-26.627 0.941,12.676 0.96,12.993 0.933,-10.134 1.273,20.92 0.96,-12.033 0.94,-23.777 0.96,31.049 0.959,-26.944 0.934,-42.139 0.957,102.991 0.942,-19.644 0.96,-45.313 1.272,8.866 h 0.942 l 0.96,49.752 0.96,-45.942 0.932,9.514 0.958,-5.407 0.942,-5.379 0.96,15.853 0.96,-6.655 1.246,-8.571 0.96,-6.967 0.957,29.472 0.942,-58.307 0.96,90.648 0.941,-48.507 0.96,-5.694 0.958,11.719 1.248,-5.71 0.96,-30.422 0.939,64.016 0.96,-56.719 0.96,39.936 0.933,-10.472 0.958,-6.009 0.942,-11.091 0.96,2.216 1.272,24.396 0.941,-18.686 0.96,7.273 0.96,-3.165 0.933,-6.34 0.958,8.241 0.942,-1.587 0.959,-3.489 0.96,1.902 1.246,1.273 0.96,-2.86 0.958,1.917 0.942,0.943 0.96,-2.521 0.941,0.933 0.96,0.96 0.958,-2.232 1.247,1.587 0.96,0.33 0.958,-2.537 0.942,3.794 0.959,-1.587 0.934,-3.166 0.958,5.083 0.968,-0.644 0.933,-4.753 1.273,5.067 0.941,-1.257 0.96,-1.578 0.96,1.248 0.933,0.645 0.958,-4.125 0.942,5.712 0.959,-1.587 0.96,-5.712 1.246,8.241 0.96,-1.587 0.958,-6.966 0.941,8.553 0.96,-1.587 0.942,-5.067 0.96,5.397 0.957,-1.272 1.248,-4.44 0.96,5.382 0.958,-0.314 0.942,-4.439 0.959,5.398 0.934,-1.902 0.958,-4.752 0.968,8.242 0.933,-23.15 1.272,13.636 0.96,30.43 0.942,-23.463 0.96,-7.612 0.933,11.091 0.957,-3.479 0.96,-27.258 0.942,51.654 0.96,-44.999 1.246,-14.266 0.96,59.265 0.958,14.597 0.941,-84.309 0.96,88.102 0.942,-63.389 0.96,19.66 0.957,3.49 0.933,-39.621 1.275,58.951 0.958,-23.15 0.942,20.917 0.959,-20.917 0.934,-17.746 0.957,19.019 0.969,24.396 0.933,-59.883 1.272,63.058 0.96,-32.951 0.942,-48.82 0.96,-4.422 0.933,-5.082 0.957,49.753 0.96,88.439 0.942,-75.116 0.96,38.661 1.272,18.058 0.934,-42.768 0.957,-108.704 0.942,152.745 0.96,-26.942 0.96,-47.521 0.942,-157.212 0.957,316.296 0.933,-98.572 1.275,-44.356 0.957,-0.33 0.943,-13.926 0.96,8.859 0.933,13.639 0.957,-10.779 0.969,0.959 0.933,4.107 1.272,-1.586 0.96,-4.439 0.942,5.083 0.96,-1.272 0.933,-3.811 0.957,4.439 0.96,0.314 0.943,-6.966 0.959,9.817 1.273,-3.165 0.933,-4.439 0.957,5.083 0.942,-1.587 0.96,-4.752 0.96,7.927 0.942,-2.86 0.957,-5.067 0.933,8.242 1.275,-3.49 0.957,-3.81 0.943,5.397 0.96,2.521 0.959,-12.679 0.931,11.1 0.969,-2.214 0.933,-0.645 0.96,-2.52 1.272,4.107 0.942,-6.009 h 0.96 l 0.933,13.306 0.957,-13.306 0.96,9.514 0.943,-6.994 0.959,-2.205 1.273,7.281 0.933,-1.257 0.957,-5.083 0.942,4.439 0.96,-0.628 0.96,-4.44 0.942,6.654 0.957,-2.529 0.933,-5.397 1.275,8.572 0.957,-2.232 0.943,-4.108 0.96,3.48 0.959,0.942 0.931,-5.382 0.969,7.3 0.933,-3.82 0.96,-4.752 1.272,8.887 0.942,-3.175 0.96,-8.571 0.957,14.265 0.933,-5.066 0.96,-11.092 0.943,-22.19 0.959,14.263 1.273,29.177 0.933,33.596 0.957,-82.731 0.942,-6.339 0.96,49.135 0.96,54.505 0.941,-83.994 0.958,29.489 0.933,27.563 1.275,-19.333 0.957,-24.083 0.943,7.281 0.96,17.744 0.959,-25.983 0.931,8.553 0.969,0.959 0.933,7.299 0.96,-10.786 1.272,6.024 0.941,-14.91 0.96,-28.188 0.958,42.453 0.933,62.744 0.96,-80.802 0.942,32.009 0.96,-4.752 0.958,-6.967 1.248,1.903 0.957,-10.474 0.969,5.721 0.933,-5.076 0.96,10.761 0.941,-3.479 0.958,-4.753 0.933,6.654 1.274,-4.107 0.958,9.817 0.942,-17.429 0.96,9.19 0.96,-2.232 0.931,1.587 0.969,-2.207 0.932,0.305 0.96,6.34 1.273,-4.438 0.941,-1.248 0.96,1.248 0.958,0.645 0.933,-2.547 0.96,1.587 0.942,1.902 0.959,-5.067 0.959,5.397 1.247,-1.272 0.958,-3.811 0.969,4.753 0.932,-0.314 0.961,-4.439 0.941,5.083 0.958,-1.272 0.96,-4.125 1.247,6.654 0.958,-3.174 0.96,-1.248 0.942,-0.339 0.959,2.86 0.932,-4.439 0.968,5.083 0.933,-1.917 h 0.96 l 1.273,-0.315 0.941,0.96 0.96,-3.48 0.958,4.108 h 0.933 l 0.96,-4.753 0.942,5.397 0.959,-0.644 0.959,-2.206 1.247,-0.315 0.958,1.578 0.968,-0.645 0.933,-1.272 0.96,3.504 0.942,-5.712 0.957,5.712 0.96,-5.397 0.933,4.753 1.273,0.644 0.96,-1.272 0.942,-3.811 0.959,4.753 0.932,-0.942 0.968,-4.125 0.96,5.712 0.933,-1.587 1.272,-3.811 0.96,4.753 0.942,-2.52 0.957,0.933 0.933,0.645 0.96,-0.315 0.943,-5.397 0.959,9.505 0.958,-4.108 1.248,-3.496 0.958,5.083 0.968,-0.644 0.933,-1.588 0.96,-0.618 0.942,1.263 0.957,-1.263 0.96,0.618 0.933,0.96 1.272,-4.752 0.96,6.339 0.943,-1.902 0.959,-3.165 0.931,-14.911 0.969,19.333 0.96,8.569 0.933,-3.486 1.272,-6.34 0.96,-3.81 0.942,6.339 0.957,-2.859 0.933,-8.241 0.96,16.813 0.96,-11.407 0.942,12.991 0.958,-47.232 1.274,18.391 0.931,21.23 0.969,-7.612 0.933,57.365 0.96,-58.952 0.942,19.331 0.957,-16.472 0.96,2.208 0.933,2.86 1.272,-1.588 0.96,-0.618 0.943,3.165 0.959,-3.819 0.931,0.339 0.969,2.521 0.96,-1.588 0.933,0.315 0.957,0.33 1.275,0.943 0.942,-5.38 0.957,6.339 0.933,-0.959 0.96,-5.068 0.96,5.712 0.942,-1.272 0.958,-5.712 1.274,8.572 0.931,-2.232 0.969,-4.439 0.933,4.753 0.96,-0.942 0.957,-1.893 0.942,0.933 0.96,0.96 0.933,-4.125 1.272,4.753 0.96,-0.628 0.943,-5.067 0.959,8.242 0.931,-2.547 0.969,-6.34 0.96,8.572 0.933,-2.232 0.957,-6.34 1.275,7.926 0.942,-2.214 0.957,-6.984 0.933,12.049 0.96,-5.065 0.96,-4.44 0.942,6.027 0.958,-3.819 1.274,-3.792 0.931,12.049 0.969,-5.397 0.933,-6.967 0.96,9.514 0.957,-2.547 0.942,-7.927 0.96,3.819 0.933,4.422 h 1.272 l 0.96,-10.446 0.943,17.431 0.959,-14.581 0.958,9.829 0.942,-1.903 0.96,-20.917 0.933,35.157 0.957,-14.884 1.275,-22.19 0.942,39.62 0.957,-10.131 0.933,-17.431 0.96,12.364 0.96,-7.3 0.942,-2.544 0.958,21.563 1.274,-26.943 0.931,27.876 0.969,-27.249 0.933,6.985 0.96,4.107 0.957,-11.406 0.942,0.645 0.96,-7.297 0.933,11.719 1.272,33.596 0.96,-7.596 0.943,-83.349 0.959,92.532 0.958,-89.697 0.942,90.342 0.96,-17.44 0.933,25.052 0.957,-23.15 1.275,-49.44 0.941,-1.9 0.958,87.481 0.96,-222.815 0.933,-0.941 0.96,0.314 0.941,19.976 0.959,-19.976 0.941,-0.314 1.264,20.29 0.969,1349.771 0.933,-1189.727 0.96,-12.364 0.957,4.446 0.942,-5.406 0.96,-26.297 0.933,84.316 1.272,-60.224 0.96,-58.952 0.942,121.068 0.96,-39.935 0.958,-25.356 0.941,-6.024 0.96,43.413 0.933,-34.529 0.958,4.107 1.275,18.389 0.941,-23.141 0.958,8.886 0.96,-5.406 0.933,12.364 0.96,-15.538 0.941,18.085 0.959,-5.398 0.959,-2.844 1.246,11.101 0.968,-25.052 0.96,12.373 0.933,18.373 0.958,-17.125 0.942,-16.786 0.96,14.884 0.933,3.175 1.272,-0.628 0.96,14.579 0.942,-32.01 0.959,17.116 0.959,-1.578 0.941,1.248 0.96,0.33 0.933,-4.125 0.958,7.3 1.274,-3.175 0.942,-3.165 0.958,4.108 0.96,-0.628 0.933,14.893 0.96,-32.324 0.941,16.786 0.958,15.538 0.96,-32.636 1.246,17.743 0.968,14.893 0.96,-32.324 0.933,17.116 0.958,14.894 0.941,-32.637 0.96,18.686 0.96,14.578 0.933,-32.949 1.273,17.428 0.96,14.894 0.941,-31.695 0.959,16.801 0.941,15.208 0.96,-32.951 0.933,17.743 0.958,15.521 1.274,-33.264 0.942,18.058 0.957,-3.48 0.96,4.422 0.933,-0.942 0.96,-2.547 0.942,3.489 0.958,-1.587 0.959,-3.166 1.246,5.083 0.969,-1.587 0.96,-2.537 0.933,2.207 0.958,1.273 0.941,14.265 0.96,-32.636 0.96,25.022 0.933,-18.37 1.272,11.719 0.96,-0.943 0.942,2.215 0.958,-83.35 0.942,83.664 0.96,-2.859 0.957,-3.48 0.933,5.712 1.275,-3.819 h 0.958 l 0.941,4.446 0.96,-2.214 0.933,-4.44 0.96,6.969 0.942,-3.174 0.958,-2.835 0.959,4.422 1.246,-1.257 0.969,-3.81 0.96,6.339 0.933,-2.529 0.957,-2.232 0.942,1.587 0.96,2.232 0.96,-3.504 0.933,1.587 1.272,1.273 0.96,-2.521 0.942,1.248 h 0.958 l 0.942,-3.166 0.96,5.083 0.957,-1.272 0.933,14.893 0.96,-32.636 1.272,17.428 0.942,15.521 0.96,-32.637 0.933,16.786 0.96,-1.248 0.966,0.933 0.934,0.645 0.959,15.827 1.273,-34.215 0.942,19.331 0.96,14.265 0.933,-32.324 0.957,16.786 0.942,15.538 0.96,-52.299 0.96,37.091 0.933,-45.96 1.272,115.985 0.96,-110.291 0.942,72.903 0.958,-47.547 0.942,31.705 0.96,-20.605 0.957,-31.049 0.933,61.471 0.96,-50.695 1.272,13.307 0.942,8.239 0.96,-0.628 0.933,30.092 0.96,-31.052 0.966,38.036 0.934,-46.275 0.959,11.719 1.273,14.579 0.942,-30.09 0.96,16.156 0.933,-0.645 0.957,-2.52 0.96,5.694 0.942,-3.792 0.96,16.784 0.933,-32.637 1.272,21.224 0.96,-24.701 0.87,36.114"
               style="fill:none;stroke:#ed7d31;stroke-width:2.64108992;stroke-linecap:round;stroke-linejoin:round;stroke-miterlimit:10;stroke-dasharray:none;stroke-opacity:1"
               id="path4620"
               inkscape:connector-curvature="0" /></g><path
             d="m 498.711,1367.45 4.019,-59.61 4.301,52.5 5.699,14.23 4.18,-4.23 4.301,-10 4.301,15.64 4.218,-15.64 4.29,8.52 4.218,5.71 4.301,-613.324 4.18,-80.98 5.703,-1.403 4.297,-4.297 4.222,95.2 4.289,-90.903 4.301,79.492 4.18,-76.679 4.301,-2.813 4.218,-1.41 4.29,1.41 h 5.71 l 4.18,-4.297 4.328,7.11 4.301,-1.41 4.18,-4.219 4.301,4.219 4.21,-86.602 4.301,80.902 5.699,7.11 4.18,-2.813 4.301,-2.816 4.301,4.219 4.218,-86.602 4.29,83.789 4.218,1.41 4.301,1.403 4.301,-4.219 5.582,-82.383 4.297,85.199 4.301,-2.816 4.21,-82.383 4.301,85.199 4.18,-1.41 4.301,1.41 4.218,-86.597 4.29,83.781 5.71,5.629 4.18,-2.813 4.328,-88.707 4.301,91.52 4.18,-1.41 4.301,-9.922 4.21,-73.789 4.301,82.308 4.297,-1.41 5.582,-85.187 4.301,86.597 4.301,-2.816 4.218,-82.383 4.29,86.602 4.218,-4.219 4.301,-82.383 4.301,86.602 5.582,-4.219 4.297,-82.383 4.301,85.199 4.21,-88.008 4.301,89.411 4.18,-86.602 4.301,83.789 h 4.289 l 4.219,1.41 5.71,-88.008 4.29,89.411 4.218,-86.602 4.301,80.902 4.18,-80.902 4.301,86.602 4.21,-4.219 4.301,-82.383 4.297,86.602 5.582,-7.11 4.301,-79.492 4.301,86.602 4.218,-89.411 4.29,89.411 4.218,-86.602 4.301,82.383 4.301,5.629 5.582,-89.41 4.297,85.187 4.301,-85.187 4.21,86.597 4.301,-2.816 4.18,-82.383 4.301,85.199 4.289,-86.597 4.219,86.597 5.71,1.403 4.29,-89.411 4.218,90.821 4.301,-89.41 4.18,85.187 4.301,-85.187 4.289,86.597 4.222,-88.008 4.297,89.411 5.703,-86.602 4.18,80.902 4.301,-80.902 h 4.218 l 4.29,80.902 4.218,269.797 4.302,-90.886 4.3,345.073 4.18,661.61 5.7,-46.89 4.3,878.91 4.21,180.28 4.3,738.31 4.18,-424.52 4.3,330.82 4.29,366.29 4.22,-222.9 5.71,-653.08 4.29,200.19 4.22,-502.62 4.3,763.8 4.18,-1399.89 4.3,1142.89 4.29,699.41 4.22,-1808.2 4.3,171.81 5.7,-49.7 4.18,-417.41 4.3,-126.41 4.22,-28.41 4.29,406.14 4.3,115 4.22,-159.1 4.3,-214.29 4.18,215.77 5.7,-1333.204 4.3,-5.703 4.21,-4.297 4.3,986.794 4.18,408.91 4.3,381.91 4.29,664.5 4.22,-617.61 5.71,380.5 4.29,-380.5 4.22,540.89 4.3,523.91 4.18,-1321.8 4.3,-658.8 4.29,1874.19 4.22,15.63 4.3,-166.09 5.7,-292.5 4.18,-237.11 4.3,810.7 4.22,-742.63 4.29,373.41 4.3,-797.89 4.22,516.79 4.3,717 4.18,-1331.81 5.7,-511.09 4.3,533.79 4.21,-775.2 4.3,408.91 4.3,-388.98 4.18,-19.93 4.29,-106.48 4.22,127.77 4.3,-198.79 5.7,-107.89 4.22,-110.7 4.3,124.88 4.18,-356.285 4.3,234.215 4.29,214.39 4.22,-193.09 4.3,311.02 5.7,-383.41 4.18,252.77 4.3,-538.196 4.22,198.836 4.29,505.46 4.3,427.31 4.22,177.5 4.3,-430.2 4.18,63.91 5.7,-14.23 4.3,-96.48 4.21,614.69 4.3,485.63 4.3,-796.52 4.18,55.43 4.29,-474.34 4.22,-187.39 4.3,-18.4 5.7,31.22 4.22,-5.7 4.3,-22.71 4.3,24.18 4.18,-5.7 4.29,-17.07 4.22,19.89 4.3,-2.82 5.7,-18.48 4.18,25.59 4.3,-14.18 4.22,-24.22 4.29,61.09 4.3,-291.09 4.22,61.09 4.3,136.29 4.18,-125 5.7,604.93 4.3,-308.09 4.21,-367.82 4.3,144.89 4.3,-308.086 4.18,427.316 4.29,-129.23 4.22,-204.37 4.3,-14.22 5.7,-195.976 4.22,583.586 4.3,-302.41 4.3,312.3 4.18,397.61 4.29,-35.5 4.22,-36.91 4.3,15.62 4.3,-301.02 5.58,289.61 4.3,-180.3 4.29,-134.89 4.22,-261.22 4.3,406.02 4.22,-217.23 4.3,-25.5 4.29,52.5 5.59,-25.59 4.3,-55.31 4.21,22.7 4.3,-70.98 4.3,264.09 4.18,-132.09 4.29,-26.93 4.22,24.11 4.3,-271.18 5.7,401.8 4.22,-168.91 4.3,32.59 4.3,-14.18 4.18,-28.41 4.29,36.93 4.22,-7.11 4.3,-15.64 4.3,8.52 5.58,5.71 4.3,-12.82 4.29,8.59 4.22,4.23 4.3,-11.3 4.22,4.18 4.3,4.3 4.29,-10 5.59,7.11 4.3,1.48 4.29,-11.36 4.22,17 4.3,-7.12 4.18,-14.18 4.29,22.77 4.34,-2.88 4.18,-21.3 5.7,22.71 4.22,-5.64 4.3,-7.07 4.3,5.59 4.18,2.89 4.29,-18.48 4.22,25.59 4.3,-7.11 4.3,-25.59 5.58,36.93 4.3,-7.11 4.29,-31.21 4.22,38.32 4.3,-7.11 4.22,-22.71 4.3,24.18 4.29,-5.7 5.59,-19.89 4.3,24.12 4.29,-1.41 4.22,-19.89 4.3,24.18 4.18,-8.52 4.29,-21.29 4.34,36.93 4.18,-103.71 5.7,144.8 4.3,-35.52 4.22,-16.98 4.3,-34.11 4.18,49.7 4.29,-15.59 4.3,-204.41 4.22,225.7 4.3,-113.59 5.58,150.5 4.3,-491.215 4.29,-174.692 4.22,-11.277 4.3,316.594 4.22,210.09 4.3,-85.2 4.29,628.98 4.18,-195.89 5.71,-802.195 4.29,24.101 4.22,437.294 4.3,157.59 4.18,-157.59 4.29,604.89 4.34,79.5 4.18,-442.98 5.7,860.39 4.3,-702.8 4.22,-467.11 4.3,-542.387 4.18,160.391 4.29,-63.789 4.3,-11.41 4.22,-21.289 4.3,46.8 5.7,-25.511 4.18,79.492 4.29,-72.383 4.22,-4.301 4.3,157.582 4.3,-66.679 4.22,-90.903 4.29,73.91 4.18,462.777 5.71,153.4 4.29,35.5 4.22,414.5 4.3,-55.27 4.18,364.87 4.29,761.02 4.34,-242.8 4.18,921.39 5.7,-1587.3 4.3,-714.18 4.22,22.77 4.3,-7.11 4.18,-15.66 4.29,19.89 4.3,1.41 4.22,-31.21 4.3,43.98 5.7,-14.18 4.18,-19.89 4.29,22.77 4.22,-7.11 4.3,-21.29 4.3,35.4 4.22,-12.7 4.29,-22.7 4.18,36.93 5.71,-15.64 4.29,-17.07 4.22,24.18 4.3,11.3 4.3,-56.8 4.17,49.73 4.34,-9.93 4.18,-2.89 4.3,-11.29 5.7,18.41 4.22,-26.93 4.3,83.72 4.18,-115 4.29,31.28 4.3,42.5 4.22,-31.21 4.3,-9.88 5.7,32.63 4.18,-5.64 4.29,-22.77 4.22,19.89 4.3,-2.82 4.3,-19.89 4.22,29.82 4.29,-11.34 4.18,-24.18 5.71,38.29 4.29,-9.88 4.22,-102.19 4.3,185.98 4.3,-82.38 4.17,-24.12 4.34,32.59 4.18,-17 4.3,-21.29 5.7,39.82 4.22,-14.23 4.3,-38.39 4.29,63.91 4.18,-22.7 4.3,-132 4.22,-286.797 4.3,-102.296 5.7,-97.891 4.18,16.988 4.29,-178.91 4.22,245.59 4.3,-156.098 4.3,-89.492 4.22,163.281 4.29,14.219 4.18,911.496 5.71,166.09 4.29,-76.57 4.22,-333.7 4.3,499.79 4.3,-81 4.17,262.69 4.34,-249.89 4.18,230 4.3,164.7 5.7,-376.22 4.22,-585 4.3,-545.195 4.29,92.301 4.18,886.024 4.3,329.37 4.22,-267 4.3,-300.96 4.29,-120.64 5.59,8.53 4.29,-46.93 4.34,25.63 4.18,-22.73 4.3,48.21 4.22,-15.59 4.29,-21.3 4.18,29.82 5.71,-18.41 4.29,43.98 4.22,-78.07 4.3,41.16 4.3,-10 4.17,7.11 4.34,1.48 4.18,-21.29 4.3,39.7 5.7,-19.89 4.22,-5.59 4.3,5.59 4.29,2.89 4.18,-11.41 4.3,7.11 4.22,8.53 4.3,-22.71 4.29,24.18 5.59,-5.7 4.29,-17.07 4.34,21.3 h 4.18 l 4.3,-21.3 4.22,21.3 4.29,-4.23 4.3,-18.48 5.59,29.82 4.29,-14.23 4.3,-5.59 4.22,-1.52 4.3,12.82 4.17,-19.89 4.34,22.77 4.18,-8.59 h 4.3 l 5.7,-1.41 4.22,4.3 4.3,-15.59 4.29,18.41 h 4.18 l 4.3,-21.3 4.22,24.18 4.3,-2.88 4.29,-9.89 5.59,-1.41 4.29,7.07 4.34,-2.89 4.18,-5.7 4.3,15.7 4.22,-25.59 4.29,25.59 4.3,-24.18 4.18,21.3 5.7,2.88 4.3,-5.7 4.22,-17.07 4.3,21.3 4.17,-4.23 4.34,-18.48 4.3,25.59 4.18,-7.11 5.7,-17.07 4.3,21.3 4.22,-11.3 4.29,4.18 4.18,2.89 4.3,-1.41 4.22,-24.18 4.3,42.59 4.29,-18.41 5.59,-15.66 4.29,22.77 4.34,-2.88 4.18,-7.12 4.3,-2.77 4.22,5.66 4.29,-5.66 4.3,2.77 4.18,4.3 5.7,-21.29 4.3,28.4 4.22,-95.2 4.3,-181.71 4.17,99.41 4.34,347.82 4.3,113.59 4.18,-264.11 5.7,-28.32 4.3,-17.07 4.22,28.41 4.29,-12.82 4.18,-36.91 4.3,75.32 4.3,-112.2 4.22,119.29 4.29,-36.91 5.71,-610.587 4.17,103.723 4.34,160.394 4.18,488.38 4.3,568.02 4.22,7.07 4.29,-648.86 4.3,-83.84 4.18,12.82 5.7,-9.89 h 4.3 l 4.22,14.18 4.3,-17.11 4.17,1.52 4.34,11.3 4.3,-7.12 4.18,1.41 4.29,1.48 5.71,4.23 4.22,-24.11 4.29,28.4 4.18,-4.29 4.3,-22.71 4.3,25.59 4.22,-5.7 4.29,-25.59 5.71,38.29 4.17,-9.88 4.34,-19.89 4.18,21.3 4.3,-4.23 4.29,-8.48 4.22,4.18 4.3,4.3 4.18,-18.48 5.7,21.3 4.3,-2.82 4.22,-22.7 4.3,36.93 4.17,-11.41 4.34,-28.41 4.3,38.29 4.18,-9.88 4.29,-28.41 5.71,35.52 4.22,-9.93 4.29,-19.89 4.18,29.82 4.3,-9.93 4.3,-19.89 4.22,-59.59 4.29,154.68 5.71,-102.18 4.17,53.89 4.34,-24.09 4.18,-31.21 4.3,42.62 4.29,-11.41 4.22,48.27 4.3,-66.68 4.18,-66.8 5.7,86.62 4.3,-46.8 4.22,78.09 4.3,-65.32 4.29,44.03 4.22,-531.027 4.3,-262.687 4.18,460.004 4.29,708.5 5.71,-400.43 4.22,958.41 4.29,-641.8 4.18,-257 4.3,-115 4.3,140.64 4.22,-105.13 4.29,11.4 5.71,55.41 4.17,-51.11 4.34,-198.78 4.18,5.71 4.3,-139.23 4.29,293.91 4.22,-268.32 4.3,-195.973 4.18,153.383 5.7,-52.606 4.3,-15.59 4.22,-184.488 4.3,203.008 4.29,53.866 4.22,-255.464 4.3,25.461 4.18,-16.992 4.29,-5.7 5.71,-76.679 4.22,85.187 4.29,-9.918 4.3,-72.379 4.18,-93.711 4.3,1.411 4.22,89.41 4.29,-89.41 4.22,-1.411 5.66,90.821 4.34,1120.274 4.18,325.12 4.3,146.29 4.29,32.62 4.22,-966.93 4.3,685.83 4.18,78.08 5.7,-444.41 4.3,337.93 4.22,34.11 4.3,573.59 4.29,-749.73 4.22,387.62 4.3,53.98 4.18,-421.69 4.29,-275.5 5.71,585 4.22,232.89 4.29,-621.87 4.3,-120.7 4.18,610.5 4.3,-958.43 4.22,81.02 4.29,-24.18 4.3,-99.43 5.58,136.29 4.34,-22.68 4.3,-119.18 4.18,167.5 4.29,-76.73 4.22,-75.2 4.3,151.93 4.18,-71.02 5.7,-89.41 4.3,151.91 4.22,-55.39 4.3,-98.02 4.29,79.61 4.22,92.19 4.3,-171.8 4.18,68.2 4.29,32.59 5.71,-14.11 4.22,-14.18 4.29,18.41 4.3,-2.82 4.18,66.73 4.3,-56.8 4.22,-99.41 4.29,156.21 4.3,-59.62 5.58,-93.7 4.34,153.32 4.3,-144.82 4.18,76.68 4.29,66.73 4.22,-59.62 4.3,-89.49 4.3,151.92 4.18,-61.02 5.7,-95.2 4.3,153.41 4.22,-142 4.29,75.27 4.22,68.14 4.3,-61.03 4.18,-93.79 4.29,156.22 5.71,-62.43 4.22,-92.29 4.29,156.09 4.3,-65.27 4.18,-90.82 4.3,75.18 4.22,15.64 4.29,-7.12 4.3,71.02 5.58,-149.11 4.34,79.57 4.3,73.84 4.18,-75.32 4.29,5.71 4.22,-21.3 4.3,25.59 4.3,-55.38 4.18,89.36 5.7,-38.27 4.3,-90.91 4.22,96.61 4.29,127.82 4.22,-126.41 4.3,-99.41 4.29,156.21 4.18,-59.62 5.71,-17.11 h 4.29 l 4.22,19.93 4.3,-96.52 4.18,151.91 4.3,-53.98 4.22,-100.82 4.29,158.98 4.3,-65.27 5.58,-92.32 4.34,154.82 4.3,-56.8 4.18,-98.02 4.29,161.93 4.22,-164.73 4.3,96.59 4.3,69.5 4.18,-78.09 5.7,-80.9 4.3,161.92 4.22,-167.61 4.29,86.59 4.22,71.02 4.3,-62.43 4.29,-92.29 4.18,153.32 4.3,-59.62 5.7,-95.2 4.22,156.22 4.3,-58.2 4.18,-99.41 4.3,167.61 4.33,-82.43 4.18,2.89 4.3,-14.18 5.7,18.41 4.22,-86.61 4.3,150.52 4.18,-144.82 4.29,75.2 4.22,69.62 4.3,-756.804 4.3,256.988 4.18,158.996 5.7,-239.894 4.3,-9.922 4.22,79.531 4.29,907.195 4.22,-218.59 4.3,584.88 4.29,-366.29 4.18,-269.69 4.3,-869.025 5.7,173.321 4.22,-193.129 4.3,139.109 4.18,85.188 4.3,-140.578 4.33,762.504 4.18,2038.78 4.3,-472.78 5.7,-1655.5 4.22,-134.93 4.3,72.5 4.18,-2.89 4.29,73.8 4.3,-147.59 4.22,157.59 4.3,-96.57 4.18,-61.02 5.7,95.09 4.3,82.41 3.9,-116.48"
             style="fill:none;stroke:#70ad47;stroke-width:11.83199978;stroke-linecap:round;stroke-linejoin:round;stroke-miterlimit:10;stroke-dasharray:none;stroke-opacity:1"
             id="path4622"
             inkscape:connector-curvature="0" /></g></g><g
         id="g4624"><g
           id="g4626"
           clip-path="url(#clipPath4630)"><g
             id="g4632"
             transform="scale(10)"><text
               transform="matrix(1,0,0,-1,426.672,46.1664)"
               style="font-variant:normal;font-weight:normal;font-size:14.20800018px;font-family:'Times New Roman';-inkscape-font-specification:TimesNewRomanPSMT;writing-mode:lr-tb;fill:#000000;fill-opacity:1;fill-rule:nonzero;stroke:none"
               id="text4640"><tspan
                 x="0"
                 y="0"
                 id="tspan4634">0</tspan><tspan
                 x="0"
                 y="-21.519899"
                 id="tspan4636">5</tspan><tspan
                 x="0 7.1040001"
                 y="-43.049999"
                 sodipodi:role="line"
                 id="tspan4638">10</tspan></text>
<text
               transform="matrix(1,0,0,-1,426.672,110.7266)"
               style="font-variant:normal;font-weight:normal;font-size:14.18400002px;font-family:'Times New Roman';-inkscape-font-specification:TimesNewRomanPSMT;writing-mode:lr-tb;fill:#000000;fill-opacity:1;fill-rule:nonzero;stroke:none"
               id="text4644"><tspan
                 x="0 7.092"
                 y="0"
                 sodipodi:role="line"
                 id="tspan4642">15</tspan></text>
<text
               transform="matrix(1,0,0,-1,426.672,132.2465)"
               style="font-variant:normal;font-weight:normal;font-size:14.20800018px;font-family:'Times New Roman';-inkscape-font-specification:TimesNewRomanPSMT;writing-mode:lr-tb;fill:#000000;fill-opacity:1;fill-rule:nonzero;stroke:none"
               id="text4654"><tspan
                 x="0 7.1040001"
                 y="0"
                 sodipodi:role="line"
                 id="tspan4646">20</tspan><tspan
                 x="0 7.1040001"
                 y="-21.5301"
                 sodipodi:role="line"
                 id="tspan4648">25</tspan><tspan
                 x="0 7.1040001"
                 y="-43.059799"
                 sodipodi:role="line"
                 id="tspan4650">30</tspan><tspan
                 x="0 7.1040001"
                 y="-64.589897"
                 sodipodi:role="line"
                 id="tspan4652">35</tspan></text>
<text
               transform="matrix(1,0,0,-1,426.672,218.3364)"
               style="font-variant:normal;font-weight:normal;font-size:14.18400002px;font-family:'Times New Roman';-inkscape-font-specification:TimesNewRomanPSMT;writing-mode:lr-tb;fill:#000000;fill-opacity:1;fill-rule:nonzero;stroke:none"
               id="text4658"><tspan
                 x="0 7.092"
                 y="0"
                 sodipodi:role="line"
                 id="tspan4656">40</tspan></text>
<text
               transform="matrix(1,0,0,-1,30.502,46.1664)"
               style="font-variant:normal;font-weight:normal;font-size:14.20800018px;font-family:'Times New Roman';-inkscape-font-specification:TimesNewRomanPSMT;writing-mode:lr-tb;fill:#000000;fill-opacity:1;fill-rule:nonzero;stroke:none"
               id="text4662"><tspan
                 x="0"
                 y="0"
                 id="tspan4660">0</tspan></text>
<text
               transform="matrix(1,0,0,-1,23.39809,63.3664)"
               style="font-variant:normal;font-weight:normal;font-size:14.18400002px;font-family:'Times New Roman';-inkscape-font-specification:TimesNewRomanPSMT;writing-mode:lr-tb;fill:#000000;fill-opacity:1;fill-rule:nonzero;stroke:none"
               id="text4666"><tspan
                 x="0 7.092"
                 y="0"
                 sodipodi:role="line"
                 id="tspan4664">10</tspan></text>
<text
               transform="matrix(1,0,0,-1,23.39809,80.6062)"
               style="font-variant:normal;font-weight:normal;font-size:14.20800018px;font-family:'Times New Roman';-inkscape-font-specification:TimesNewRomanPSMT;writing-mode:lr-tb;fill:#000000;fill-opacity:1;fill-rule:nonzero;stroke:none"
               id="text4670"><tspan
                 x="0 7.1040001"
                 y="0"
                 sodipodi:role="line"
                 id="tspan4668">20</tspan></text>
<text
               transform="matrix(1,0,0,-1,23.39809,97.8062)"
               style="font-variant:normal;font-weight:normal;font-size:14.18400002px;font-family:'Times New Roman';-inkscape-font-specification:TimesNewRomanPSMT;writing-mode:lr-tb;fill:#000000;fill-opacity:1;fill-rule:nonzero;stroke:none"
               id="text4674"><tspan
                 x="0 7.092"
                 y="0"
                 sodipodi:role="line"
                 id="tspan4672">30</tspan></text>
<text
               transform="matrix(1,0,0,-1,23.39809,115.0464)"
               style="font-variant:normal;font-weight:normal;font-size:14.20800018px;font-family:'Times New Roman';-inkscape-font-specification:TimesNewRomanPSMT;writing-mode:lr-tb;fill:#000000;fill-opacity:1;fill-rule:nonzero;stroke:none"
               id="text4688"><tspan
                 x="0 7.1040001"
                 y="0"
                 sodipodi:role="line"
                 id="tspan4676">40</tspan><tspan
                 x="0 7.1040001"
                 y="-17.200001"
                 sodipodi:role="line"
                 id="tspan4678">50</tspan><tspan
                 x="0 7.1040001"
                 y="-34.4398"
                 sodipodi:role="line"
                 id="tspan4680">60</tspan><tspan
                 x="0 7.1040001"
                 y="-51.639801"
                 sodipodi:role="line"
                 id="tspan4682">70</tspan><tspan
                 x="0 7.1040001"
                 y="-68.879997"
                 sodipodi:role="line"
                 id="tspan4684">80</tspan><tspan
                 x="0 7.1040001"
                 y="-86.080002"
                 sodipodi:role="line"
                 id="tspan4686">90</tspan></text>
<text
               transform="matrix(1,0,0,-1,16.29379,218.3362)"
               style="font-variant:normal;font-weight:normal;font-size:14.18400002px;font-family:'Times New Roman';-inkscape-font-specification:TimesNewRomanPSMT;writing-mode:lr-tb;fill:#000000;fill-opacity:1;fill-rule:nonzero;stroke:none"
               id="text4692"><tspan
                 x="0 7.092 14.184"
                 y="0"
                 sodipodi:role="line"
                 id="tspan4690">100</tspan></text>
<text
               transform="matrix(-4e-8,1,1,4e-8,54.6723,35.0266)"
               style="font-variant:normal;font-weight:normal;font-size:14.20800018px;font-family:'Times New Roman';-inkscape-font-specification:TimesNewRomanPSMT;writing-mode:lr-tb;fill:#000000;fill-opacity:1;fill-rule:nonzero;stroke:none"
               id="text4696"><tspan
                 x="0"
                 y="0"
                 id="tspan4694">0</tspan></text>
<text
               transform="matrix(-4e-8,1,1,4e-8,70.6024,27.926601)"
               style="font-variant:normal;font-weight:normal;font-size:14.18400002px;font-family:'Times New Roman';-inkscape-font-specification:TimesNewRomanPSMT;writing-mode:lr-tb;fill:#000000;fill-opacity:1;fill-rule:nonzero;stroke:none"
               id="text4700"><tspan
                 x="0 7.092"
                 y="0"
                 sodipodi:role="line"
                 id="tspan4698">14</tspan></text>
<text
               transform="matrix(-4e-8,1,1,4e-8,86.5223,27.926601)"
               style="font-variant:normal;font-weight:normal;font-size:14.20800018px;font-family:'Times New Roman';-inkscape-font-specification:TimesNewRomanPSMT;writing-mode:lr-tb;fill:#000000;fill-opacity:1;fill-rule:nonzero;stroke:none"
               id="text4704"><tspan
                 x="0 7.1040001"
                 y="0"
                 sodipodi:role="line"
                 id="tspan4702">32</tspan></text>
<text
               transform="matrix(-4e-8,1,1,4e-8,102.4524,27.926602)"
               style="font-variant:normal;font-weight:normal;font-size:14.18400002px;font-family:'Times New Roman';-inkscape-font-specification:TimesNewRomanPSMT;writing-mode:lr-tb;fill:#000000;fill-opacity:1;fill-rule:nonzero;stroke:none"
               id="text4708"><tspan
                 x="0 7.092"
                 y="0"
                 sodipodi:role="line"
                 id="tspan4706">50</tspan></text>
<text
               transform="matrix(-4e-8,1,1,4e-8,118.3626,27.926603)"
               style="font-variant:normal;font-weight:normal;font-size:14.20800018px;font-family:'Times New Roman';-inkscape-font-specification:TimesNewRomanPSMT;writing-mode:lr-tb;fill:#000000;fill-opacity:1;fill-rule:nonzero;stroke:none"
               id="text4712"><tspan
                 x="0 7.1040001"
                 y="0"
                 sodipodi:role="line"
                 id="tspan4710">68</tspan></text>
<text
               transform="matrix(-4e-8,1,1,4e-8,134.3024,27.926603)"
               style="font-variant:normal;font-weight:normal;font-size:14.18400002px;font-family:'Times New Roman';-inkscape-font-specification:TimesNewRomanPSMT;writing-mode:lr-tb;fill:#000000;fill-opacity:1;fill-rule:nonzero;stroke:none"
               id="text4716"><tspan
                 x="0 7.092"
                 y="0"
                 sodipodi:role="line"
                 id="tspan4714">87</tspan></text>
<text
               transform="matrix(-4e-8,1,1,4e-8,150.2126,20.816444)"
               style="font-variant:normal;font-weight:normal;font-size:14.20800018px;font-family:'Times New Roman';-inkscape-font-specification:TimesNewRomanPSMT;writing-mode:lr-tb;fill:#000000;fill-opacity:1;fill-rule:nonzero;stroke:none"
               id="text4720"><tspan
                 x="0 7.1040001 14.208"
                 y="0"
                 sodipodi:role="line"
                 id="tspan4718">105</tspan></text>
<text
               transform="matrix(-4e-8,1,1,4e-8,166.1524,20.816444)"
               style="font-variant:normal;font-weight:normal;font-size:14.18400002px;font-family:'Times New Roman';-inkscape-font-specification:TimesNewRomanPSMT;writing-mode:lr-tb;fill:#000000;fill-opacity:1;fill-rule:nonzero;stroke:none"
               id="text4724"><tspan
                 x="0 7.092 14.184"
                 y="0"
                 sodipodi:role="line"
                 id="tspan4722">123</tspan></text>
<text
               transform="matrix(-4e-8,1,1,4e-8,182.0626,20.816445)"
               style="font-variant:normal;font-weight:normal;font-size:14.20800018px;font-family:'Times New Roman';-inkscape-font-specification:TimesNewRomanPSMT;writing-mode:lr-tb;fill:#000000;fill-opacity:1;fill-rule:nonzero;stroke:none"
               id="text4728"><tspan
                 x="0 7.1040001 14.208"
                 y="0"
                 sodipodi:role="line"
                 id="tspan4726">141</tspan></text>
<text
               transform="matrix(-4e-8,1,1,4e-8,198.0024,20.816446)"
               style="font-variant:normal;font-weight:normal;font-size:14.18400002px;font-family:'Times New Roman';-inkscape-font-specification:TimesNewRomanPSMT;writing-mode:lr-tb;fill:#000000;fill-opacity:1;fill-rule:nonzero;stroke:none"
               id="text4732"><tspan
                 x="0 7.092 14.184"
                 y="0"
                 sodipodi:role="line"
                 id="tspan4730">159</tspan></text>
<text
               transform="matrix(-4e-8,1,1,4e-8,213.9126,20.816446)"
               style="font-variant:normal;font-weight:normal;font-size:14.20800018px;font-family:'Times New Roman';-inkscape-font-specification:TimesNewRomanPSMT;writing-mode:lr-tb;fill:#000000;fill-opacity:1;fill-rule:nonzero;stroke:none"
               id="text4736"><tspan
                 x="0 7.1040001 14.208"
                 y="0"
                 sodipodi:role="line"
                 id="tspan4734">179</tspan></text>
<text
               transform="matrix(-4e-8,1,1,4e-8,229.8423,20.816447)"
               style="font-variant:normal;font-weight:normal;font-size:14.18400002px;font-family:'Times New Roman';-inkscape-font-specification:TimesNewRomanPSMT;writing-mode:lr-tb;fill:#000000;fill-opacity:1;fill-rule:nonzero;stroke:none"
               id="text4740"><tspan
                 x="0 7.092 14.184"
                 y="0"
                 sodipodi:role="line"
                 id="tspan4738">197</tspan></text>
<text
               transform="matrix(-4e-8,1,1,4e-8,245.7626,20.816448)"
               style="font-variant:normal;font-weight:normal;font-size:14.20800018px;font-family:'Times New Roman';-inkscape-font-specification:TimesNewRomanPSMT;writing-mode:lr-tb;fill:#000000;fill-opacity:1;fill-rule:nonzero;stroke:none"
               id="text4768"><tspan
                 x="0 7.1040001 14.208"
                 y="0"
                 sodipodi:role="line"
                 id="tspan4742">215</tspan><tspan
                 x="0 7.1040001 14.208"
                 y="15.9098"
                 sodipodi:role="line"
                 id="tspan4744">233</tspan><tspan
                 x="0 7.1040001 14.208"
                 y="31.839899"
                 sodipodi:role="line"
                 id="tspan4746">251</tspan><tspan
                 x="0 7.1040001 14.208"
                 y="47.7598"
                 sodipodi:role="line"
                 id="tspan4748">269</tspan><tspan
                 x="0 7.1040001 14.208"
                 y="63.689899"
                 sodipodi:role="line"
                 id="tspan4750">288</tspan><tspan
                 x="0 7.1040001 14.208"
                 y="79.600098"
                 sodipodi:role="line"
                 id="tspan4752">306</tspan><tspan
                 x="0 7.1040001 14.208"
                 y="95.539902"
                 sodipodi:role="line"
                 id="tspan4754">324</tspan><tspan
                 x="0 7.1040001 14.208"
                 y="111.4501"
                 sodipodi:role="line"
                 id="tspan4756">342</tspan><tspan
                 x="0 7.1040001 14.208"
                 y="127.3899"
                 sodipodi:role="line"
                 id="tspan4758">360</tspan><tspan
                 x="0 7.1040001 14.208"
                 y="143.30009"
                 sodipodi:role="line"
                 id="tspan4760">379</tspan><tspan
                 x="0 7.1040001 14.208"
                 y="159.2399"
                 sodipodi:role="line"
                 id="tspan4762">397</tspan><tspan
                 x="66.119904 75.596634 81.904991 86.536911 91.211411 97.448723 102.97564 110.07964 113.70269 118.3772 124.61451 128.56433 134.83 138.48155 143.15605 147.83055 154.93456 160.46147"
                 y="211.87"
                 sodipodi:role="line"
                 id="tspan4764">Refresh rate (fps)</tspan><tspan
                 x="76.349998 85.826736 93.783096 104.04128 107.59328 114.64047 120.16739 126.40482 133.36693 139.60423 143.2558"
                 y="-236.14"
                 sodipodi:role="line"
                 id="tspan4766">CPU usage %</tspan></text>
<text
               transform="matrix(1,0,0,-1,165.502,4.06641)"
               style="font-variant:normal;font-weight:normal;font-size:14.20800018px;font-family:'Times New Roman';-inkscape-font-specification:TimesNewRomanPSMT;writing-mode:lr-tb;fill:#000000;fill-opacity:1;fill-rule:nonzero;stroke:none"
               id="text4772"><tspan
                 x="0 7.8996482 11.849472 18.157824 24.807076 31.911076 38.148296 44.385628 51.489628 55.581715 59.53154 63.481365 74.535187 80.843536 86.370453 90.320274 96.543327 107.59715 114.70115 118.12539 122.79989 128.3268"
                 y="0"
                 sodipodi:role="line"
                 id="tspan4770">Playback timestamp (s)</tspan></text>
</g></g></g><path
         d="M 238.59,2478.98 H 465.82"
         style="fill:none;stroke:#4472c4;stroke-width:11.83199978;stroke-linecap:round;stroke-linejoin:round;stroke-miterlimit:10;stroke-dasharray:none;stroke-opacity:1"
         id="path4774"
         inkscape:connector-curvature="0" /><g
         id="g4776"><g
           id="g4778"
           clip-path="url(#clipPath4782)"><g
             id="g4784"
             transform="scale(10)"><text
               transform="matrix(1,0,0,-1,49.0023,243.466)"
               style="font-variant:normal;font-weight:normal;font-size:14.20800018px;font-family:'Times New Roman';-inkscape-font-specification:TimesNewRomanPSMT;writing-mode:lr-tb;fill:#000000;fill-opacity:1;fill-rule:nonzero;stroke:none"
               id="text4788"><tspan
                 x="0 9.4767361 17.30537 27.663137 31.215137 38.319138 43.675705 50.04076 57.14476"
                 y="0"
                 sodipodi:role="line"
                 id="tspan4786">CPU usage</tspan></text>
</g></g></g><path
         d="m 1295.82,2478.98 h 227.19"
         style="fill:none;stroke:#ed7d31;stroke-width:11.83199978;stroke-linecap:round;stroke-linejoin:round;stroke-miterlimit:10;stroke-dasharray:none;stroke-opacity:1"
         id="path4790"
         inkscape:connector-curvature="0" /><g
         id="g4792"><g
           id="g4794"
           clip-path="url(#clipPath4798)"><g
             id="g4800"
             transform="scale(10)"><text
               transform="matrix(1,0,0,-1,154.752,243.466)"
               style="font-variant:normal;font-weight:normal;font-size:14.20800018px;font-family:'Times New Roman';-inkscape-font-specification:TimesNewRomanPSMT;writing-mode:lr-tb;fill:#000000;fill-opacity:1;fill-rule:nonzero;stroke:none"
               id="text4804"><tspan
                 x="0 7.8996482 12.630912 18.839727 25.943727 29.893553 36.145054 46.502831 50.054829 54.729282 60.966614 65.783302 70.457802 76.695137 82.222046 89.32605 92.878044 97.68026 103.91759 107.86742"
                 y="0"
                 sodipodi:role="line"
                 id="tspan4802">Preview refresh rate</tspan></text>
</g></g></g><path
         d="m 2861.13,2478.98 h 227.19"
         style="fill:none;stroke:#70ad47;stroke-width:11.83199978;stroke-linecap:round;stroke-linejoin:round;stroke-miterlimit:10;stroke-dasharray:none;stroke-opacity:1"
         id="path4806"
         inkscape:connector-curvature="0" /><g
         id="g4808"><g
           id="g4810"
           clip-path="url(#clipPath4814)"><g
             id="g4816"
             transform="scale(10)"><text
               transform="matrix(1,0,0,-1,311.302,243.466)"
               style="font-variant:normal;font-weight:normal;font-size:14.20800018px;font-family:'Times New Roman';-inkscape-font-specification:TimesNewRomanPSMT;writing-mode:lr-tb;fill:#000000;fill-opacity:1;fill-rule:nonzero;stroke:none"
               id="text4820"><tspan
                 x="0 9.4767361 16.580736 23.684736 27.677114 32.351616 39.455616 43.405437 47.298573 53.663639 58.338142 61.890141 66.56459 72.929657 77.604164 82.278664 88.64373 94.170639 101.27464 104.82664 109.55791 115.76694 119.71677"
                 y="0"
                 sodipodi:role="line"
                 id="tspan4818">Controller refresh rate</tspan></text>
</g></g></g></g></g></svg>