<?xml version="1.0" encoding="UTF-8" standalone="no"?>
<!-- Created with Inkscape (http://www.inkscape.org/) -->

<svg
   xmlns:dc="http://purl.org/dc/elements/1.1/"
   xmlns:cc="http://creativecommons.org/ns#"
   xmlns:rdf="http://www.w3.org/1999/02/22-rdf-syntax-ns#"
   xmlns:svg="http://www.w3.org/2000/svg"
   xmlns="http://www.w3.org/2000/svg"
   xmlns:sodipodi="http://sodipodi.sourceforge.net/DTD/sodipodi-0.dtd"
   xmlns:inkscape="http://www.inkscape.org/namespaces/inkscape"
   version="1.1"
   id="svg128"
   xml:space="preserve"
   width="914.76385"
   height="469.32343"
   viewBox="0 0 914.76389 469.32343"
   sodipodi:docname="perf-rpi.svg"
   inkscape:version="0.92.1 r15371"><metadata
     id="metadata134"><rdf:RDF><cc:Work
         rdf:about=""><dc:format>image/svg+xml</dc:format><dc:type
           rdf:resource="http://purl.org/dc/dcmitype/StillImage" /><dc:title></dc:title></cc:Work></rdf:RDF></metadata><defs
     id="defs132"><clipPath
       clipPathUnits="userSpaceOnUse"
       id="clipPath164"><path
         d="M 51.24,99.24 H 790.68 V 495.72 H 51.24 Z"
         id="path162"
         inkscape:connector-curvature="0"
         style="clip-rule:evenodd" /></clipPath><clipPath
       clipPathUnits="userSpaceOnUse"
       id="clipPath176"><path
         d="M 51.24,99.24 H 790.68 V 495.72 H 51.24 Z"
         id="path174"
         inkscape:connector-curvature="0"
         style="clip-rule:evenodd" /></clipPath><clipPath
       clipPathUnits="userSpaceOnUse"
       id="clipPath188"><path
         d="M 51.24,99.24 H 790.68 V 495.72 H 51.24 Z"
         id="path186"
         inkscape:connector-curvature="0"
         style="clip-rule:evenodd" /></clipPath><clipPath
       clipPathUnits="userSpaceOnUse"
       id="clipPath200"><path
         d="M 51.24,99.24 H 790.68 V 495.72 H 51.24 Z"
         id="path198"
         inkscape:connector-curvature="0"
         style="clip-rule:evenodd" /></clipPath><clipPath
       clipPathUnits="userSpaceOnUse"
       id="clipPath212"><path
         d="M 51.24,99.24 H 790.68 V 495.72 H 51.24 Z"
         id="path210"
         inkscape:connector-curvature="0"
         style="clip-rule:evenodd" /></clipPath><clipPath
       clipPathUnits="userSpaceOnUse"
       id="clipPath224"><path
         d="M 51.24,99.24 H 790.68 V 495.72 H 51.24 Z"
         id="path222"
         inkscape:connector-curvature="0"
         style="clip-rule:evenodd" /></clipPath><clipPath
       clipPathUnits="userSpaceOnUse"
       id="clipPath236"><path
         d="M 51.24,99.24 H 790.68 V 495.72 H 51.24 Z"
         id="path234"
         inkscape:connector-curvature="0"
         style="clip-rule:evenodd" /></clipPath><clipPath
       clipPathUnits="userSpaceOnUse"
       id="clipPath248"><path
         d="M 51.24,99.24 H 790.68 V 495.72 H 51.24 Z"
         id="path246"
         inkscape:connector-curvature="0"
         style="clip-rule:evenodd" /></clipPath><clipPath
       clipPathUnits="userSpaceOnUse"
       id="clipPath260"><path
         d="M 51.24,99.24 H 790.68 V 495.72 H 51.24 Z"
         id="path258"
         inkscape:connector-curvature="0"
         style="clip-rule:evenodd" /></clipPath><clipPath
       clipPathUnits="userSpaceOnUse"
       id="clipPath272"><path
         d="M 51.24,99.24 H 790.68 V 495.72 H 51.24 Z"
         id="path270"
         inkscape:connector-curvature="0"
         style="clip-rule:evenodd" /></clipPath><clipPath
       clipPathUnits="userSpaceOnUse"
       id="clipPath284"><path
         d="M 51.24,99.24 H 790.68 V 495.72 H 51.24 Z"
         id="path282"
         inkscape:connector-curvature="0"
         style="clip-rule:evenodd" /></clipPath><clipPath
       clipPathUnits="userSpaceOnUse"
       id="clipPath296"><path
         d="M 51.24,99.24 H 790.68 V 495.72 H 51.24 Z"
         id="path294"
         inkscape:connector-curvature="0"
         style="clip-rule:evenodd" /></clipPath><clipPath
       clipPathUnits="userSpaceOnUse"
       id="clipPath308"><path
         d="M 51.24,99.24 H 790.68 V 495.72 H 51.24 Z"
         id="path306"
         inkscape:connector-curvature="0"
         style="clip-rule:evenodd" /></clipPath><clipPath
       clipPathUnits="userSpaceOnUse"
       id="clipPath320"><path
         d="M 51.24,99.24 H 790.68 V 495.72 H 51.24 Z"
         id="path318"
         inkscape:connector-curvature="0"
         style="clip-rule:evenodd" /></clipPath><clipPath
       clipPathUnits="userSpaceOnUse"
       id="clipPath332"><path
         d="M 51.24,99.24 H 790.68 V 495.72 H 51.24 Z"
         id="path330"
         inkscape:connector-curvature="0"
         style="clip-rule:evenodd" /></clipPath><clipPath
       clipPathUnits="userSpaceOnUse"
       id="clipPath344"><path
         d="M 51.24,99.24 H 790.68 V 495.72 H 51.24 Z"
         id="path342"
         inkscape:connector-curvature="0"
         style="clip-rule:evenodd" /></clipPath><clipPath
       clipPathUnits="userSpaceOnUse"
       id="clipPath356"><path
         d="M 51.24,99.24 H 790.68 V 495.72 H 51.24 Z"
         id="path354"
         inkscape:connector-curvature="0"
         style="clip-rule:evenodd" /></clipPath><clipPath
       clipPathUnits="userSpaceOnUse"
       id="clipPath368"><path
         d="M 51.24,99.24 H 790.68 V 495.72 H 51.24 Z"
         id="path366"
         inkscape:connector-curvature="0"
         style="clip-rule:evenodd" /></clipPath><clipPath
       clipPathUnits="userSpaceOnUse"
       id="clipPath380"><path
         d="M 51.24,99.24 H 790.68 V 495.72 H 51.24 Z"
         id="path378"
         inkscape:connector-curvature="0"
         style="clip-rule:evenodd" /></clipPath><clipPath
       clipPathUnits="userSpaceOnUse"
       id="clipPath392"><path
         d="M 51.24,99.24 H 790.68 V 495.72 H 51.24 Z"
         id="path390"
         inkscape:connector-curvature="0"
         style="clip-rule:evenodd" /></clipPath><clipPath
       clipPathUnits="userSpaceOnUse"
       id="clipPath404"><path
         d="M 51.24,99.24 H 790.68 V 495.72 H 51.24 Z"
         id="path402"
         inkscape:connector-curvature="0"
         style="clip-rule:evenodd" /></clipPath><clipPath
       clipPathUnits="userSpaceOnUse"
       id="clipPath416"><path
         d="M 51.24,99.24 H 790.68 V 495.72 H 51.24 Z"
         id="path414"
         inkscape:connector-curvature="0"
         style="clip-rule:evenodd" /></clipPath><clipPath
       clipPathUnits="userSpaceOnUse"
       id="clipPath428"><path
         d="M 51.24,99.24 H 790.68 V 495.72 H 51.24 Z"
         id="path426"
         inkscape:connector-curvature="0"
         style="clip-rule:evenodd" /></clipPath><clipPath
       clipPathUnits="userSpaceOnUse"
       id="clipPath440"><path
         d="M 51.24,99.24 H 790.68 V 495.72 H 51.24 Z"
         id="path438"
         inkscape:connector-curvature="0"
         style="clip-rule:evenodd" /></clipPath><clipPath
       clipPathUnits="userSpaceOnUse"
       id="clipPath452"><path
         d="M 51.24,99.24 H 790.68 V 495.72 H 51.24 Z"
         id="path450"
         inkscape:connector-curvature="0"
         style="clip-rule:evenodd" /></clipPath><clipPath
       clipPathUnits="userSpaceOnUse"
       id="clipPath464"><path
         d="M 51.24,99.24 H 790.68 V 495.72 H 51.24 Z"
         id="path462"
         inkscape:connector-curvature="0"
         style="clip-rule:evenodd" /></clipPath><clipPath
       clipPathUnits="userSpaceOnUse"
       id="clipPath476"><path
         d="M 51.24,99.24 H 790.68 V 495.72 H 51.24 Z"
         id="path474"
         inkscape:connector-curvature="0"
         style="clip-rule:evenodd" /></clipPath><clipPath
       clipPathUnits="userSpaceOnUse"
       id="clipPath488"><path
         d="M 51.24,99.24 H 790.68 V 495.72 H 51.24 Z"
         id="path486"
         inkscape:connector-curvature="0"
         style="clip-rule:evenodd" /></clipPath><clipPath
       clipPathUnits="userSpaceOnUse"
       id="clipPath500"><path
         d="M 51.24,99.24 H 790.68 V 495.72 H 51.24 Z"
         id="path498"
         inkscape:connector-curvature="0"
         style="clip-rule:evenodd" /></clipPath><clipPath
       clipPathUnits="userSpaceOnUse"
       id="clipPath512"><path
         d="M 51.24,99.24 H 790.68 V 495.72 H 51.24 Z"
         id="path510"
         inkscape:connector-curvature="0"
         style="clip-rule:evenodd" /></clipPath><clipPath
       clipPathUnits="userSpaceOnUse"
       id="clipPath524"><path
         d="M 51.24,99.24 H 790.68 V 495.72 H 51.24 Z"
         id="path522"
         inkscape:connector-curvature="0"
         style="clip-rule:evenodd" /></clipPath><clipPath
       clipPathUnits="userSpaceOnUse"
       id="clipPath538"><path
         d="M 51.24,99.24 H 790.68 V 495.72 H 51.24 Z"
         id="path536"
         inkscape:connector-curvature="0"
         style="clip-rule:evenodd" /></clipPath><clipPath
       clipPathUnits="userSpaceOnUse"
       id="clipPath552"><path
         d="M 51.24,99.24 H 790.68 V 495.72 H 51.24 Z"
         id="path550"
         inkscape:connector-curvature="0"
         style="clip-rule:evenodd" /></clipPath><clipPath
       clipPathUnits="userSpaceOnUse"
       id="clipPath566"><path
         d="M 51.24,99.24 H 790.68 V 495.72 H 51.24 Z"
         id="path564"
         inkscape:connector-curvature="0"
         style="clip-rule:evenodd" /></clipPath></defs><sodipodi:namedview
     pagecolor="#ffffff"
     bordercolor="#666666"
     borderopacity="1"
     objecttolerance="10"
     gridtolerance="10"
     guidetolerance="10"
     inkscape:pageopacity="0"
     inkscape:pageshadow="2"
     inkscape:window-width="1600"
     inkscape:window-height="837"
     id="namedview130"
     showgrid="false"
     inkscape:zoom="0.79368096"
     inkscape:cx="526.26779"
     inkscape:cy="257.29424"
     inkscape:window-x="-8"
     inkscape:window-y="-8"
     inkscape:window-maximized="1"
     inkscape:current-layer="g136"
     fit-margin-top="0"
     fit-margin-left="0"
     fit-margin-right="0"
     fit-margin-bottom="0" /><g
     id="g136"
     inkscape:groupmode="layer"
     inkscape:label="perf-rpi"
     transform="matrix(1.3333333,0,0,-1.3333333,-107.3118,633.91746)"><path
       d="m 144.48,206.48 h 561.65 m -561.65,25.09 h 561.65 m -561.65,24.87 h 561.65 m -561.65,25.1 h 561.65 m -561.65,25.1 h 561.65 m -561.65,25.1 h 561.65 m -561.65,25.1 h 561.65 m -561.65,25.1 h 561.65 m -561.65,25.1 h 561.65 m -561.65,25.12 h 561.65"
       style="fill:none;stroke:#d9d9d9;stroke-width:1.45249999;stroke-linecap:butt;stroke-linejoin:round;stroke-miterlimit:10;stroke-dasharray:none;stroke-opacity:1"
       id="path140"
       inkscape:connector-curvature="0" /><path
       d="M 206.89,432.16 V 181.28 m 62.29,250.88 V 181.28 m 62.51,250.88 V 181.28 m 62.52,250.88 V 181.28 m 62.28,250.88 V 181.28 M 519,432.16 V 181.28 m 62.29,250.88 V 181.28 M 643.8,432.16 V 181.28 m 62.33,250.88 V 181.28"
       style="fill:none;stroke:#d9d9d9;stroke-width:1.45249999;stroke-linecap:butt;stroke-linejoin:round;stroke-miterlimit:10;stroke-dasharray:none;stroke-opacity:1"
       id="path142"
       inkscape:connector-curvature="0" /><path
       d="M 706.13,181.28 V 432.16"
       style="fill:none;stroke:#bfbfbf;stroke-width:1.45249999;stroke-linecap:butt;stroke-linejoin:round;stroke-miterlimit:10;stroke-dasharray:none;stroke-opacity:1"
       id="path144"
       inkscape:connector-curvature="0" /><path
       d="m 706.13,181.28 h 5.18 m -5.18,41.93 h 5.18 m -5.18,41.6 h 5.18 m -5.18,41.83 h 5.18 m -5.18,41.83 h 5.18 m -5.18,41.83 h 5.18 m -5.18,41.86 h 5.18"
       style="fill:none;stroke:#bfbfbf;stroke-width:1.45249999;stroke-linecap:butt;stroke-linejoin:round;stroke-miterlimit:10;stroke-dasharray:none;stroke-opacity:1"
       id="path146"
       inkscape:connector-curvature="0" /><path
       d="M 144.48,181.28 V 432.16"
       style="fill:none;stroke:#bfbfbf;stroke-width:1.45249999;stroke-linecap:butt;stroke-linejoin:round;stroke-miterlimit:10;stroke-dasharray:none;stroke-opacity:1"
       id="path148"
       inkscape:connector-curvature="0" /><path
       d="M 144.48,181.28 H 706.13"
       style="fill:none;stroke:#bfbfbf;stroke-width:1.45249999;stroke-linecap:butt;stroke-linejoin:round;stroke-miterlimit:10;stroke-dasharray:none;stroke-opacity:1"
       id="path150"
       inkscape:connector-curvature="0" /><path
       d="m 175.69,301.53 0.53,-17.67 0.69,-2.32 0.7,1.16 0.47,-6.74 0.69,4.65 0.7,-5.34 0.7,3.25 0.46,4.18 0.7,-2.09 h 0.7 l 0.46,-3.95 0.7,-0.7 0.7,6.74 0.46,48.11 0.7,-51.36 0.69,-1.63 0.47,3.72 0.7,-2.79 0.69,-0.93 0.47,2.79 0.7,3.95 0.69,0.93 0.47,-2.79 0.7,1.86 0.69,0.93 0.7,-2.79 0.46,6.74 0.7,-8.83 0.7,6.74 0.46,37.18 0.7,-53.22 h 0.7 l 0.46,6.51 0.7,9.53 0.7,-1.86 0.46,6.28 0.7,0.46 0.7,-16.27 0.46,4.65 0.7,6.74 0.7,2.09 0.46,4.88 0.7,-6.97 0.69,2.09 0.7,4.88 0.47,26.96 0.69,-45.32 0.7,11.39 h 0.47 0.69 l 0.7,2.09 0.47,-2.09 0.69,6.97 h 0.7 l 0.46,-11.62 0.7,2.79 0.7,-2.79 0.46,1.86 0.7,9.76 h 0.7 l 0.7,24.64 0.46,-32.77 0.7,-5.58 0.69,2.09 0.47,6.74 0.7,2.79 0.69,-2.79 h 0.47 l 0.7,4.88 0.69,-4.88 0.47,4.88 0.69,-6.97 0.7,6.97 0.47,-4.88 0.69,-15.34 0.7,8.6 0.47,56.01 0.69,-70.76 0.7,14.75 0.7,4.65 h 0.46 l 0.7,2.09 0.7,-15.34 0.46,6.51 0.7,8.83 0.7,-2.09 0.46,6.97 0.7,-20.22 0.69,1.86 0.47,11.39 0.7,-17.89 0.69,11.15 0.47,37.88 0.7,-49.03 0.69,2.09 0.7,13.94 0.47,26.49 0.69,11.16 0.7,10.92 0.46,3.26 0.7,5.57 h 0.7 l 0.46,-1.86 0.7,1.86 0.7,-11.15 0.46,-9.3 0.7,-23.47 0.7,-11.62 0.46,68.56 0.7,-72.05 0.7,-4.18 0.46,1.86 0.7,2.09 0.7,-3.02 0.69,-4.65 0.47,6.74 0.69,-3.95 0.7,0.93 0.47,3.02 0.69,-8.6 0.7,6.51 0.47,-0.93 0.69,0.93 0.7,20.68 0.47,23.24 0.69,-47.87 0.7,6.97 0.46,2.09 0.7,-7.9 0.7,0.93 0.7,7.9 0.46,-5.11 0.7,7.2 0.7,-2.09 0.46,19.99 h 0.7 l 0.69,2.56 0.47,5.57 0.7,-38.11 0.69,57.4 0.47,-46.25 0.7,-1.62 0.69,-4.65 h 0.47 l 0.69,3.02 0.7,-8.6 0.47,4.65 h 0.69 l 0.7,-0.93 0.7,0.93 0.46,-2.79 0.7,6.74 0.7,-3.95 0.46,-2.79 0.7,1.86 0.7,44.85 0.46,-34.86 0.7,-3.95 0.7,-6.04 0.46,-1.86 0.7,-3.72 0.7,8.6 0.46,0.93 0.7,-3.02 h 0.69 l 0.47,-0.93 0.7,0.93 0.69,2.09 0.7,6.74 0.47,-2.09 0.69,16.73 0.7,41.14 0.46,-33.24 0.7,-7.9 0.7,-9.76 0.46,-6.97 h 0.7 0.7 l 0.46,32.77 0.7,-10.92 0.7,2.78 0.46,-10.22 0.7,-12.32 0.7,-2.09 h 0.46 l 0.7,14.41 0.7,31.14 h 0.69 l 0.47,-31.14 0.69,10.22 0.7,-7.9 0.47,5.12 h 0.69 l 0.7,-5.12 h 0.47 l 0.69,-2.32 0.7,-7.44 h 0.47 l 0.69,-6.97 0.7,2.09 0.46,19.76 0.7,2.78 0.7,46.95 0.7,-54.85 0.46,-23.47 0.7,13.71 0.7,2.33 0.46,5.11 0.7,7.44 0.69,2.78 0.47,-2.78 0.7,-19.76 0.69,7.21 0.47,-9.3 0.7,6.97 0.69,14.88 0.47,2.78 h 0.69 l 0.7,38.35 0.47,-41.13 0.69,-5.12 0.7,7.9 0.7,-10.22 h 0.46 l 0.7,10.22 0.7,-15.33 0.46,-18.83 0.7,-1.86 0.7,4.65 0.46,3.95 0.7,-1.86 0.7,-7.9 0.46,-0.7 0.7,17.67 0.7,29.97 0.46,-48.33 0.7,4.41 0.69,13.95 0.7,-12.09 0.47,7.67 h 0.69 l 0.7,-1.86 0.47,-2.79 0.69,-3.02 0.7,5.81 0.46,-7.67 0.7,4.88 0.7,-2.09 0.46,11.16 0.7,7.66 0.7,7.21 0.46,-25.1 0.7,1.16 0.7,8.37 0.46,-12.32 0.7,10.69 0.7,-8.83 0.69,2.09 0.47,1.86 0.7,-3.95 0.69,2.09 0.47,0.7 0.7,1.16 0.69,-6.74 0.47,1.86 0.69,39.28 0.7,-35.1 0.47,-2.32 0.69,5.11 0.7,-2.09 0.47,7.21 0.69,-16.97 0.7,14.64 0.46,-6.74 0.7,4.65 0.7,-4.65 0.7,2.79 0.46,6.28 0.7,-18.83 0.7,13.71 0.46,-2.09 0.7,34.4 0.69,-38.35 0.47,3.02 0.7,-3.02 0.69,66 0.47,-9.29 0.7,-48.58 0.69,-6.04 0.47,-6.74 0.7,6.74 0.69,-2.09 0.7,15.57 0.46,5.11 0.7,-13.24 0.7,1.62 0.46,-6.97 0.7,49.04 0.7,-48.11 0.46,5.81 0.7,20.22 0.7,-8.37 0.46,-11.85 0.7,2.33 0.7,0.46 0.46,-2.79 h 0.7 l 0.7,9.3 0.46,2.55 0.7,-19.75 0.69,10.23 0.7,-8.14 0.47,35.79 0.69,-12.78 0.7,-10.92 0.47,5.57 0.69,-6.04 0.7,-13.71 0.47,12.78 0.69,14.88 0.7,-5.12 0.46,5.12 0.7,-10.46 0.7,-4.88 0.46,-15.34 0.7,6.04 0.7,-8.6 0.69,2.79 0.47,50.9 0.7,-31.61 0.69,-4.65 0.47,-3.95 0.7,-6.74 0.69,6.74 0.47,2.33 0.7,-3.72 0.69,5.81 h 0.47 l 0.69,2.32 0.7,-21.38 0.47,16.97 0.69,-4.42 0.7,2.09 h 0.47 l 0.69,73.33 0.7,-61.71 0.7,-9.53 0.46,-8.83 0.7,-3.02 0.7,0.93 0.46,-4.65 0.7,13.48 0.7,-3.25 0.46,-6.51 0.7,3.02 0.69,-4.88 0.47,0.93 0.7,3.95 0.69,0.93 0.47,2.09 0.7,42.76 0.69,-44.62 0.47,-4.18 h 0.7 l 0.69,3.95 h 0.7 l 0.46,5.81 0.7,-6.74 0.7,-6.74 0.46,4.65 0.7,3.95 0.7,-3.95 0.46,0.93 0.7,13.71 0.7,8.83 0.46,7.9 0.7,-19.28 0.7,-14.88 0.46,1.86 h 0.7 l 0.7,-0.93 0.69,15.11 0.47,-7.21 0.69,12.32 0.7,-20.45 0.47,20.22 0.69,-15.11 0.7,17.9 0.47,-14.88 0.69,19.99 0.7,-16.27 0.47,52.99 0.69,-60.66 0.7,13.95 0.46,-7.21 0.7,-0.7 0.7,7.91 0.46,-4.88 0.7,4.88 0.7,-16.97 0.7,24.4 0.46,-22.54 0.7,12.32 0.69,12.78 0.47,-14.87 0.7,6.5 0.69,-4.41 0.47,47.64 0.7,-48.11 0.69,-2.32 0.47,10.69 0.69,-8.37 0.7,8.14 0.47,-9.76 0.69,4.41 0.7,4.65 0.47,-6.51 0.69,-1.62 0.7,19.52 0.7,-23.48 0.46,3.03 0.7,-0.7 0.7,10.69 0.46,39.27 0.7,-52.29 0.7,23.48 0.46,-33.7 0.7,18.13 0.7,-2.33 0.46,2.33 0.7,-11.16 0.69,3.95 h 0.47 l 0.7,-6.74 0.69,-2.09 0.7,4.88 0.47,29.28 0.69,13.71 0.7,34.29 0.46,-17.79 0.7,-52.75 0.7,-8.6 0.46,0.93 0.7,-3.95 0.7,-4.65 0.46,2.79 0.7,7.9 0.7,-3.95 0.46,1.86 0.7,-1.86 0.7,-2.09 0.46,2.09 0.7,-4.88 0.7,13.25 0.69,49.96 0.47,-52.29 0.69,-11.38 0.7,13.71 0.47,-12.32 0.69,3.95 0.7,-4.88 0.47,4.88 h 0.69 l 0.7,-2.09 h 0.47 l 0.69,11.16 0.7,-15.81 0.46,10.69 0.7,-3.95 0.7,-1.16 0.7,55.78 0.46,-55.78 0.7,1.16 0.7,0.93 0.46,3.02 0.7,-3.95 h 0.69 l 0.47,1.86 0.7,-1.16 0.69,0.23 0.47,-0.93 0.7,-3.95 0.69,3.95 0.47,0.7 0.69,-5.58 0.7,12.32 0.47,45.08 0.69,-51.36 0.7,-2.32 0.7,1.16 0.46,-4.88 0.7,1.86 0.7,0.93 0.46,-0.93 0.7,-0.93 0.7,7.9 0.46,-3.95 0.7,-3.02 0.7,0.93 0.46,-0.93 0.7,0.93 0.7,37.88 0.46,-26.96 0.7,-7.9 0.69,-5.11 0.7,-0.7 0.47,8.83 0.69,-6.97 0.7,4.88 0.47,-6.74 0.69,2.79 0.7,-4.65 0.46,8.6 0.7,-4.88 0.7,1.86 0.46,6.51 0.7,-5.35 0.7,54.15 0.46,-66.93 0.7,19.52 0.7,-4.88 h 0.46 l 0.7,-3.95 0.7,8.83 0.69,-3.95 0.47,-7.67 0.7,2.79 0.69,-0.93 0.47,0.93 0.7,13.71 0.69,-14.64 0.47,-3.72 0.69,11.39 0.7,33.93 0.47,-51.82 0.69,12.08 0.7,5.81 0.47,2.09 0.69,4.88 0.7,-4.88 0.46,2.33 0.7,12.31 0.7,-12.31 h 0.7 l 0.46,-11.16 0.7,2.09 h 0.7 l 0.46,11.62 0.7,10 0.69,15.1 0.47,-29.05 0.7,-10.69 0.69,16.97 0.47,-20.69 0.7,11.39 0.69,-1.86 0.47,8.37 0.7,-11.16 0.69,37.88 0.7,-39.97 0.46,-2.79 0.7,2.79 0.7,-2.79 0.46,10.92 0.7,40.91 0.7,-40.91 0.46,-15.8 0.7,8.6 0.7,-5.58 0.46,1.86 0.7,8.83 0.7,-6.04 0.46,-2.79 0.7,8.83 0.7,-10.69 0.46,6.74 0.7,-6.74 0.69,6.74 0.7,-3.02 0.47,1.86 0.69,51.36 0.7,-49.97 0.47,-3.25 0.69,-1.86 0.7,5.81 0.46,-0.93 0.7,-3.02 0.7,19.29 0.46,-2.79 0.7,-13.48 0.7,4.65 0.46,-4.65 0.7,4.65 0.7,4.42 0.46,-6.28 0.7,29.52 0.7,11.85 0.69,-56.94 0.47,26.26 0.7,13.25 0.69,-21.38 0.47,-0.7 0.7,19.29 0.69,-10.46 0.47,-2.32 0.69,-0.47 0.7,-6.74 0.47,12.32 0.69,-7.2 0.7,9.29 0.47,5.58 0.69,-7.21 0.7,22.31 0.46,-25.09 0.7,1.62 0.7,3.26 0.7,-8.14 0.46,24.17 0.7,-37.88 0.7,16.97 0.46,-0.47 0.7,-19.06 0.69,2.56 0.47,3.02 0.7,13.95 0.69,-8.6 0.47,-10.23 0.7,43.46 0.69,-21.15 0.47,-22.31 0.7,3.72 0.69,2.09 0.7,28.59 0.46,-33.7 0.7,2.09 h 0.7 l 0.46,3.95 0.7,-3.95 h 0.7 l 0.46,26.03 0.7,-31.37 0.7,9.29 0.46,-3.02 0.7,57.87 0.7,-57.87 h 0.46 l 0.7,-1.86 h 0.7 l 0.46,6.97 0.7,-6.04 h 0.69 l 0.7,-4.65 0.47,4.65 0.69,-2.79 0.7,4.88 h 0.47 l 0.69,-9.29 0.7,10.22 0.47,-5.81 0.69,66.93 0.7,-58.56 0.46,-9.07 0.7,4.42 h 0.7 l 0.46,-5.58 0.7,11.39 0.7,-10.23 0.7,2.56 0.46,3.02 h 0.7 0.69 l 0.47,2.79 0.7,-10.69 0.69,12.32 0.47,17.2 0.7,10.69 0.69,-36.49 0.47,3.02 0.69,-1.86 0.7,6.97 0.47,2.09 0.69,-6.04 h 0.7 l 0.47,0.93 0.69,3.02 0.7,8.14 0.7,-8.14 0.46,0.7 0.7,1.39 0.7,-3.02 0.46,57.64 0.7,-70.42 0.7,6.74 0.46,12.09 0.7,-9.07 0.7,1.86 0.46,-0.93 0.7,-5.11 0.69,12.55 0.47,-12.32 0.7,10.69 h 0.69 l 0.47,2.33 0.7,-14.41 0.69,9.29 0.7,-11.38 0.46,59.72 0.7,-51.13 0.7,-0.46 0.46,3.25 h 0.7 l 0.7,5.12 0.46,-8.14 0.7,-3.02 0.7,8.83 0.46,2.33 0.7,-4.42 0.7,4.88 0.46,-5.58 0.7,-7.9 0.7,7.9 0.69,1.4 0.47,37.41 0.69,-39.27 0.7,0.46 0.47,-5.11 0.69,-1.86 0.7,-1.86 0.47,4.88 0.69,-3.95 0.7,2.79 0.47,3.95 h 0.69 l 0.7,-0.93 h 0.46 l 0.7,-1.86 0.7,1.86 0.46,24.87 0.7,-10.69 0.7,-23.47 0.7,6.27 h 0.46 l 0.7,-1.86 0.69,7.67 0.47,2.09 0.7,-2.79 0.69,0.7 0.47,9.3 0.7,-0.47 0.69,-10.69 0.47,1.86 0.69,-2.79 0.7,4.88 0.47,41.37 0.69,-53.45 0.7,5.34 0.7,3.02 0.46,-1.16 0.7,-0.93 0.7,3.72 0.46,-4.65 0.7,6.74 0.7,-6.04 0.46,6.04 0.7,-11.62 0.7,13.95 0.46,-9.07 0.7,2.79 0.7,-0.93 0.46,52.29 0.7,-54.15 0.69,3.95 0.47,0.7 0.7,-5.81 0.69,5.81 0.7,-0.7 0.47,2.79 0.69,-3.95 0.7,-4.88 0.46,8.83 0.7,-11.62 0.7,-1.86 0.46,6.74 0.7,-2.09 0.7,-4.65 0.46,70.65 0.7,-69.25 0.7,7.2 0.46,-8.6 0.7,10.69 0.7,-0.93 0.46,10.46 0.7,-5.11 0.7,-3.02 0.69,-13.95 0.47,8.6 0.7,6.74 0.69,-4.88 0.47,5.81 0.69,3.02 0.7,29.05 0.47,-23.47 0.69,10.46 0.7,-19.99 0.47,4.88 0.69,2.33 0.7,5.11 0.46,7.44 0.7,-5.12 0.7,-2.32 0.7,2.32 0.46,-9.76 0.7,-13.71 h 0.7 l 0.46,-3.25 0.7,7.43 0.69,50.2 0.47,-46.25 0.7,-15.33"
       style="fill:none;stroke:#4472c4;stroke-width:1.93669999;stroke-linecap:round;stroke-linejoin:round;stroke-miterlimit:10;stroke-dasharray:none;stroke-opacity:1"
       id="path152"
       inkscape:connector-curvature="0" /><path
       d="m 175.69,223.18 0.53,166.43 0.69,2.09 0.7,-2.09 0.47,0.69 h 0.69 l 0.7,0.47 0.7,0.46 0.46,-0.46 0.7,-1.16 0.7,1.16 0.46,-0.47 h 0.7 l 0.7,1.4 0.46,-43.93 0.7,43 0.69,-0.47 0.47,0.93 0.7,-1.39 0.69,0.46 0.47,-0.46 0.7,2.55 0.69,-3.25 0.47,1.16 0.7,1.4 0.69,-2.09 0.7,0.69 0.46,0.93 0.7,-1.39 h 0.7 l 0.46,-31.61 0.7,32.54 0.7,-0.47 0.46,0.47 0.7,-0.47 0.7,-0.69 0.46,2.09 0.7,-0.93 0.7,-0.47 0.46,0.47 0.7,-0.47 h 0.7 l 0.46,0.47 0.7,-0.47 0.69,0.47 h 0.7 l 0.47,-17.2 0.69,16.73 0.7,0.47 0.47,-0.47 0.69,0.47 0.7,-0.47 0.47,0.47 0.69,-0.47 0.7,0.47 0.46,-0.47 0.7,0.47 0.7,-0.47 h 0.46 l 0.7,0.47 0.7,-0.47 0.7,-8.83 0.46,1.4 0.7,7.43 0.69,0.47 0.47,-0.47 0.7,0.47 0.69,-0.47 0.47,0.47 h 0.7 l 0.69,-0.47 0.47,0.47 0.69,-0.47 0.7,0.47 0.47,-0.47 h 0.69 l 0.7,0.47 0.47,-17.2 0.69,17.2 0.7,-0.47 0.7,0.47 0.46,-0.47 0.7,0.47 0.7,-0.47 h 0.46 l 0.7,0.47 h 0.7 l 0.46,-0.47 h 0.7 l 0.69,0.47 0.47,-0.47 0.7,0.47 0.69,-0.47 0.47,-17.43 0.7,17.43 0.69,0.93 0.7,-0.46 h 0.47 l 0.69,-0.47 h 0.7 l 0.46,0.47 0.7,-0.47 h 0.7 l 0.46,0.47 0.7,-0.47 h 0.7 l 0.46,-0.69 0.7,2.09 0.7,-0.93 0.46,-26.5 0.7,26.5 0.7,0.93 0.46,-2.56 0.7,2.79 0.7,-2.32 0.69,1.16 0.47,-0.47 0.69,0.47 0.7,0.93 0.47,-2.09 0.69,0.69 0.7,0.47 0.47,0.93 0.69,-1.86 0.7,-16.27 0.47,8.37 0.69,8.83 0.7,0.93 0.46,-0.93 0.7,-0.47 0.7,-0.69 0.7,1.16 0.46,-0.47 0.7,1.4 0.7,-0.93 0.46,-0.47 0.7,0.47 0.69,-0.47 h 0.47 l 0.7,-9.06 0.69,-7.21 0.47,16.27 h 0.7 0.69 l 0.47,0.47 0.69,-0.47 0.7,0.93 h 0.47 l 0.69,-2.09 0.7,2.56 0.7,-2.09 0.46,0.69 0.7,0.47 0.7,-0.47 0.46,0.47 0.7,0.93 0.7,-26.5 0.46,24.41 0.7,0.69 0.7,0.47 h 0.46 l 0.7,-0.47 0.7,0.47 0.46,0.93 0.7,-0.93 0.69,-1.63 0.47,2.56 0.7,-1.4 0.69,0.93 0.7,-0.93 h 0.47 l 0.69,0.47 0.7,-25.57 0.46,25.1 0.7,0.47 0.7,-0.47 0.46,0.47 0.7,-0.47 h 0.7 0.46 l 0.7,0.47 0.7,-0.47 h 0.46 l 0.7,0.47 0.7,-0.47 0.46,0.47 0.7,-0.47 0.7,-17.43 0.69,10.23 0.47,7.2 0.69,0.47 0.7,-0.47 0.47,0.47 0.69,-0.47 h 0.7 l 0.47,0.47 0.69,-0.47 h 0.7 l 0.47,0.47 0.69,-0.47 h 0.7 l 0.46,0.47 0.7,-0.47 0.7,-16.73 0.7,17.2 0.46,-0.47 h 0.7 l 0.7,0.47 0.46,-0.47 h 0.7 l 0.69,0.47 0.47,-0.47 h 0.7 l 0.69,0.47 0.47,-0.47 h 0.7 0.69 l 0.47,0.47 0.69,-0.47 0.7,-16.27 0.47,16.27 h 0.69 l 0.7,0.47 0.7,-0.47 h 0.46 0.7 l 0.7,0.47 0.46,-0.93 h 0.7 l 0.7,0.46 0.46,1.4 0.7,-9.3 0.7,7.21 0.46,0.69 0.7,1.4 0.7,-18.36 0.46,18.36 0.7,-2.56 0.69,2.56 0.7,-0.93 0.47,-0.47 0.69,0.47 0.7,-1.63 0.47,1.16 0.69,1.4 0.7,-2.09 0.46,2.09 0.7,-0.93 0.7,-0.47 0.46,0.47 0.7,-17.2 0.7,16.73 0.46,0.47 0.7,-0.47 0.7,0.47 0.46,-1.16 0.7,2.09 0.7,-2.09 0.69,2.09 0.47,-0.93 0.7,-1.16 0.69,2.09 0.47,-2.56 0.7,2.79 0.69,-1.16 0.47,-0.47 0.69,-17.89 0.7,19.52 0.47,-2.79 0.69,2.56 0.7,-0.93 0.47,-0.47 0.69,-0.69 0.7,2.09 0.46,-0.93 0.7,-0.47 0.7,0.47 0.7,-2.09 0.46,3.25 0.7,-1.16 0.7,-0.47 0.46,-0.69 0.7,-14.88 0.69,14.88 0.47,2.09 0.7,-1.4 0.69,0.47 0.47,-0.47 h 0.7 l 0.69,-0.69 0.47,1.16 0.7,-0.47 h 0.69 l 0.7,1.63 0.46,-1.63 0.7,-0.69 0.7,1.16 0.46,-0.47 0.7,-16.27 0.7,16.27 0.46,1.4 0.7,-0.93 0.7,-0.47 0.46,0.47 0.7,-0.47 0.7,0.47 h 0.46 l 0.7,-0.47 h 0.7 l 0.46,0.47 0.7,-0.47 h 0.69 l 0.7,0.47 0.47,-8.83 h 0.69 l 0.7,8.83 0.47,-0.47 h 0.69 l 0.7,0.47 0.47,-0.47 h 0.69 l 0.7,0.47 0.46,-0.47 h 0.7 l 0.7,0.47 0.46,-1.63 0.7,1.16 0.7,1.4 0.69,-2.09 0.47,-16.04 0.7,18.13 0.69,-0.93 0.47,-0.47 0.7,0.47 0.69,-0.47 h 0.47 l 0.7,0.47 0.69,-0.47 0.47,0.47 0.69,-0.47 h 0.7 l 0.47,0.47 0.69,-0.47 0.7,0.47 0.47,-0.47 0.69,-8.36 0.7,8.83 0.7,-1.16 0.46,2.09 0.7,-3.02 0.7,3.25 0.46,-2.32 0.7,2.09 0.7,-2.09 0.46,0.69 0.7,1.4 0.69,-1.4 0.47,-1.16 0.7,1.63 0.69,1.16 0.47,-1.63 0.7,-17.43 0.69,17.43 0.47,0.47 0.7,-0.47 h 0.69 l 0.7,1.4 0.46,-1.86 0.7,0.46 0.7,0.47 0.46,-0.93 0.7,2.09 0.7,-2.32 0.46,2.09 0.7,-0.47 0.7,-2.09 0.46,-6.27 h 0.7 l 0.7,6.27 0.46,0.7 0.7,2.55 0.7,-3.71 0.69,3.25 0.47,-1.63 0.69,0.47 0.7,-0.47 0.47,0.47 0.69,-0.47 h 0.7 l 0.47,0.47 0.69,-0.47 h 0.7 l 0.47,-33.46 0.69,33.93 0.7,-0.47 0.46,0.47 0.7,-0.47 h 0.7 l 0.46,0.47 0.7,-0.47 h 0.7 l 0.7,0.47 0.46,-0.47 h 0.7 l 0.69,0.47 0.47,-0.47 0.7,0.47 0.69,-0.47 0.47,-33.46 0.7,33.93 0.69,-0.47 0.47,0.47 0.69,-0.47 h 0.7 l 0.47,0.47 0.69,-0.47 h 0.7 0.47 l 0.69,0.47 0.7,-0.47 0.7,0.47 0.46,-1.16 0.7,2.09 0.7,-10.46 0.46,10.92 0.7,-1.86 h 0.7 l 0.46,0.47 0.7,-0.47 0.7,0.47 0.46,-0.47 h 0.7 l 0.69,0.47 0.47,-0.47 h 0.7 l 0.69,0.47 0.7,-1.16 0.47,2.09 0.69,-0.93 0.7,-8.83 0.46,0.46 0.7,6.74 0.7,2.56 0.46,-0.93 0.7,-0.93 0.7,-0.23 0.46,0.23 0.7,0.93 h 0.7 l 0.46,0.93 0.7,-0.93 0.7,-1.63 0.46,1.16 0.7,0.47 0.7,0.93 0.69,-18.36 0.47,17.43 0.69,-0.93 0.7,2.09 0.47,-2.79 0.69,1.16 h 0.7 l 0.47,2.09 0.69,-3.25 0.7,1.16 h 0.47 l 0.69,1.63 0.7,-2.79 0.46,1.63 0.7,-0.47 h 0.7 l 0.7,-15.57 0.46,16.04 0.7,-1.63 0.7,1.63 0.46,-0.47 0.7,1.4 0.69,-2.09 0.47,2.09 0.7,-2.09 0.69,2.09 0.47,-1.4 0.7,-0.46 0.69,1.86 0.47,-2.09 0.69,0.69 0.7,-12.31 0.47,8.83 0.69,4.41 0.7,-0.46 0.7,-1.16 0.46,0.69 h 0.7 l 0.7,0.47 0.46,0.93 0.7,-2.09 0.7,2.09 0.46,-2.09 0.7,1.62 0.7,-1.39 0.46,0.93 0.7,-0.47 0.7,-31.84 0.46,40.67 0.7,-8.83 0.69,0.93 0.7,-1.39 0.47,0.93 h 0.69 l 0.7,-0.47 0.47,0.47 0.69,-0.93 0.7,0.46 0.46,2.09 0.7,-2.09 0.7,-0.69 0.46,2.32 0.7,-1.63 0.7,-25.1 0.46,25.57 0.7,-0.47 0.7,0.47 0.46,-0.47 0.7,-0.69 0.7,2.09 0.69,-2.09 0.47,1.16 h 0.7 l 0.69,0.93 0.47,-0.93 0.7,-0.47 0.69,0.47 0.47,-0.47 0.69,0.47 0.7,-17.2 0.47,17.2 0.69,-0.47 h 0.7 l 0.47,0.47 0.69,-0.47 0.7,0.47 0.46,-0.47 0.7,0.47 0.7,-0.47 0.7,0.47 0.46,-0.47 h 0.7 l 0.7,0.47 0.46,-0.47 0.7,-17.89 0.69,11.15 0.47,7.21 0.7,-0.47 h 0.69 l 0.47,0.47 0.7,-0.47 0.69,-0.69 0.47,2.09 0.7,-2.09 0.69,1.62 0.7,-1.62 0.46,2.32 0.7,-2.32 0.7,1.16 0.46,-0.47 0.7,-33.46 0.7,43.63 0.46,-11.33 0.7,1.16 0.7,0.47 0.46,-0.47 0.7,1.4 0.7,-2.09 0.46,1.16 0.7,-0.47 0.7,1.4 0.46,-1.4 0.7,-0.46 0.69,0.46 0.7,0.47 h 0.47 l 0.69,-25.1 0.7,24.63 0.47,0.93 0.69,-1.39 0.7,1.86 0.46,-2.09 0.7,2.09 0.7,-0.47 0.46,-1.39 0.7,0.46 0.7,0.47 0.46,-0.47 0.7,0.47 0.7,-0.47 0.46,-0.69 0.7,2.09 0.7,-26.03 0.69,24.63 h 0.47 l 0.7,-1.16 0.69,2.79 0.47,-1.63 0.7,0.47 0.69,-0.47 0.47,0.47 0.69,-0.47 h 0.7 l 0.47,0.47 0.69,-0.47 h 0.7 l 0.47,0.47 0.69,-18.36 0.7,2.32 0.46,16.04 0.7,-0.47 h 0.7 l 0.7,0.47 0.46,-0.47 h 0.7 0.7 l 0.46,0.47 0.7,-1.16 0.69,2.09 0.47,-0.93 0.7,-0.47 h 0.69 l 0.47,-1.16 0.7,-33.93 0.69,39.04 0.47,-4.64 0.7,0.69 0.69,0.47 h 0.7 l 0.46,0.93 0.7,-2.09 0.7,0.69 0.46,0.47 0.7,0.46 0.7,-1.62 0.46,2.09 0.7,-0.93 0.7,-1.63 0.46,1.63 0.7,-24.87 0.7,23.94 0.46,0.46 0.7,0.47 0.7,-0.47 0.46,0.47 0.7,-0.47 h 0.69 l 0.7,0.47 0.47,-0.47 0.69,1.4 0.7,-2.09 0.47,1.16 h 0.69 l 0.7,-0.47 0.47,0.47 0.69,-25.1 0.7,26.03 0.46,-2.09 0.7,1.16 0.7,0.46 h 0.46 l 0.7,-0.93 0.7,-1.62 0.7,3.71 0.46,-3.25 0.7,1.16 0.69,1.4 0.47,-2.09 0.7,-6.51 0.69,7.67 0.47,-17.9 0.7,17.43 0.69,-0.46 0.47,2.09 0.69,-1.16 0.7,-0.47 0.47,-0.46 0.69,1.39 0.7,-2.09 0.47,2.56 0.69,-2.09 0.7,2.09 0.7,-1.4 0.46,0.47 0.7,-0.47 0.7,0.47 0.46,-17.2 0.7,16.04 0.7,0.69 0.46,1.4 0.7,-0.93 0.7,-1.63 0.46,2.56 0.7,-2.56 0.69,2.79 0.47,-2.32 0.7,2.09 0.69,-0.93 0.47,-0.47 h 0.7 0.69 l 0.7,0.47 0.46,-25.1 0.7,24.63 0.7,-1.16 0.46,2.56 0.7,-0.93 0.7,-0.47 0.46,0.47 0.7,-0.47 h 0.7 l 0.46,0.47 0.7,-0.47 0.7,-0.69 0.46,2.09 0.7,-2.09 0.7,2.09 0.69,-1.4 0.47,-25.33 0.69,25.8 0.7,0.46 h 0.47 l 0.69,-2.09 0.7,1.16 0.47,1.63 0.69,-2.32 0.7,2.09 0.47,-2.56 0.69,1.16 0.7,0.93 0.46,0.47 0.7,-0.93 0.7,-1.63 0.46,-15.11 0.7,9.07 0.7,6.51 0.7,0.69 0.46,0.93 h 0.7 l 0.69,-1.62 0.47,2.09 0.7,-0.93 0.69,-0.47 h 0.47 l 0.7,0.47 0.69,-1.16 0.47,0.69 0.69,1.4 0.7,-0.93 0.47,-17.2 0.69,16.73 0.7,0.47 0.7,-1.63 0.46,1.16 0.7,0.93 0.7,-0.46 h 0.46 l 0.7,-0.47 0.7,-0.69 0.46,0.69 0.7,1.63 0.7,-1.63 0.46,0.93 0.7,-2.09 0.7,2.56 0.46,-34.4 0.7,33 0.69,0.47 0.47,-1.63 0.7,2.56 0.69,-2.09 0.7,1.62 h 0.47 l 0.69,-1.62 0.7,0.69 h 0.46 l 0.7,0.47 0.7,0.93 0.46,-2.09 0.7,0.69 0.7,1.4 0.46,-18.83 0.7,17.9 h 0.7 0.46 l 0.7,0.93 0.7,-0.93 0.46,-0.47 h 0.7 l 0.7,-0.69 0.69,0.69 0.47,0.47 0.7,0.93 0.69,-0.93 0.47,-0.47 h 0.69 l 0.7,-16.27 0.47,7.91 0.69,8.36 0.7,0.47 0.47,-0.47 0.69,0.47 0.7,-0.47 h 0.46 0.7 l 0.7,0.47 0.7,-0.47 0.46,0.47 0.7,-1.63 0.7,1.63 h 0.46 l 0.7,-0.47 0.69,-16.27 0.47,16.27 0.7,-150.36"
       style="fill:none;stroke:#ed7d31;stroke-width:1.93669999;stroke-linecap:round;stroke-linejoin:round;stroke-miterlimit:10;stroke-dasharray:none;stroke-opacity:1"
       id="path154"
       inkscape:connector-curvature="0" /><path
       d="m 175.69,390.77 0.53,-1.16 0.69,2.09 0.7,-2.09 0.47,0.69 h 0.69 l 0.7,0.47 0.7,0.46 0.46,-0.46 0.7,-1.16 0.7,1.16 0.46,-0.47 h 0.7 l 0.7,1.4 0.46,-2.09 0.7,1.16 0.69,-0.47 0.47,0.93 0.7,-1.39 0.69,0.46 0.47,-0.46 0.7,-5.81 0.69,13.48 0.47,-6.74 0.7,0.93 0.69,-2.09 0.7,0.69 0.46,0.93 0.7,-1.39 h 0.7 l 0.46,2.09 0.7,-1.16 0.7,-0.47 0.46,-7.9 0.7,16.27 0.7,-9.06 0.46,2.09 0.7,-9.3 0.7,16.27 0.46,-7.9 0.7,-8.83 0.7,16.73 0.46,-7.9 0.7,-0.47 0.69,0.47 0.7,-8.37 0.47,16.27 0.69,-8.37 0.7,-7.9 0.47,16.27 0.69,-16.27 0.7,16.27 0.47,-7.9 0.69,-0.47 0.7,0.47 0.46,-0.47 0.7,-7.9 0.7,16.27 0.46,-8.37 0.7,-7.9 0.7,16.27 0.7,-15.8 0.46,15.33 0.7,-7.9 0.69,-7.9 0.47,16.27 0.7,-7.9 0.69,-0.47 0.47,-7.9 0.7,8.37 0.69,-0.47 0.47,8.83 0.69,-8.83 0.7,-7.9 0.47,16.27 0.69,-8.37 0.7,-7.9 0.47,16.27 0.69,-7.9 0.7,-0.47 0.7,0.47 0.46,-0.47 0.7,-7.9 0.7,7.9 0.46,8.37 0.7,-7.9 0.7,-8.37 0.46,7.9 0.7,8.37 0.69,-7.9 0.47,-0.47 0.7,0.47 0.69,-0.47 0.47,-0.69 0.7,0.69 0.69,0.93 0.7,-0.46 0.47,-8.37 0.69,7.9 0.7,8.37 0.46,-7.9 0.7,-0.47 h 0.7 l 0.46,-7.9 0.7,7.9 0.7,8.37 0.46,-17.43 0.7,18.82 0.7,-17.66 0.46,15.11 0.7,-6.74 0.7,0.93 0.46,-2.56 0.7,2.79 0.7,-2.32 0.69,1.16 h 0.47 0.69 l 0.7,0.93 0.47,-2.09 0.69,0.69 0.7,0.47 0.47,0.93 0.69,-1.86 0.7,0.46 h 0.47 l 0.69,0.47 0.7,0.93 0.46,-9.3 0.7,16.27 0.7,-9.06 0.7,1.16 h 0.46 l 0.7,0.93 0.7,-9.3 0.46,16.27 0.7,-16.27 0.69,16.27 0.47,-8.37 0.7,-0.69 0.69,1.16 0.47,-0.47 h 0.7 0.69 l 0.47,0.47 0.69,-0.47 0.7,0.93 0.47,-8.36 0.69,14.64 0.7,-5.81 0.7,-2.09 0.46,0.69 0.7,0.47 0.7,-0.47 0.46,0.47 0.7,0.93 0.7,-1.4 0.46,-0.69 0.7,0.69 0.7,0.47 h 0.46 l 0.7,-0.47 0.7,0.47 0.46,0.93 0.7,-9.3 0.69,15.11 0.47,-5.81 0.7,-9.3 0.69,8.83 0.7,-0.93 0.47,8.37 0.69,-7.9 0.7,-0.47 h 0.46 l 0.7,0.47 0.7,-0.47 0.46,-7.9 0.7,16.27 0.7,-8.37 h 0.46 l 0.7,-7.9 0.7,16.27 0.46,-8.37 0.7,-7.9 0.7,16.27 0.46,-16.27 0.7,7.9 0.7,7.44 0.69,-6.04 0.47,-1.4 0.69,0.47 0.7,-0.47 0.47,0.47 0.69,-8.83 0.7,16.73 0.47,-16.27 0.69,16.27 0.7,-8.37 0.47,-7.9 0.69,7.9 0.7,8.37 0.46,-16.27 0.7,16.27 0.7,-8.37 0.7,-7.9 0.46,7.9 0.7,8.37 0.7,-7.9 0.46,-0.47 h 0.7 l 0.69,0.47 0.47,-8.83 0.7,16.73 0.69,-16.27 0.47,16.27 0.7,-8.37 h 0.69 l 0.47,-7.9 0.69,16.27 0.7,-16.27 0.47,7.9 0.69,8.37 0.7,-16.27 0.7,7.9 0.46,8.37 0.7,-8.37 0.7,0.47 0.46,-0.93 h 0.7 l 0.7,0.46 0.46,1.4 0.7,-9.3 0.7,15.34 0.46,-7.44 0.7,1.4 0.7,-1.86 0.46,1.86 0.7,-2.56 0.69,2.56 0.7,-9.3 0.47,16.27 0.69,-16.27 0.7,15.11 0.47,-7.21 0.69,1.4 0.7,-2.09 0.46,2.09 0.7,-9.3 0.7,16.27 0.46,-16.27 0.7,16.27 0.7,-8.37 0.46,-7.9 0.7,16.27 0.7,-7.9 0.46,-1.16 0.7,2.09 0.7,-2.09 0.69,2.09 0.47,-9.3 0.7,15.34 0.69,-6.04 0.47,-2.56 0.7,2.79 0.69,-9.53 0.47,16.27 0.69,-9.53 0.7,2.79 0.47,-2.79 0.69,2.56 0.7,-9.3 0.47,16.27 0.69,-9.06 0.7,2.09 0.46,-9.3 0.7,16.27 0.7,-16.27 0.7,14.64 0.46,-5.11 0.7,-1.16 0.7,-0.47 0.46,-0.69 0.7,2.09 0.69,-2.09 0.47,2.09 0.7,-1.4 0.69,-7.9 0.47,7.9 0.7,8.37 0.69,-9.06 0.47,1.16 0.7,-0.47 h 0.69 l 0.7,-6.74 0.46,6.74 0.7,7.44 0.7,-6.97 0.46,-0.47 0.7,0.47 0.7,-0.47 0.46,1.4 0.7,-0.93 0.7,-0.47 0.46,-7.9 0.7,16.27 0.7,-16.27 0.46,8.37 0.7,7.9 0.7,-8.37 0.46,-7.9 0.7,7.9 0.69,8.37 0.7,-16.27 0.47,16.27 0.69,-8.37 0.7,-7.9 0.47,16.27 0.69,-8.37 0.7,-7.9 0.47,16.27 0.69,-8.37 0.7,-7.9 0.46,16.27 0.7,-8.37 0.7,-7.9 0.46,15.11 0.7,-7.21 0.7,1.4 0.69,-2.09 0.47,0.69 0.7,1.4 0.69,-9.3 0.47,16.27 0.7,-7.9 0.69,-0.47 h 0.47 l 0.7,0.47 0.69,-8.83 0.47,8.83 0.69,-0.47 0.7,8.37 0.47,-16.27 0.69,16.27 0.7,-16.27 0.47,16.27 0.69,-8.37 0.7,-7.9 0.7,15.34 0.46,-14.64 0.7,14.41 0.7,-5.58 0.46,-2.32 0.7,2.09 0.7,-2.09 0.46,0.69 0.7,1.4 0.69,-1.4 0.47,-1.16 0.7,1.63 0.69,1.16 0.47,-1.63 0.7,-0.69 0.69,0.69 0.47,0.47 0.7,-0.47 h 0.69 l 0.7,1.4 0.46,-1.86 0.7,0.46 0.7,0.47 0.46,-0.93 0.7,2.09 0.7,-2.32 0.46,2.09 0.7,-8.83 0.7,14.64 0.46,-6.28 0.7,-8.36 0.7,14.64 0.46,-7.67 0.7,-5.81 0.7,13.01 0.69,-5.11 0.47,-1.63 0.69,0.47 0.7,-0.47 0.47,-7.9 0.69,16.27 0.7,-8.37 0.47,-7.9 0.69,16.27 0.7,-8.37 h 0.47 l 0.69,-7.9 0.7,16.27 0.46,-7.9 0.7,-0.47 h 0.7 l 0.46,-7.9 0.7,16.27 0.7,-8.37 0.7,0.47 0.46,-8.83 0.7,16.73 0.69,-16.27 0.47,7.9 0.7,0.47 0.69,7.9 0.47,-8.37 0.7,0.47 0.69,-0.47 0.47,-7.9 0.69,7.9 0.7,8.37 0.47,-16.27 0.69,7.9 0.7,8.37 0.47,-8.37 0.69,-7.9 0.7,16.27 0.7,-7.9 0.46,-9.53 0.7,18.82 0.7,-18.82 0.46,10.92 0.7,-1.86 0.7,8.37 0.46,-16.27 0.7,16.27 0.7,-16.27 0.46,16.27 0.7,-8.37 0.69,0.47 0.47,-0.47 h 0.7 l 0.69,0.47 0.7,-1.16 0.47,2.09 0.69,-9.3 0.7,16.27 0.46,-7.9 0.7,-1.63 0.7,2.56 0.46,-9.3 0.7,15.8 0.7,-8.59 0.46,0.23 0.7,0.93 h 0.7 l 0.46,0.93 0.7,-0.93 0.7,-1.63 0.46,1.16 0.7,0.47 0.7,0.93 0.69,-1.86 0.47,0.93 0.69,-0.93 0.7,-6.28 0.47,13.95 0.69,-7.21 h 0.7 l 0.47,-6.27 0.69,13.48 0.7,-7.21 h 0.47 l 0.69,1.63 0.7,-2.79 0.46,1.63 0.7,-0.47 h 0.7 l 0.7,1.4 0.46,-0.93 0.7,-1.63 0.7,1.63 0.46,-0.47 0.7,1.4 0.69,-2.09 0.47,2.09 0.7,-2.09 0.69,2.09 0.47,-1.4 0.7,-0.46 0.69,1.86 0.47,-2.09 0.69,0.69 0.7,-12.25 0.47,26.01 0.69,-12.83 0.7,-8.83 0.7,15.34 0.46,-7.44 h 0.7 l 0.7,0.47 0.46,0.93 0.7,-2.09 0.7,2.09 0.46,-2.09 0.7,1.62 0.7,-1.39 0.46,0.93 0.7,-0.47 0.7,-7.67 0.46,16.5 0.7,-8.83 0.69,0.93 0.7,-1.39 0.47,0.93 h 0.69 l 0.7,-0.47 0.47,0.47 0.69,-0.93 0.7,0.46 0.46,-6.27 0.7,14.64 0.7,-9.06 0.46,2.32 0.7,-1.63 h 0.7 l 0.46,-7.9 0.7,16.27 0.7,-7.9 0.46,-0.47 0.7,-0.69 0.7,2.09 0.69,-2.09 0.47,1.16 h 0.7 l 0.69,0.93 0.47,-9.3 0.7,16.27 0.69,-7.9 0.47,-8.83 0.69,8.83 0.7,7.9 0.47,-16.27 0.69,16.27 0.7,-8.37 0.47,-7.9 0.69,16.27 0.7,-16.27 0.46,16.27 0.7,-16.27 0.7,16.27 0.7,-16.27 0.46,16.27 0.7,-8.37 0.7,-7.9 0.46,16.27 0.7,-17.9 0.69,19.76 0.47,-18.13 0.7,16.27 0.69,-8.37 0.47,-7.9 0.7,16.27 0.69,-9.06 0.47,2.09 0.7,-2.09 0.69,1.62 0.7,-1.62 0.46,2.32 0.7,-2.32 0.7,1.16 0.46,-0.47 0.7,-8.36 0.7,9.99 0.46,5.58 0.7,-7.21 0.7,0.47 0.46,-0.47 0.7,1.4 0.7,-2.09 0.46,1.16 0.7,-0.47 0.7,1.4 0.46,-1.4 0.7,-0.46 0.69,0.46 0.7,0.93 0.47,-0.93 0.69,0.47 0.7,-0.47 0.47,0.93 0.69,-1.39 0.7,1.86 0.46,-2.09 0.7,2.09 0.7,-8.83 0.46,15.33 0.7,-7.9 0.7,-7.9 0.46,16.27 0.7,-16.27 0.7,16.27 0.46,-9.06 0.7,2.09 0.7,-9.3 0.69,16.27 0.47,-8.37 0.7,-1.16 0.69,-5.58 0.47,15.11 0.7,-16.27 0.69,16.27 0.47,-7.9 0.69,-8.83 0.7,16.73 0.47,-16.27 0.69,16.27 0.7,-8.37 0.47,0.47 0.69,-1.63 0.7,2.56 0.46,-0.93 0.7,-0.47 h 0.7 l 0.7,0.47 0.46,-0.47 0.7,-8.36 0.7,16.73 0.46,-7.9 0.7,-1.16 0.69,2.09 0.47,-9.3 0.7,16.27 0.69,-8.37 0.47,-7.9 0.7,4.18 0.69,16.04 0.47,-13.01 0.7,0.69 0.69,0.47 h 0.7 l 0.46,0.93 0.7,-2.09 0.7,0.69 0.46,0.47 0.7,0.46 0.7,-1.62 0.46,2.09 0.7,-9.3 0.7,15.11 0.46,-6.74 0.7,0.46 0.7,-1.39 0.46,0.46 0.7,0.47 0.7,-0.47 0.46,0.47 0.7,-0.47 h 0.69 l 0.7,0.47 0.47,-0.47 0.69,1.4 0.7,-2.09 0.47,1.16 h 0.69 l 0.7,-0.47 0.47,0.47 h 0.69 l 0.7,0.93 0.46,-2.09 0.7,1.16 0.7,0.46 h 0.46 l 0.7,-9.29 0.7,15.1 0.7,-13.01 0.46,13.48 0.7,-7.21 0.69,1.4 0.47,-2.09 0.7,2.09 0.69,-9.3 0.47,15.34 0.7,-7.44 0.69,-0.46 0.47,2.09 0.69,-9.53 0.7,7.9 0.47,7.9 0.69,-15.33 0.7,14.64 0.47,-5.81 0.69,-2.09 0.7,-6.51 0.7,15.57 0.46,-16.27 0.7,16.27 0.7,-7.9 0.46,-0.47 0.7,-0.69 0.7,0.69 0.46,1.4 0.7,-0.93 0.7,-1.63 0.46,2.56 0.7,-2.56 0.69,-5.58 0.47,14.18 0.7,-6.04 0.69,-9.3 0.47,16.27 0.7,-8.37 h 0.69 l 0.7,0.47 0.46,-8.37 0.7,16.27 0.7,-9.53 0.46,2.56 0.7,-9.3 0.7,16.27 0.46,-16.27 0.7,7.9 0.7,8.37 0.46,-16.27 0.7,16.27 0.7,-9.06 0.46,2.09 0.7,-2.09 0.7,2.09 0.69,-1.4 0.47,-0.46 0.69,0.93 0.7,0.46 0.47,-8.36 0.69,14.64 0.7,-7.21 0.47,1.63 0.69,-2.32 0.7,2.09 0.47,-2.56 0.69,1.16 0.7,0.93 0.46,0.47 0.7,-9.3 0.7,15.11 0.46,-6.74 0.7,-7.67 0.7,14.64 0.7,-7.44 0.46,0.93 h 0.7 l 0.69,-1.62 0.47,2.09 0.7,-0.93 0.69,-0.47 h 0.47 l 0.7,-7.9 0.69,15.34 0.47,-7.44 0.69,1.4 0.7,-9.3 0.47,16.27 0.69,-8.37 0.7,-7.9 0.7,15.11 0.46,-7.21 0.7,0.93 0.7,-0.46 0.46,-8.37 0.7,16.27 0.7,-9.06 0.46,0.69 0.7,1.63 0.7,-1.63 0.46,0.93 0.7,-2.09 0.7,2.56 0.46,-0.93 0.7,-0.47 0.69,-7.9 0.47,15.11 0.7,-5.81 0.69,-2.09 0.7,1.62 h 0.47 l 0.69,-1.62 0.7,0.69 h 0.46 l 0.7,0.93 0.7,0.47 0.46,-2.09 0.7,0.69 0.7,1.4 0.46,-2.09 0.7,1.16 h 0.7 0.46 l 0.7,0.93 0.7,-9.3 0.46,7.9 0.7,8.37 0.7,-9.06 0.69,0.69 0.47,0.47 0.7,0.93 0.69,-0.93 0.47,-0.47 h 0.69 l 0.7,-7.9 0.47,16.27 0.69,-8.37 0.7,-7.9 0.47,16.27 0.69,-16.27 0.7,16.27 0.46,-8.37 h 0.7 l 0.7,-7.9 0.7,16.27 0.46,-16.27 0.7,15.11 0.7,-6.74 h 0.46 l 0.7,-0.47 0.69,0.47 0.47,-0.47 0.7,0.93"
       style="fill:none;stroke:#70ad47;stroke-width:1.93669999;stroke-linecap:round;stroke-linejoin:round;stroke-miterlimit:10;stroke-dasharray:none;stroke-opacity:1"
       id="path156"
       inkscape:connector-curvature="0" /><g
       id="g158"><g
         id="g160"
         clip-path="url(#clipPath164)"><text
           transform="matrix(1,0,0,-1,721.06,175.75)"
           style="font-variant:normal;font-weight:normal;font-size:17.44799995px;font-family:'Times New Roman';-inkscape-font-specification:TimesNewRomanPSMT;writing-mode:lr-tb;fill:#000000;fill-opacity:1;fill-rule:nonzero;stroke:none"
           id="text168"><tspan
             x="0"
             y="0"
             id="tspan166">0</tspan></text>
</g></g><g
       id="g170"><g
         id="g172"
         clip-path="url(#clipPath176)"><text
           transform="matrix(1,0,0,-1,721.06,217.56)"
           style="font-variant:normal;font-weight:normal;font-size:17.42399979px;font-family:'Times New Roman';-inkscape-font-specification:TimesNewRomanPSMT;writing-mode:lr-tb;fill:#000000;fill-opacity:1;fill-rule:nonzero;stroke:none"
           id="text180"><tspan
             x="0 8.8319998"
             y="0"
             sodipodi:role="line"
             id="tspan178">10</tspan></text>
</g></g><g
       id="g182"><g
         id="g184"
         clip-path="url(#clipPath188)"><text
           transform="matrix(1,0,0,-1,721.06,259.39)"
           style="font-variant:normal;font-weight:normal;font-size:17.42399979px;font-family:'Times New Roman';-inkscape-font-specification:TimesNewRomanPSMT;writing-mode:lr-tb;fill:#000000;fill-opacity:1;fill-rule:nonzero;stroke:none"
           id="text192"><tspan
             x="0 8.8319998"
             y="0"
             sodipodi:role="line"
             id="tspan190">20</tspan></text>
</g></g><g
       id="g194"><g
         id="g196"
         clip-path="url(#clipPath200)"><text
           transform="matrix(1,0,0,-1,721.06,301.2)"
           style="font-variant:normal;font-weight:normal;font-size:17.42399979px;font-family:'Times New Roman';-inkscape-font-specification:TimesNewRomanPSMT;writing-mode:lr-tb;fill:#000000;fill-opacity:1;fill-rule:nonzero;stroke:none"
           id="text204"><tspan
             x="0 8.8319998"
             y="0"
             sodipodi:role="line"
             id="tspan202">30</tspan></text>
</g></g><g
       id="g206"><g
         id="g208"
         clip-path="url(#clipPath212)"><text
           transform="matrix(1,0,0,-1,721.06,343.03)"
           style="font-variant:normal;font-weight:normal;font-size:17.42399979px;font-family:'Times New Roman';-inkscape-font-specification:TimesNewRomanPSMT;writing-mode:lr-tb;fill:#000000;fill-opacity:1;fill-rule:nonzero;stroke:none"
           id="text216"><tspan
             x="0 8.8319998"
             y="0"
             sodipodi:role="line"
             id="tspan214">40</tspan></text>
</g></g><g
       id="g218"><g
         id="g220"
         clip-path="url(#clipPath224)"><text
           transform="matrix(1,0,0,-1,721.06,384.86)"
           style="font-variant:normal;font-weight:normal;font-size:17.44799995px;font-family:'Times New Roman';-inkscape-font-specification:TimesNewRomanPSMT;writing-mode:lr-tb;fill:#000000;fill-opacity:1;fill-rule:nonzero;stroke:none"
           id="text228"><tspan
             x="0 8.8319998"
             y="0"
             sodipodi:role="line"
             id="tspan226">50</tspan></text>
</g></g><g
       id="g230"><g
         id="g232"
         clip-path="url(#clipPath236)"><text
           transform="matrix(1,0,0,-1,721.06,426.67)"
           style="font-variant:normal;font-weight:normal;font-size:17.42399979px;font-family:'Times New Roman';-inkscape-font-specification:TimesNewRomanPSMT;writing-mode:lr-tb;fill:#000000;fill-opacity:1;fill-rule:nonzero;stroke:none"
           id="text240"><tspan
             x="0 8.8319998"
             y="0"
             sodipodi:role="line"
             id="tspan238">60</tspan></text>
</g></g><g
       id="g242"><g
         id="g244"
         clip-path="url(#clipPath248)"><text
           transform="matrix(1,0,0,-1,120.96,175.75)"
           style="font-variant:normal;font-weight:normal;font-size:17.44799995px;font-family:'Times New Roman';-inkscape-font-specification:TimesNewRomanPSMT;writing-mode:lr-tb;fill:#000000;fill-opacity:1;fill-rule:nonzero;stroke:none"
           id="text252"><tspan
             x="0"
             y="0"
             id="tspan250">0</tspan></text>
</g></g><g
       id="g254"><g
         id="g256"
         clip-path="url(#clipPath260)"><text
           transform="matrix(1,0,0,-1,112.22,200.83)"
           style="font-variant:normal;font-weight:normal;font-size:17.42399979px;font-family:'Times New Roman';-inkscape-font-specification:TimesNewRomanPSMT;writing-mode:lr-tb;fill:#000000;fill-opacity:1;fill-rule:nonzero;stroke:none"
           id="text264"><tspan
             x="0 8.8319998"
             y="0"
             sodipodi:role="line"
             id="tspan262">10</tspan></text>
</g></g><g
       id="g266"><g
         id="g268"
         clip-path="url(#clipPath272)"><text
           transform="matrix(1,0,0,-1,112.22,225.94)"
           style="font-variant:normal;font-weight:normal;font-size:17.42399979px;font-family:'Times New Roman';-inkscape-font-specification:TimesNewRomanPSMT;writing-mode:lr-tb;fill:#000000;fill-opacity:1;fill-rule:nonzero;stroke:none"
           id="text276"><tspan
             x="0 8.8319998"
             y="0"
             sodipodi:role="line"
             id="tspan274">20</tspan></text>
</g></g><g
       id="g278"><g
         id="g280"
         clip-path="url(#clipPath284)"><text
           transform="matrix(1,0,0,-1,112.22,251.02)"
           style="font-variant:normal;font-weight:normal;font-size:17.42399979px;font-family:'Times New Roman';-inkscape-font-specification:TimesNewRomanPSMT;writing-mode:lr-tb;fill:#000000;fill-opacity:1;fill-rule:nonzero;stroke:none"
           id="text288"><tspan
             x="0 8.8319998"
             y="0"
             sodipodi:role="line"
             id="tspan286">30</tspan></text>
</g></g><g
       id="g290"><g
         id="g292"
         clip-path="url(#clipPath296)"><text
           transform="matrix(1,0,0,-1,112.22,276.12)"
           style="font-variant:normal;font-weight:normal;font-size:17.42399979px;font-family:'Times New Roman';-inkscape-font-specification:TimesNewRomanPSMT;writing-mode:lr-tb;fill:#000000;fill-opacity:1;fill-rule:nonzero;stroke:none"
           id="text300"><tspan
             x="0 8.8319998"
             y="0"
             sodipodi:role="line"
             id="tspan298">40</tspan></text>
</g></g><g
       id="g302"><g
         id="g304"
         clip-path="url(#clipPath308)"><text
           transform="matrix(1,0,0,-1,112.22,301.2)"
           style="font-variant:normal;font-weight:normal;font-size:17.42399979px;font-family:'Times New Roman';-inkscape-font-specification:TimesNewRomanPSMT;writing-mode:lr-tb;fill:#000000;fill-opacity:1;fill-rule:nonzero;stroke:none"
           id="text312"><tspan
             x="0 8.8319998"
             y="0"
             sodipodi:role="line"
             id="tspan310">50</tspan></text>
</g></g><g
       id="g314"><g
         id="g316"
         clip-path="url(#clipPath320)"><text
           transform="matrix(1,0,0,-1,112.22,326.3)"
           style="font-variant:normal;font-weight:normal;font-size:17.42399979px;font-family:'Times New Roman';-inkscape-font-specification:TimesNewRomanPSMT;writing-mode:lr-tb;fill:#000000;fill-opacity:1;fill-rule:nonzero;stroke:none"
           id="text324"><tspan
             x="0 8.8319998"
             y="0"
             sodipodi:role="line"
             id="tspan322">60</tspan></text>
</g></g><g
       id="g326"><g
         id="g328"
         clip-path="url(#clipPath332)"><text
           transform="matrix(1,0,0,-1,112.22,351.41)"
           style="font-variant:normal;font-weight:normal;font-size:17.44799995px;font-family:'Times New Roman';-inkscape-font-specification:TimesNewRomanPSMT;writing-mode:lr-tb;fill:#000000;fill-opacity:1;fill-rule:nonzero;stroke:none"
           id="text336"><tspan
             x="0 8.8319998"
             y="0"
             sodipodi:role="line"
             id="tspan334">70</tspan></text>
</g></g><g
       id="g338"><g
         id="g340"
         clip-path="url(#clipPath344)"><text
           transform="matrix(1,0,0,-1,112.22,376.49)"
           style="font-variant:normal;font-weight:normal;font-size:17.42399979px;font-family:'Times New Roman';-inkscape-font-specification:TimesNewRomanPSMT;writing-mode:lr-tb;fill:#000000;fill-opacity:1;fill-rule:nonzero;stroke:none"
           id="text348"><tspan
             x="0 8.8319998"
             y="0"
             sodipodi:role="line"
             id="tspan346">80</tspan></text>
</g></g><g
       id="g350"><g
         id="g352"
         clip-path="url(#clipPath356)"><text
           transform="matrix(1,0,0,-1,112.22,401.59)"
           style="font-variant:normal;font-weight:normal;font-size:17.44799995px;font-family:'Times New Roman';-inkscape-font-specification:TimesNewRomanPSMT;writing-mode:lr-tb;fill:#000000;fill-opacity:1;fill-rule:nonzero;stroke:none"
           id="text360"><tspan
             x="0 8.8319998"
             y="0"
             sodipodi:role="line"
             id="tspan358">90</tspan></text>
</g></g><g
       id="g362"><g
         id="g364"
         clip-path="url(#clipPath368)"><text
           transform="matrix(1,0,0,-1,103.51,426.67)"
           style="font-variant:normal;font-weight:normal;font-size:17.42399979px;font-family:'Times New Roman';-inkscape-font-specification:TimesNewRomanPSMT;writing-mode:lr-tb;fill:#000000;fill-opacity:1;fill-rule:nonzero;stroke:none"
           id="text372"><tspan
             x="0 8.8165436 17.424"
             y="0"
             sodipodi:role="line"
             id="tspan370">100</tspan></text>
</g></g><g
       id="g374"><g
         id="g376"
         clip-path="url(#clipPath380)"><text
           transform="matrix(1,0,0,-1,140.14,155.28)"
           style="font-variant:normal;font-weight:normal;font-size:17.44799995px;font-family:'Times New Roman';-inkscape-font-specification:TimesNewRomanPSMT;writing-mode:lr-tb;fill:#000000;fill-opacity:1;fill-rule:nonzero;stroke:none"
           id="text384"><tspan
             x="0"
             y="0"
             id="tspan382">0</tspan></text>
</g></g><g
       id="g386"><g
         id="g388"
         clip-path="url(#clipPath392)"><text
           transform="matrix(1,0,0,-1,198.19,155.28)"
           style="font-variant:normal;font-weight:normal;font-size:17.44799995px;font-family:'Times New Roman';-inkscape-font-specification:TimesNewRomanPSMT;writing-mode:lr-tb;fill:#000000;fill-opacity:1;fill-rule:nonzero;stroke:none"
           id="text396"><tspan
             x="0 8.8319998"
             y="0"
             sodipodi:role="line"
             id="tspan394">50</tspan></text>
</g></g><g
       id="g398"><g
         id="g400"
         clip-path="url(#clipPath404)"><text
           transform="matrix(1,0,0,-1,256.25,155.28)"
           style="font-variant:normal;font-weight:normal;font-size:17.44799995px;font-family:'Times New Roman';-inkscape-font-specification:TimesNewRomanPSMT;writing-mode:lr-tb;fill:#000000;fill-opacity:1;fill-rule:nonzero;stroke:none"
           id="text408"><tspan
             x="0 8.8112402 17.395657"
             y="0"
             sodipodi:role="line"
             id="tspan406">100</tspan></text>
</g></g><g
       id="g410"><g
         id="g412"
         clip-path="url(#clipPath416)"><text
           transform="matrix(1,0,0,-1,318.67,155.28)"
           style="font-variant:normal;font-weight:normal;font-size:17.44799995px;font-family:'Times New Roman';-inkscape-font-specification:TimesNewRomanPSMT;writing-mode:lr-tb;fill:#000000;fill-opacity:1;fill-rule:nonzero;stroke:none"
           id="text420"><tspan
             x="0 8.8112402 17.395657"
             y="0"
             sodipodi:role="line"
             id="tspan418">150</tspan></text>
</g></g><g
       id="g422"><g
         id="g424"
         clip-path="url(#clipPath428)"><text
           transform="matrix(1,0,0,-1,381.07,155.28)"
           style="font-variant:normal;font-weight:normal;font-size:17.44799995px;font-family:'Times New Roman';-inkscape-font-specification:TimesNewRomanPSMT;writing-mode:lr-tb;fill:#000000;fill-opacity:1;fill-rule:nonzero;stroke:none"
           id="text432"><tspan
             x="0 8.8112402 17.430552"
             y="0"
             sodipodi:role="line"
             id="tspan430">200</tspan></text>
</g></g><g
       id="g434"><g
         id="g436"
         clip-path="url(#clipPath440)"><text
           transform="matrix(1,0,0,-1,443.5,155.28)"
           style="font-variant:normal;font-weight:normal;font-size:17.44799995px;font-family:'Times New Roman';-inkscape-font-specification:TimesNewRomanPSMT;writing-mode:lr-tb;fill:#000000;fill-opacity:1;fill-rule:nonzero;stroke:none"
           id="text444"><tspan
             x="0 8.8112402 17.395657"
             y="0"
             sodipodi:role="line"
             id="tspan442">250</tspan></text>
</g></g><g
       id="g446"><g
         id="g448"
         clip-path="url(#clipPath452)"><text
           transform="matrix(1,0,0,-1,505.92,155.28)"
           style="font-variant:normal;font-weight:normal;font-size:17.44799995px;font-family:'Times New Roman';-inkscape-font-specification:TimesNewRomanPSMT;writing-mode:lr-tb;fill:#000000;fill-opacity:1;fill-rule:nonzero;stroke:none"
           id="text456"><tspan
             x="0 8.8112402 17.395657"
             y="0"
             sodipodi:role="line"
             id="tspan454">300</tspan></text>
</g></g><g
       id="g458"><g
         id="g460"
         clip-path="url(#clipPath464)"><text
           transform="matrix(1,0,0,-1,568.32,155.28)"
           style="font-variant:normal;font-weight:normal;font-size:17.44799995px;font-family:'Times New Roman';-inkscape-font-specification:TimesNewRomanPSMT;writing-mode:lr-tb;fill:#000000;fill-opacity:1;fill-rule:nonzero;stroke:none"
           id="text468"><tspan
             x="0 8.8112402 17.430552"
             y="0"
             sodipodi:role="line"
             id="tspan466">350</tspan></text>
</g></g><g
       id="g470"><g
         id="g472"
         clip-path="url(#clipPath476)"><text
           transform="matrix(1,0,0,-1,630.74,155.28)"
           style="font-variant:normal;font-weight:normal;font-size:17.44799995px;font-family:'Times New Roman';-inkscape-font-specification:TimesNewRomanPSMT;writing-mode:lr-tb;fill:#000000;fill-opacity:1;fill-rule:nonzero;stroke:none"
           id="text480"><tspan
             x="0 8.8112402 17.395657"
             y="0"
             sodipodi:role="line"
             id="tspan478">400</tspan></text>
</g></g><g
       id="g482"><g
         id="g484"
         clip-path="url(#clipPath488)"><text
           transform="matrix(1,0,0,-1,693.14,155.28)"
           style="font-variant:normal;font-weight:normal;font-size:17.44799995px;font-family:'Times New Roman';-inkscape-font-specification:TimesNewRomanPSMT;writing-mode:lr-tb;fill:#000000;fill-opacity:1;fill-rule:nonzero;stroke:none"
           id="text492"><tspan
             x="0 8.8112402 17.430552"
             y="0"
             sodipodi:role="line"
             id="tspan490">450</tspan></text>
</g></g><g
       id="g494"><g
         id="g496"
         clip-path="url(#clipPath500)"><text
           transform="matrix(-4.4e-8,1,1,4.4e-8,762.43,238.94)"
           style="font-variant:normal;font-weight:normal;font-size:19.29599953px;font-family:'Times New Roman';-inkscape-font-specification:TimesNewRomanPSMT;writing-mode:lr-tb;fill:#000000;fill-opacity:1;fill-rule:nonzero;stroke:none"
           id="text504"><tspan
             x="0 12.773952 21.341375 27.631872 34.11533 42.682751 50.188896 59.682529 65.008224 71.491676 80.059105 85.423393 93.990814 98.872704 105.35616 111.62736 121.37184 128.8201"
             y="0"
             sodipodi:role="line"
             id="tspan502">Refresh rate (fps)</tspan></text>
</g></g><g
       id="g506"><g
         id="g508"
         clip-path="url(#clipPath512)"><text
           transform="matrix(-4.4e-8,1,1,4.4e-8,93.552,252.89)"
           style="font-variant:normal;font-weight:normal;font-size:19.29599953px;font-family:'Times New Roman';-inkscape-font-specification:TimesNewRomanPSMT;writing-mode:lr-tb;fill:#000000;fill-opacity:1;fill-rule:nonzero;stroke:none"
           id="text516"><tspan
             x="0 12.793248 23.695488 37.627201 42.489792 52.022015 59.470272 68.037697 77.589218 86.156639 91.270081"
             y="0"
             sodipodi:role="line"
             id="tspan514">CPU usage %</tspan></text>
</g></g><g
       id="g518"><g
         id="g520"
         clip-path="url(#clipPath524)"><text
           transform="matrix(1,0,0,-1,334.54,127.61)"
           style="font-variant:normal;font-weight:normal;font-size:19.29599953px;font-family:'Times New Roman';-inkscape-font-specification:TimesNewRomanPSMT;writing-mode:lr-tb;fill:#000000;fill-opacity:1;fill-rule:nonzero;stroke:none"
           id="text528"><tspan
             x="0 10.90224 16.266527 24.833952 34.153919 43.898399 52.465824 61.033249 70.604065 75.698212 81.062492 86.426781 101.03386 109.60128 117.10742 122.47171 131.03914 145.64621 155.39069 161.17949 167.66295 175.11121"
             y="0"
             sodipodi:role="line"
             id="tspan526">Playback timestamp (s)</tspan></text>
</g></g><path
       d="m 235.62,468.83 h 37.19"
       style="fill:none;stroke:#4472c4;stroke-width:1.93669999;stroke-linecap:round;stroke-linejoin:round;stroke-miterlimit:10;stroke-dasharray:none;stroke-opacity:1"
       id="path530"
       inkscape:connector-curvature="0" /><g
       id="g532"><g
         id="g534"
         clip-path="url(#clipPath538)"><text
           transform="matrix(1,0,0,-1,276.77,463.34)"
           style="font-variant:normal;font-weight:normal;font-size:17.42399979px;font-family:'Times New Roman';-inkscape-font-specification:TimesNewRomanPSMT;writing-mode:lr-tb;fill:#000000;fill-opacity:1;fill-rule:nonzero;stroke:none"
           id="text542"><tspan
             x="0 11.621808 21.361824 33.941952 38.297951 46.922832 53.700768 61.541569 70.131599"
             y="0"
             sodipodi:role="line"
             id="tspan540">CPU usage</tspan></text>
</g></g><path
       d="m 377.45,468.83 h 37.19"
       style="fill:none;stroke:#ed7d31;stroke-width:1.93669999;stroke-linecap:round;stroke-linejoin:round;stroke-miterlimit:10;stroke-dasharray:none;stroke-opacity:1"
       id="path544"
       inkscape:connector-curvature="0" /><g
       id="g546"><g
         id="g548"
         clip-path="url(#clipPath552)"><text
           transform="matrix(1,0,0,-1,418.61,463.34)"
           style="font-variant:normal;font-weight:normal;font-size:17.42399979px;font-family:'Times New Roman';-inkscape-font-specification:TimesNewRomanPSMT;writing-mode:lr-tb;fill:#000000;fill-opacity:1;fill-rule:nonzero;stroke:none"
           id="text556"><tspan
             x="0 8.8165436 13.468752 21.379248 29.986704 38.803249 46.487232 54.171215"
             y="0"
             sodipodi:role="line"
             id="tspan554">playback</tspan></text>
</g></g><path
       d="m 504.25,468.83 h 37.18"
       style="fill:none;stroke:#70ad47;stroke-width:1.93669999;stroke-linecap:round;stroke-linejoin:round;stroke-miterlimit:10;stroke-dasharray:none;stroke-opacity:1"
       id="path558"
       inkscape:connector-curvature="0" /><g
       id="g560"><g
         id="g562"
         clip-path="url(#clipPath566)"><text
           transform="matrix(1,0,0,-1,545.42,463.34)"
           style="font-variant:normal;font-weight:normal;font-size:17.42399979px;font-family:'Times New Roman';-inkscape-font-specification:TimesNewRomanPSMT;writing-mode:lr-tb;fill:#000000;fill-opacity:1;fill-rule:nonzero;stroke:none"
           id="text570"><tspan
             x="0 7.6839838 16.500528 25.090561 29.934431 35.771473 44.588017 49.240223 54.084095 62.012016"
             y="0"
             sodipodi:role="line"
             id="tspan568">controller</tspan></text>
</g></g></g></svg>