<?xml version="1.0" encoding="UTF-8" standalone="no"?>
<!-- Created with Inkscape (http://www.inkscape.org/) -->

<svg
   xmlns:dc="http://purl.org/dc/elements/1.1/"
   xmlns:cc="http://creativecommons.org/ns#"
   xmlns:rdf="http://www.w3.org/1999/02/22-rdf-syntax-ns#"
   xmlns:svg="http://www.w3.org/2000/svg"
   xmlns="http://www.w3.org/2000/svg"
   xmlns:sodipodi="http://sodipodi.sourceforge.net/DTD/sodipodi-0.dtd"
   xmlns:inkscape="http://www.inkscape.org/namespaces/inkscape"
   version="1.1"
   id="svg4830"
   xml:space="preserve"
   width="614.66669"
   height="330.66666"
   viewBox="0 0 614.66669 330.66666"
   sodipodi:docname="playback.svg"
   inkscape:version="0.92.1 r15371"><metadata
     id="metadata4836"><rdf:RDF><cc:Work
         rdf:about=""><dc:format>image/svg+xml</dc:format><dc:type
           rdf:resource="http://purl.org/dc/dcmitype/StillImage" /><dc:title></dc:title></cc:Work></rdf:RDF></metadata><defs
     id="defs4834"><clipPath
       clipPathUnits="userSpaceOnUse"
       id="clipPath4852"><path
         d="m 418.629,490.391 h 3743.52 v 1686.56 H 418.629 Z"
         id="path4850"
         inkscape:connector-curvature="0" /></clipPath><clipPath
       clipPathUnits="userSpaceOnUse"
       id="clipPath4868"><path
         d="M 0,6.51953 H 4610 V 2476.5195 H 0 Z"
         id="path4866"
         inkscape:connector-curvature="0" /></clipPath><clipPath
       clipPathUnits="userSpaceOnUse"
       id="clipPath5020"><path
         d="M 0,6.51953 H 4610 V 2476.5195 H 0 Z"
         id="path5018"
         inkscape:connector-curvature="0" /></clipPath><clipPath
       clipPathUnits="userSpaceOnUse"
       id="clipPath5036"><path
         d="M 0,6.51953 H 4610 V 2476.5195 H 0 Z"
         id="path5034"
         inkscape:connector-curvature="0" /></clipPath><clipPath
       clipPathUnits="userSpaceOnUse"
       id="clipPath5052"><path
         d="M 0,6.51953 H 4610 V 2476.5195 H 0 Z"
         id="path5050"
         inkscape:connector-curvature="0" /></clipPath><clipPath
       clipPathUnits="userSpaceOnUse"
       id="clipPath5068"><path
         d="M 0,6.51953 H 4610 V 2476.5195 H 0 Z"
         id="path5066"
         inkscape:connector-curvature="0" /></clipPath></defs><sodipodi:namedview
     pagecolor="#ffffff"
     bordercolor="#666666"
     borderopacity="1"
     objecttolerance="10"
     gridtolerance="10"
     guidetolerance="10"
     inkscape:pageopacity="0"
     inkscape:pageshadow="2"
     inkscape:window-width="1600"
     inkscape:window-height="837"
     id="namedview4832"
     showgrid="false"
     inkscape:zoom="1.4626846"
     inkscape:cx="318.29346"
     inkscape:cy="138.1002"
     inkscape:window-x="-8"
     inkscape:window-y="-8"
     inkscape:window-maximized="1"
     inkscape:current-layer="g4838" /><g
     id="g4838"
     inkscape:groupmode="layer"
     inkscape:label="playback-eps-converted-to"
     transform="matrix(1.3333333,0,0,-1.3333333,0,330.66667)"><g
       id="g4840"
       transform="scale(0.1)"><path
         d="M 418.75,666.484 H 4153.44 M 418.75,834.066 H 4153.44 M 418.75,1001.75 H 4153.44 M 418.75,1169.45 H 4153.44 M 418.75,1337.18 H 4153.44 M 418.75,1504.88 H 4153.44 M 418.75,1672.46 H 4153.44 M 418.75,1840.16 H 4153.44 M 418.75,2007.89 H 4153.44 M 418.75,2175.86 h 3734.69"
         style="fill:none;stroke:#d9d9d9;stroke-width:8.73340034;stroke-linecap:butt;stroke-linejoin:round;stroke-miterlimit:10;stroke-dasharray:none;stroke-opacity:1"
         id="path4842"
         inkscape:connector-curvature="0" /><path
         d="M 418.75,498.285 H 4153.44"
         style="fill:none;stroke:#d9d9d9;stroke-width:8.73340034;stroke-linecap:butt;stroke-linejoin:round;stroke-miterlimit:10;stroke-dasharray:none;stroke-opacity:1"
         id="path4844"
         inkscape:connector-curvature="0" /><g
         id="g4846"><g
           id="g4848"
           clip-path="url(#clipPath4852)"><path
             d="m 420.82,1471.29 h 4.809 l 4.211,-33.52 h 4.18 l 4.218,100.59 h 4.184 l 4.219,67.11 h 12.578 l 4.222,368.91 h 4.219 l 4.059,67.3 h 4.222 l 4.219,-268.52 h 4.18 l 4.211,-167.69 h 4.179 l 4.219,-134.18 h 22.391 l 4.101,-33.52 h 4.219 l 4.18,-368.91 h 4.211 l 4.179,-301.786 h 4.219 l 4.18,-33.601 h 4.223 l 4.179,268.277 h 4.219 l 4.18,67.11 h 4.218 l 4.18,-435.965 h 4.102 l 5.621,-67.032 h 4.179 l 4.219,33.512 h 4.18 l 4.223,134.098 h 4.179 l 4.219,-66.989 h 4.18 l 4.218,-33.589 h 4.18 l 4.223,33.589 h 4.097 l 4.18,33.481 h 4.223 l 4.179,67.109 h 4.219 l 4.18,-134.179 h 4.211 l 4.18,67.07 h 14.031 l 4.179,-33.481 h 12.5 l 4.219,100.59 h 4.18 l 4.211,-100.59 h 4.18 l 4.218,66.989 h 12.582 l 4.219,-66.989 h 4.18 l 4.101,33.481 h 4.219 l 4.18,67.109 h 4.222 l 5.579,-100.59 h 4.218 l 4.184,-67.109 h 4.219 l 4.179,-33.512 h 12.621 l 4.098,33.512 h 4.18 l 4.222,-33.512 h 4.219 l 4.18,167.61 h 12.609 l 4.18,-100.578 h 4.223 l 4.179,33.589 h 13.91 l 4.219,66.989 h 4.18 l 4.211,-66.989 h 4.179 l 4.219,-33.589 h 4.18 l 4.223,134.179 h 4.179 l 4.219,-100.59 h 12.5 l 4.18,66.989 h 4.218 l 4.18,-66.989 h 4.223 l 4.179,-33.589 h 5.622 l 4.179,33.589 h 4.219 l 4.18,66.989 h 4.218 l 4.18,-134.098 h 12.5 l 4.223,100.59 h 4.179 l 4.219,-100.59 h 4.18 l 4.211,67.109 h 4.18 l 4.218,-67.109 h 4.184 l 4.219,167.699 h 4.179 l 5.51,-134.179 h 12.62 l 4.18,100.578 h 4.21 l 4.18,-66.989 h 4.22 l 4.18,-33.589 h 4.22 l 4.18,33.589 h 4.22 l 4.1,-100.621 h 4.18 l 4.22,134.102 h 4.18 l 4.22,33.508 h 4.22 l 4.18,-167.61 h 4.21 l 5.59,33.512 h 4.18 l 4.22,134.098 h 4.18 l 4.1,33.601 h 4.22 l 4.18,-167.699 h 4.22 l 4.22,100.59 h 4.18 l 4.21,67.109 h 4.18 l 4.22,-33.601 h 4.18 l 4.22,-66.989 h 4.18 l 4.22,-67.109 h 4.1 l 4.18,67.109 h 14.02 l 4.18,66.989 h 12.62 l 4.18,-100.578 h 4.22 l 4.18,100.578 h 4.1 l 4.22,33.601 h 4.18 l 4.22,-67.109 h 4.18 l 4.22,-33.481 h 4.18 l 4.22,100.59 h 4.18 l 4.21,-67.109 h 13.91 l 4.18,33.508 h 4.22 l 4.18,-33.508 h 12.62 l 4.18,-33.481 h 4.21 l 4.18,66.989 h 4.22 l 4.18,-66.989 h 12.5 l 4.22,33.481 h 13.99 l 4.21,67.109 h 4.18 l 4.22,-100.59 h 4.18 l 4.22,-67.109 h 4.18 l 4.1,-101.09 h 4.22 l 4.18,235.188 h 4.22 l 4.18,-33.508 h 12.62 l 4.21,-67.07 h 4.18 l 4.22,469.485 h 4.18 l 5.51,-469.485 h 4.18 l 4.22,33.589 h 4.18 l 4.22,33.481 h 12.61 l 4.18,67.109 h 4.22 l 4.18,-100.59 h 12.5 l 4.22,33.481 h 4.18 l 4.22,-33.481 h 30.78 l 4.22,-33.589 h 4.1 l 4.18,67.07 h 4.22 l 4.18,-33.481 h 4.22 l 4.18,33.481 h 4.22 l 4.18,-100.59 h 4.22 l 4.18,134.098 h 12.5 l 4.21,-33.508 h 4.18 l 5.63,-134.102 h 4.18 l 4.22,67.032 h 4.18 l 4.22,-33.52 h 4.18 l 4.21,100.59 h 4.18 l 4.22,33.508 h 4.18 l 4.1,-66.989 h 4.22 l 4.18,-33.589 h 4.22 l 4.18,-33.52 h 4.22 l 4.18,67.109 h 4.22 l 4.22,33.481 h 5.58 l 4.18,-33.481 h 4.22 l 4.1,33.481 h 12.58 l 4.22,-33.481 h 4.18 l 4.22,-33.589 h 4.22 l 4.18,33.589 h 4.21 l 4.18,100.59 h 4.22 l 4.1,-67.109 h 4.18 l 4.22,67.109 h 4.18 l 4.22,-67.109 h 5.59 l 4.22,-33.481 h 4.18 l 4.21,167.582 h 4.18 l 4.22,-167.582 h 4.18 l 4.22,167.582 h 20.9 l 4.18,-33.48 h 4.22 l 4.18,-67.113 h 4.22 l 4.18,-66.989 h 4.22 l 5.58,100.59 h 4.1 l 4.22,-33.601 h 12.58 l 4.22,-33.508 h 4.18 l 4.22,67.109 h 4.18 l 4.22,-33.601 h 4.18 l 4.21,-66.989 h 4.11 l 4.18,33.481 h 4.21 l 4.18,67.109 h 4.22 l 4.18,-33.601 h 4.22 l 5.59,-100.578 h 4.22 l 4.18,33.589 h 4.21 l 4.18,100.59 h 4.22 l 4.1,66.992 h 4.18 l 4.22,-66.992 h 4.18 l 4.22,-33.601 h 4.18 l 4.22,67.113 h 4.18 l 4.22,-67.113 h 4.22 l 4.18,67.113 h 4.21 l 4.11,67.07 h 5.58 l 4.18,-100.582 h 4.22 l 4.18,-33.601 h 4.22 l 4.18,100.593 h 4.22 l 4.22,-66.992 h 4.18 l 4.21,-33.601 h 4.18 l 4.11,33.601 h 4.21 l 4.18,33.512 h 4.22 l 4.18,-33.512 h 4.22 l 4.18,-67.109 h 4.22 l 4.18,67.109 h 5.62 l 4.18,-33.601 h 4.22 l 4.18,-201.207 h 4.1 l 4.22,167.699 h 4.18 l 4.22,-33.481 h 12.58 l 4.22,-168.199 h 4.18 l 4.22,235.188 h 20.9 l 4.18,33.601 h 5.62 l 4.18,33.512 h 4.22 l 4.18,-33.512 h 12.62 l 4.18,-33.601 h 4.1 l 4.22,33.601 h 29.37 l 4.22,100.582 h 4.18 l 5.62,-100.582 h 4.18 l 4.11,100.582 h 4.21 l 4.18,-134.183 h 4.22 l 4.18,67.113 h 4.22 l 4.18,-100.621 h 4.22 l 4.18,100.621 h 4.22 l 4.22,-134.102 h 4.18 l 4.1,66.989 h 21.01 l 5.59,100.593 h 4.18 l 4.22,-100.593 h 4.22 l 4.18,33.601 h 4.21 l 4.11,33.512 h 4.18 l 4.21,-67.113 h 4.18 l 4.22,33.601 h 4.18 l 4.22,-67.109 h 12.58 l 4.22,33.508 h 13.9 l 4.18,33.601 h 4.22 l 4.18,-268.789 h 4.22 l 4.18,268.789 h 12.62 l 4.18,33.512 h 12.5 l 4.22,-67.113 h 4.18 l 4.22,33.601 h 4.18 l 4.21,-33.601 h 4.18 l 4.22,-33.508 h 5.59 l 4.22,100.621 h 4.18 l 4.22,-33.512 h 4.1 l 4.18,-33.601 h 4.22 l 4.18,-33.508 h 4.21 l 4.18,100.621 h 12.62 l 4.18,33.48 h 4.22 l 4.18,-33.48 h 4.22 l 4.1,-33.512 h 4.18 l 4.22,-100.59 h 5.58 l 4.22,100.59 h 4.18 l 4.22,-33.601 h 4.18 l 4.22,-33.508 h 4.18 l 4.22,67.109 h 4.22 l 4.06,-134.179 h 4.22 l 4.22,-67.032 h 4.18 l 4.21,100.621 h 4.18 l 4.22,66.989 h 4.18 l 4.22,-100.578 h 13.99 l 4.1,-33.52 h 4.22 l 4.18,33.52 h 4.21 l 4.18,67.07 h 4.22 l 4.18,-134.102 h 4.22 l 4.18,100.621 h 4.22 l 4.18,66.989 h 4.22 l 4.18,-134.098 h 4.1 l 4.22,100.59 h 12.58 l 5.62,-67.07 h 4.18 l 4.22,33.589 h 12.58 l 4.22,100.59 h 12.5 l 4.18,-67.109 h 12.61 l 4.18,-67.07 h 12.62 l 4.18,67.07 h 5.51 l 4.22,33.508 h 12.58 l 4.21,-100.578 h 4.18 l 4.22,-33.52 h 4.18 l 4.22,100.59 h 4.18 l 4.22,-134.102 h 4.18 l 4.1,100.621 h 4.22 l 4.18,33.481 h 22.42 l 4.18,-100.59 h 4.22 l 4.18,100.59 h 4.22 l 4.1,134.101 h 4.18 l 4.22,-33.48 h 4.22 l 4.18,-67.113 h 12.61 l 4.18,33.601 h 4.22 l 4.18,-33.601 h 4.22 l 4.18,-33.508 h 4.1 l 4.22,100.621 h 13.98 l 4.22,-67.113 h 4.18 l 4.22,33.601 h 4.18 l 4.22,-67.109 h 4.18 l 4.22,100.621 h 4.1 l 4.18,33.48 h 4.22 l 4.18,-100.593 h 4.22 l 4.18,67.113 h 4.22 l 4.18,-33.512 h 4.21 l 5.59,-67.109 h 4.22 l 4.18,134.101 h 4.1 l 4.22,-33.48 h 20.98 l 4.21,-67.113 h 4.18 l 4.22,-33.508 h 4.18 l 4.22,-134.102 h 4.18 l 4.1,33.512 h 4.22 l 4.18,67.109 h 4.22 l 5.59,100.59 h 4.21 l 4.18,-67.109 h 4.22 l 4.18,33.508 h 4.22 l 4.18,33.601 h 4.22 l 4.1,66.992 h 4.18 l 4.22,-100.593 h 12.62 l 4.18,33.601 h 4.21 l 4.18,-67.109 h 4.22 l 4.18,-67.07 h 5.59 l 4.1,33.589 h 4.22 l 4.18,66.989 h 4.22 l 4.22,-33.508 h 4.18 l 4.21,100.621 h 4.18 l 4.22,-134.102 h 12.58 l 4.22,-100.621 h 39.1 l 4.18,33.512 h 4.22 l 4.18,-67.109 h 4.1 l 4.22,100.629 h 4.18 l 4.22,100.578 h 4.18 l 4.22,-66.989 h 4.18 l 4.22,-33.589 h 4.18 l 4.21,67.07 h 4.18 l 4.22,-67.07 h 4.1 l 4.18,67.07 h 5.63 l 4.18,-33.481 h 4.22 l 4.18,33.481 h 4.22 l 4.18,-33.481 h 12.61 l 4.18,-33.589 h 4.22 l 4.1,-67.032 h 4.18 l 4.22,-67.578 h 4.18 l 4.22,134.61 h 12.62 l 5.58,100.578 h 4.18 l 4.22,-134.098 h 4.18 l 4.1,134.098 h 12.62 l 4.18,-33.508 h 21.01 l 4.22,-33.481 h 4.18 l 4.1,-100.621 h 12.62 l 5.59,201.211 h 4.22 l 4.18,-33.601 h 21.01 l 4.18,-100.578 h 4.1 l 4.22,134.179 h 4.18 l 4.22,-100.59 h 4.18 l 4.22,33.481 h 4.18 l 4.22,-134.102 h 4.18 l 4.22,100.621 h 5.58 l 4.22,-100.621 h 4.1 l 4.18,33.512 h 4.22 l 4.18,67.109 h 4.22 l 4.18,-67.109 h 4.22 l 4.18,167.699 h 4.22 l 4.18,-134.179 h 12.5 l 4.21,167.691 h 12.58 l 4.22,-100.621 h 5.59 l 4.22,33.508 h 4.18 l 4.21,-33.508 h 12.5 l 4.18,100.621 h 12.62 l 4.18,-33.512 h 4.22 l 4.18,-100.59 h 4.22 l 4.22,33.481 h 12.57 l 4.11,134.101 h 5.58 l 4.22,-134.101 h 4.18 l 4.22,33.508 h 12.62 l 4.18,-33.508 h 4.21 l 4.18,100.621 h 12.5 l 4.22,-67.113 h 12.58 l 4.22,100.593 h 4.18 l 5.62,-66.992 h 4.18 l 4.22,-100.59 h 4.18 l 4.1,201.172 h 4.22 l 4.18,-167.691 h 12.62 l 4.18,-33.481 h 4.22 l 4.18,33.481 h 12.62 l 4.18,-33.481 h 4.1 l 4.22,66.989 h 4.18 l 5.62,33.601 h 4.18 l 4.22,301.786 h 4.18 l 4.22,335.39 h 4.18 l 4.22,67.04 h 12.5 l 4.18,-33.52 h 4.21 l 4.18,-33.52 h 4.22 l 4.18,100.63 h 12.62 l 4.18,-67.11 h 5.62 l 4.18,335.39 h 4.11 l 4.21,-368.91 h 4.18 l 4.22,637.43 h 4.18 l 4.22,-335.63 h 4.18 l 4.22,234.74 h 4.18 l 4.22,-435.91 h 4.22 l 4.18,-67.11 h 4.49"
             style="fill:none;stroke:#4472c4;stroke-width:11.64500046;stroke-linecap:round;stroke-linejoin:round;stroke-miterlimit:10;stroke-dasharray:none;stroke-opacity:1"
             id="path4854"
             inkscape:connector-curvature="0" /><path
             d="m 420.82,978.086 4.809,2.777 4.211,-4.179 4.18,4.179 4.218,-4.179 4.184,-1.411 h 4.219 l 4.179,9.801 4.219,-9.801 4.18,-11.207 4.222,26.52 4.219,-12.5 4.059,5.59 4.222,-9.813 4.219,-1.398 4.18,15.308 4.211,-9.687 4.179,-5.621 4.219,11.211 5.59,-6.992 4.18,-1.411 4.222,-22.378 4.219,58.675 4.18,-33.484 h 4.101 l 4.219,-2.813 4.18,1.411 4.211,5.582 4.179,-12.582 4.219,12.582 h 4.18 l 4.223,-244.61 4.179,-239.371 4.219,986.165 4.18,-513.395 4.218,8.398 4.18,4.223 4.102,-8.403 5.621,-1.41 4.179,9.813 4.219,-5.59 4.18,-4.223 4.223,8.403 4.179,-5.582 4.219,1.402 h 4.18 l 4.218,-2.813 4.18,2.813 4.223,4.18 4.097,-4.18 4.18,-2.813 4.223,6.993 4.179,-9.801 4.219,8.398 h 4.18 l 4.211,-15.39 4.18,21.011 4.218,-4.218 5.59,-12.582 4.223,12.582 4.179,1.41 4.098,-5.59 4.223,-4.223 4.179,8.403 4.219,-4.18 4.18,-5.621 4.211,11.211 4.18,-8.403 4.218,2.813 4.184,2.777 4.219,-8.398 4.179,5.621 4.219,5.59 4.18,-5.59 4.101,-5.621 4.219,9.801 4.18,-12.582 4.222,11.179 5.579,2.813 4.218,-5.59 4.184,-5.621 4.219,9.801 4.179,-4.18 h 12.621 l 4.098,-5.621 4.18,11.211 4.222,-8.403 4.219,4.18 4.18,-1.367 h 16.789 l 4.223,-2.813 4.179,5.59 5.629,-9.808 4.059,8.398 4.222,4.223 4.219,-5.59 4.18,-4.223 4.211,8.403 4.179,-9.801 4.219,5.621 4.18,5.59 4.223,-6.992 4.179,-1.411 4.219,6.993 4.18,-6.993 4.218,-2.808 4.102,14.019 4.18,-8.398 4.218,-5.621 4.18,11.211 4.223,-5.59 4.179,-2.813 5.622,5.59 4.179,-5.59 h 4.219 l 4.18,11.211 4.218,-8.398 4.18,-2.813 4.102,4.18 4.218,-5.59 4.18,4.223 4.223,4.18 4.179,-11.211 4.219,8.398 4.18,4.223 4.211,-6.992 4.18,-4.219 4.218,11.211 4.184,-5.59 4.219,-5.621 4.179,11.211 5.51,-15.391 4.22,15.391 4.18,-1.41 4.22,-11.211 4.18,9.808 h 4.21 l 4.18,-4.179 4.22,-2.821 4.18,9.813 4.22,-5.59 4.18,-4.223 4.22,8.403 4.1,-4.18 4.18,-5.621 4.22,12.609 4.18,-9.801 h 4.22 l 4.22,8.403 4.18,-12.621 4.21,5.629 5.59,9.8 4.18,-14.019 4.22,6.988 4.18,1.41 4.1,-2.777 h 21.02 l 4.21,-8.402 4.18,11.179 4.22,2.813 4.18,-11.211 4.22,5.621 4.18,2.777 4.22,-5.59 4.1,1.411 4.18,5.582 4.22,-4.18 5.59,-5.621 4.21,11.211 4.18,-5.59 4.22,-4.223 4.18,9.813 4.22,-11.211 h 4.18 l 4.22,15.308 4.18,-9.687 4.1,-5.621 4.22,11.211 4.18,-5.59 4.22,-4.223 4.18,9.813 4.22,-5.59 4.18,-5.621 4.22,9.801 8.39,-8.403 5.59,9.813 4.22,-5.59 4.1,-2.813 4.18,5.59 4.22,-11.179 4.18,12.582 h 4.22 l 4.18,-9.801 4.22,5.621 4.18,5.59 4.21,-5.59 4.18,-4.223 4.22,8.403 4.18,-4.18 4.22,-5.621 4.1,9.801 4.18,-5.582 4.22,-1.411 4.18,6.993 4.22,-6.993 5.59,1.411 4.21,5.582 8.4,-8.403 4.18,8.403 4.22,-8.403 4.18,5.59 4.1,1.41 4.22,-5.59 h 4.18 l 4.22,8.403 4.18,-11.211 4.22,5.621 4.22,4.18 4.18,-2.813 4.21,-1.367 h 8.4 l 4.18,-4.223 5.51,8.403 4.18,-5.582 4.22,-1.411 4.18,6.993 4.22,-4.18 4.22,-4.223 4.18,9.813 4.21,-8.403 4.18,2.813 4.22,2.777 4.18,-8.398 4.22,4.219 4.18,6.992 4.1,-9.813 4.22,4.223 4.18,5.59 4.22,-5.59 4.18,-5.621 4.22,11.211 4.18,-11.211 5.62,1.398 4.18,13.91 4.22,-12.5 4.18,4.18 4.22,-1.367 h 4.1 l 4.18,-2.813 4.22,5.59 4.18,-4.179 h 4.22 l 4.18,4.179 4.22,-11.179 4.18,11.179 4.22,1.403 4.18,-4.18 4.21,-5.621 4.18,9.801 4.11,-4.18 4.21,-7.031 4.18,12.621 5.63,-12.621 4.18,9.808 4.22,2.813 4.18,-8.403 4.22,-6.988 4.18,19.488 4.21,-13.91 4.18,1.41 4.22,9.801 4.18,-9.801 4.1,6.993 4.22,-6.993 4.18,2.813 h 12.62 l 4.18,-1.402 4.22,1.402 4.22,4.18 5.58,-12.582 4.18,13.992 4.22,-5.59 4.1,-2.813 4.18,8.403 4.22,-12.621 4.18,14.019 4.22,-6.988 4.18,-5.621 4.22,9.801 4.22,-4.18 4.18,-7.031 4.21,12.621 4.18,-6.992 4.22,-4.219 4.1,6.988 4.18,4.223 4.22,-16.801 4.18,13.988 4.22,-1.41 5.59,-1.367 4.22,-1.402 4.18,8.39 4.21,-11.211 4.18,1.41 4.22,8.403 4.18,-11.211 4.22,4.219 4.1,8.39 4.18,-6.988 4.22,-5.621 4.18,11.211 4.22,-6.992 4.18,-2.821 4.22,11.211 4.18,-8.39 h 4.22 l 4.18,4.179 4.22,-8.398 5.58,8.398 4.1,2.813 4.22,-5.59 4.18,-1.402 4.22,1.402 h 4.18 l 4.22,-5.621 4.18,11.211 4.22,-11.211 h 4.18 l 4.22,18.121 4.18,-15.313 h 4.21 l 4.11,6.993 4.18,-1.403 4.21,-8.398 4.18,5.621 4.22,-2.813 4.18,4.18 4.22,1.41 h 5.59 l 4.22,-9.808 4.18,15.429 4.21,-8.398 4.18,-11.211 4.22,22.309 4.1,-16.719 4.18,8.398 4.22,2.813 4.18,-9.813 4.22,7 4.18,-2.777 4.22,-1.402 4.18,2.769 4.22,-1.367 h 12.61 l 4.11,-4.223 5.58,1.41 4.18,11.211 4.22,-11.211 4.18,1.411 4.22,-1.411 4.18,5.59 4.22,-5.59 4.22,9.801 4.18,-15.39 4.21,2.781 4.18,18.121 4.11,-15.313 4.21,-2.808 4.18,8.398 4.22,-4.179 4.18,5.582 4.22,-1.403 4.18,-7 4.22,-2.808 4.18,18.129 5.62,-12.5 4.18,-2.821 4.22,9.813 4.18,-8.403 h 4.1 l 4.22,4.18 4.18,1.41 4.22,-2.777 4.18,1.367 4.22,-6.988 4.18,11.211 4.22,-5.59 h 4.18 l 4.22,-5.621 4.18,11.211 4.22,-11.211 4.1,5.621 4.18,5.59 4.22,-4.223 4.18,-5.59 5.62,5.59 4.18,-5.59 4.22,4.223 4.18,2.777 4.22,2.813 4.18,-11.211 4.22,8.398 4.18,-1.41 4.1,-9.769 4.22,16.8 4.18,-14.019 4.21,5.621 4.18,5.59 4.22,-11.211 4.18,-2.781 4.22,22.269 4.18,-23.668 4.22,15.391 h 4.18 l 5.62,-15.391 4.18,19.488 4.11,-9.687 h 4.21 l 4.18,-5.621 4.22,9.801 4.18,-1.403 4.22,-2.777 4.18,-2.813 h 4.22 l 4.18,-2.808 4.22,14.019 4.22,-8.398 4.18,-2.813 4.1,4.18 4.22,1.41 4.18,-7 4.21,9.813 4.18,-4.223 4.22,-8.398 5.59,9.808 4.18,-2.777 4.22,5.59 4.22,-8.403 4.18,-1.41 4.21,4.223 4.11,2.777 4.18,-5.59 4.21,1.411 4.18,9.8 4.22,-14.019 4.18,14.019 4.22,-12.621 4.18,4.223 4.22,-4.223 4.18,11.211 4.22,-12.609 4.18,9.801 4.22,-4.18 5.5,-5.621 4.18,11.211 4.22,-4.223 4.18,-1.367 4.22,-4.223 4.18,7 4.22,-7 4.18,2.821 4.22,6.992 4.18,-8.403 h 4.22 l 4.18,2.813 4.1,1.367 4.22,-1.367 4.18,8.398 4.22,-8.398 4.18,-11.211 4.21,22.309 4.18,-12.5 4.22,-4.219 5.59,14.019 4.22,-12.621 h 4.18 l 4.22,9.813 4.1,-5.59 4.18,-2.813 4.22,6.993 4.18,-9.801 4.21,4.219 4.18,9.8 4.22,-16.8 4.18,9.769 4.22,2.813 4.18,-4.18 4.22,-2.813 4.18,5.59 8.32,-2.777 4.18,-5.621 4.22,8.398 5.58,-5.59 4.22,8.403 4.18,-9.813 4.22,4.223 4.18,-2.813 4.22,2.813 h 4.18 l 4.22,2.777 4.22,-5.59 4.06,2.813 4.22,5.59 4.22,-5.59 4.18,-4.223 4.21,9.813 4.18,-12.621 4.22,8.398 h 4.18 l 4.22,-4.18 4.18,2.813 5.63,6.988 4.18,-9.801 h 4.1 l 4.22,6.993 4.18,-4.18 4.21,-8.402 4.18,13.992 4.22,-6.992 4.18,1.402 4.22,1.367 4.18,-8.398 4.22,14.019 4.18,-6.988 h 4.22 l 4.18,-7.031 4.1,12.621 4.22,-8.403 4.18,-2.808 4.22,8.398 4.18,-1.41 5.62,-4.18 4.18,6.993 4.22,-4.18 4.18,-7.031 4.22,14.019 4.18,-9.801 h 4.22 l 4.1,9.801 4.18,-9.801 h 4.22 l 4.18,5.59 4.22,-7 4.18,4.223 4.21,8.398 4.18,-18.199 4.22,9.801 4.18,4.18 4.22,-4.18 4.18,-2.813 5.51,5.59 4.22,-4.179 h 4.18 l 4.22,4.179 4.18,-2.777 4.21,-2.813 8.4,8.403 4.18,-5.59 4.22,-5.621 4.18,9.801 4.22,-5.582 4.18,4.179 4.1,-9.808 4.22,9.808 h 4.18 l 4.22,-8.398 4.22,2.808 4.18,11.211 4.21,-16.8 5.59,11.179 4.18,4.211 4.22,-9.801 h 4.18 l 4.22,8.403 4.1,-13.992 4.18,11.179 4.22,1.403 4.22,-12.582 4.18,11.179 4.21,2.813 4.18,-8.403 4.22,1.411 4.18,4.179 4.22,-8.398 4.18,5.621 4.22,5.59 4.18,-5.59 h 4.1 l 4.22,-2.813 h 5.59 l 4.21,9.801 4.18,-6.988 h 4.22 l 4.18,-8.402 4.22,13.992 4.18,-9.813 4.22,11.211 4.18,-6.988 4.22,-1.402 4.1,-2.821 4.18,9.813 4.22,-12.621 4.18,12.621 4.22,-5.59 4.18,-8.402 4.22,11.179 4.18,2.813 4.21,-5.59 5.59,-5.621 4.22,9.801 4.18,-2.813 4.1,-6.988 4.22,11.211 4.18,-13.992 4.22,15.39 4.18,-6.988 4.22,-2.813 h 4.18 l 4.21,8.403 4.18,-13.992 4.22,11.179 4.18,2.813 4.22,-5.59 4.18,-2.813 4.1,4.18 h 4.22 l 4.18,-1.367 h 9.81 l 4.21,-2.813 4.18,4.18 h 4.22 l 4.18,-8.398 4.22,12.621 4.18,-5.59 4.22,-5.621 4.1,11.211 4.18,-8.403 4.22,-1.41 4.18,11.211 4.22,-6.988 4.22,-5.621 4.18,11.211 4.21,-5.59 4.18,-4.223 4.22,8.403 4.18,-12.582 5.59,15.39 4.1,-6.988 h 4.22 l 4.18,-2.813 4.22,5.59 4.22,-1.41 4.18,-6.988 4.21,11.211 4.18,-8.403 4.22,2.813 4.18,2.777 4.22,-5.59 4.18,5.59 4.22,-2.777 4.1,-8.402 4.18,12.582 4.22,1.41 4.18,-5.59 4.22,-2.813 4.18,5.59 5.62,-11.179 4.18,12.582 4.22,-1.403 4.18,-2.777 4.22,-1.402 4.18,2.769 4.1,-1.367 4.22,-5.621 4.18,12.609 4.22,-6.988 4.18,-5.621 4.22,11.211 4.18,-8.403 h 4.22 l 4.18,8.403 4.21,-6.992 4.18,-1.411 4.22,8.403 4.1,-6.992 4.18,-1.411 5.63,5.59 4.18,-8.398 4.22,6.988 4.18,4.223 4.22,-11.211 4.18,5.621 4.21,5.59 4.18,-5.59 h 12.62 l 4.1,-5.621 4.18,11.211 4.22,-8.403 h 4.18 l 4.22,8.403 4.18,-13.992 4.22,11.179 4.22,2.813 5.58,-5.59 4.18,-2.813 4.22,5.59 4.18,-9.808 4.1,9.808 4.22,2.813 4.18,-5.59 4.22,-4.223 4.18,8.403 4.22,-2.813 4.22,-5.59 4.18,7 4.21,-2.777 4.18,-5.621 4.22,11.211 4.18,-8.403 h 4.1 l 4.22,5.59 4.18,-2.777 h 4.22 l 5.59,1.367 4.22,-4.18 4.18,6.993 4.21,-4.18 h 4.18 l 4.22,-4.223 4.18,9.813 4.22,-8.403 h 4.18 l 4.1,8.403 4.22,-5.59 4.18,-4.223 4.22,8.403 4.18,-5.582 4.22,-1.411 4.18,8.403 4.22,-8.403 h 4.18 l 4.22,8.403 5.58,-13.992 4.22,13.992 4.1,-4.223 4.18,-1.367 4.22,-1.402 4.18,4.179 4.22,-11.179 4.18,16.8 4.22,-8.398 h 4.18 l 4.22,-5.621 4.18,11.211 4.21,-11.211 4.18,5.621 4.11,5.59 4.21,-8.403 h 4.18 l 4.22,6.993 4.18,-4.18 h 9.81 l 4.22,-1.402 4.18,-2.821 4.21,9.813 4.18,-5.59 4.22,-5.621 4.1,11.211 4.18,-11.211 4.22,5.621 4.18,5.59 4.22,-6.992 4.18,-1.411 4.22,8.403 4.18,-9.813 4.22,2.821 4.22,6.992 4.18,-5.59 4.21,-5.621 4.18,11.211 4.11,-8.403 5.58,2.813 4.22,1.367 4.18,-1.367 4.22,-5.621 4.18,11.211 4.22,-5.59 4.22,-2.813 4.18,5.59 4.21,-5.59 4.18,2.813 4.22,2.777 4.1,-11.179 4.18,15.39 4.22,-6.988 h 4.18 l 4.22,-2.813 4.18,5.59 4.22,-2.777 4.18,-5.621 5.62,11.211 4.18,-9.813 8.4,8.403 4.1,-4.18 4.22,-4.223 4.18,9.813 4.22,-9.813 4.18,4.223 4.22,4.18 4.18,-4.18 4.22,-5.621 4.18,9.801 4.22,-4.18 4.18,-5.621 4.22,11.211 4.18,-5.59 4.1,-5.621 4.22,9.801 4.18,-4.18 5.62,-4.223 4.18,8.403 4.22,-8.403 4.18,7 h 4.22 l 4.18,-2.777 4.22,-2.813 4.18,5.59 4.21,-2.777 h 8.29 l 4.21,-7.031 4.18,9.808 h 4.22 l 4.18,-1.41 4.22,-6.988 4.18,11.211 4.22,-13.992 4.18,16.8 5.62,-7.031 4.18,-2.769 4.11,-1.411 4.21,6.993 4.18,-1.403 4.22,-15.39 4.18,16.793 4.22,-12.582 4.18,-5.618 4.22,37.684 4.18,-32.066 4.22,12.582 h 4.22 l 4.18,-9.801 4.49,5.621"
             style="fill:none;stroke:#ed7d31;stroke-width:11.64500046;stroke-linecap:round;stroke-linejoin:round;stroke-miterlimit:10;stroke-dasharray:none;stroke-opacity:1"
             id="path4856"
             inkscape:connector-curvature="0" /><path
             d="m 420.82,498.285 h 102.621 l 4.219,333.008 4.18,862.177 4.211,-33.51 4.179,62.93 4.219,-14.03 4.18,-48.9 4.223,-563.21 4.179,5937.7 4.219,-4168.59 4.18,-1186.41 4.218,22.43 4.18,11.21 4.102,-21.02 5.621,-5.59 4.179,-23.71 4.219,36.3 4.18,34.91 4.223,-74.02 4.179,82.42 4.219,-90.81 4.18,95 4.218,-57.32 4.18,7.04 4.223,12.57 4.097,-60.07 4.18,87.96 4.223,-27.89 4.179,-26.59 4.219,23.78 4.18,-50.26 4.211,57.3 4.18,5.59 4.218,-58.72 5.59,64.22 4.223,-15.32 4.179,-46.09 4.098,83.8 4.223,-60.09 4.179,-26.52 4.219,36.33 4.18,36.28 4.211,-69.8 4.18,76.8 4.218,-43.28 4.184,9.76 4.219,-23.78 4.179,16.8 4.219,-33.48 4.18,30.7 4.101,36.28 4.219,-23.71 4.18,-33.59 4.222,30.78 5.579,7.04 4.218,-61.52 4.184,81 4.219,-23.71 4.179,-12.57 4.219,2.78 4.18,-2.78 4.222,2.78 4.098,-16.8 4.18,29.41 4.222,-19.61 4.219,9.81 4.18,-50.31 4.211,47.5 4.179,-2.78 4.219,50.28 4.18,-95 4.223,85.18 4.179,-30.7 5.629,-26.6 4.059,22.43 4.222,11.21 4.219,-64.3 4.18,85.19 4.211,-75.43 4.179,74.02 4.219,-36.28 4.18,-30.7 4.223,78.2 4.179,-54.54 4.219,19.61 4.18,-16.79 4.218,-9.8 4.102,36.41 4.18,-22.39 4.218,-11.22 4.18,26.61 4.223,-60.11 4.179,85.18 5.622,-33.46 4.179,-14.04 h 4.219 l 4.18,29.43 4.218,-22.39 4.18,-4.22 4.102,9.81 4.218,-15.4 4.18,12.59 4.223,9.79 4.179,-29.41 4.219,22.43 4.18,-39.11 4.211,79.61 4.18,-57.31 4.218,-19.48 4.184,33.48 4.219,33.5 4.179,-20.89 5.51,-39.22 4.22,39.22 4.18,-2.82 4.22,-29.41 4.18,26.6 h 4.21 l 4.18,-12.58 4.22,-6.99 4.18,-20.89 4.22,30.7 4.18,37.69 4.22,-25.12 4.1,-12.57 4.18,-14.02 4.22,-15.32 4.18,69.8 4.22,-44.68 4.22,19.61 4.18,-32.23 4.21,14.02 5.59,25.21 4.18,-33.61 4.22,16.81 4.18,4.17 4.1,-9.76 4.22,2.78 4.18,-50.28 4.22,47.5 4.22,2.78 4.18,-2.78 4.21,27.89 4.18,-18.13 4.22,-43.28 4.18,69.8 4.22,-33.5 4.18,6.98 4.22,-13.98 4.1,1.4 4.18,15.39 4.22,-9.79 5.59,-14 4.21,-22.3 4.18,83.8 4.22,-60.09 4.18,25.2 4.22,-26.61 h 4.18 l 4.22,-11.21 4.18,22.43 4.1,36.28 4.22,-19.48 4.18,-64.3 4.22,85.19 4.18,-22.3 4.22,-12.61 4.18,-14 4.22,23.79 4.18,-60.07 4.21,85.19 5.59,-22.3 4.22,-15.39 4.1,-7.04 4.18,16.8 4.22,-27.96 4.18,30.77 h 4.22 l 4.18,-23.79 4.22,14 4.18,-33.48 4.21,30.7 4.18,37.69 4.22,-25.12 4.18,-57.29 4.22,81 4.1,-72.61 4.18,82.42 4.22,-53.13 4.18,19.61 4.22,-16.79 5.59,1.4 4.21,15.39 4.18,-12.57 4.22,-9.81 4.18,22.38 4.22,-22.38 4.18,15.4 4.1,1.41 4.22,-11.22 h 4.18 l 4.22,-26.48 4.18,66.98 4.22,-33.5 4.22,9.79 4.18,-6.98 4.21,-53.09 4.18,97.78 4.22,-50.28 4.18,-9.81 5.51,-26.52 4.18,82.42 4.22,-50.31 4.18,-32.11 4.22,86.61 4.22,-60.09 4.18,25.2 4.21,-19.61 4.18,4.22 4.22,7 4.18,-18.22 4.22,8.4 4.18,18.21 4.1,-25.2 4.22,9.81 4.18,15.39 4.22,-12.61 4.18,-14 4.22,-19.48 4.18,66.98 5.62,-46.09 4.18,-12.62 4.22,65.71 4.18,-37.69 4.22,-2.81 4.1,-47.5 4.18,85.18 4.22,-33.46 4.18,-9.82 h 4.22 l 4.18,-34.92 4.22,65.63 4.18,-18.13 4.22,-46.09 4.18,39.11 4.21,33.5 4.18,-23.71 4.11,-9.79 4.21,-19.62 4.18,33.64 5.63,-33.64 4.18,23.84 4.22,8.39 4.18,-19.61 4.22,-19.61 4.18,49.02 4.21,-35 4.18,2.77 4.22,26.61 4.18,-23.79 4.1,16.79 4.22,-16.79 4.18,4.22 h 4.22 l 4.18,2.78 h 4.22 l 4.18,-5.6 4.22,2.82 4.22,-36.33 5.58,64.22 4.18,-12.5 4.22,-12.61 4.1,-9.82 4.18,-23.66 4.22,61.36 4.18,-60 4.22,32.12 4.18,33.5 4.22,-23.71 4.22,-57.29 4.18,75.38 4.21,-61.36 4.18,76.79 4.22,-60.11 4.1,19.61 4.18,11.21 4.22,-42.04 4.18,35 4.22,-4.17 5.59,-5.59 4.22,-2.82 4.18,-26.52 4.21,67.03 4.18,-41.91 4.22,21.02 4.18,-28.02 4.22,8.4 4.1,22.39 4.18,-19.57 4.22,-14.02 4.18,30.82 4.22,-19.62 4.18,-6.99 4.22,29.38 4.18,-22.39 h 4.22 l 4.18,9.82 4.22,-21.02 5.58,21.02 4.1,-37.7 4.22,30.7 4.18,46.09 4.22,-43.31 4.18,-47.5 4.22,78.2 4.18,-64.18 4.22,64.18 4.18,-47.5 4.22,46.09 4.18,-36.29 4.21,-2.82 4.11,19.61 4.18,-5.57 4.21,-21.02 4.18,16.8 4.22,-7 4.18,9.81 4.22,1.41 h 5.59 l 4.22,-23.84 4.18,-9.68 4.21,29.3 4.18,18.2 4.22,8.32 4.1,-43.32 4.18,21.02 4.22,-40.52 4.18,71.21 4.22,-75.43 4.18,85.24 4.22,-97.82 4.18,103.41 4.22,-50.31 4.22,-47.5 4.18,44.72 4.21,2.78 4.11,34.91 5.58,-44.73 4.18,29.43 4.22,-29.43 4.18,4.22 4.22,-1.4 4.18,13.98 4.22,-13.98 4.22,-25.12 4.18,60 4.21,-41.88 4.18,43.29 4.11,-39.11 4.21,-4.18 4.18,18.22 4.22,-9.82 4.18,15.39 4.22,-5.57 4.18,-16.81 4.22,-7.03 4.18,46.14 5.62,-32.12 4.18,-6.99 4.22,26.61 4.18,-21.02 h 4.1 l 4.22,9.81 4.18,1.41 4.22,-7 4.18,5.59 4.22,-16.81 4.18,26.61 4.22,-12.61 4.18,-50.28 4.22,80.98 4.18,-18.09 4.22,-29.41 4.1,16.8 4.18,14.02 4.22,-60.12 4.18,81.01 5.62,-32.1 4.18,-15.4 4.22,12.59 4.18,4.22 4.22,-40.52 4.18,69.8 4.22,-29.28 4.18,-1.41 4.1,-23.79 4.22,40.59 4.18,-33.61 4.21,11.22 4.18,16.8 4.22,-28.02 4.18,-9.8 4.22,55.91 4.18,-58.72 4.22,39.22 h 4.18 l 5.62,-39.22 4.18,50.43 4.11,-23.82 4.21,-2.78 4.18,-11.22 4.22,23.79 4.18,-5.57 4.22,-51.72 4.18,88 4.22,-47.5 4.18,-9.8 4.22,36.41 4.22,-22.39 4.18,-4.22 4.1,-39.1 4.22,99.21 4.18,-65.7 4.21,25.2 4.18,-9.8 4.22,-22.43 5.59,26.6 4.18,-6.98 4.22,-36.3 4.22,73.98 4.18,-50.27 4.21,9.81 4.11,9.76 4.18,-16.8 4.21,4.22 4.18,25.21 4.22,-36.41 4.18,36.41 4.22,-32.2 4.18,9.81 4.22,-9.81 4.18,29.38 4.22,-33.59 4.18,26.59 4.22,-9.79 5.5,-14 4.18,-22.3 4.22,39.11 4.18,-5.59 4.22,40.46 4.18,-78.2 4.22,75.43 4.18,-40.51 4.22,18.21 4.18,-22.43 h 4.22 l 4.18,7.04 4.1,5.59 4.22,-5.59 4.18,-26.52 4.22,74.02 4.18,-75.43 4.21,57.23 4.18,-32.12 4.22,-8.4 5.59,-15.3 4.22,64.21 4.18,-47.5 4.22,26.61 4.1,-16.8 4.18,-4.22 4.22,16.79 4.18,-26.59 4.21,11.2 4.18,-23.7 4.22,54.41 4.18,-22.3 4.22,6.98 4.18,-9.79 4.22,-7 4.18,11.22 4.22,-50.32 4.1,46.1 4.18,33.5 4.22,-29.28 5.58,-14.04 4.22,23.84 4.18,-26.61 4.22,12.59 4.18,-9.82 4.22,7.04 h 4.18 l 4.22,9.76 4.22,-13.98 4.06,7 4.22,12.61 4.22,-15.39 4.18,-9.81 4.21,26.61 4.18,-33.64 4.22,22.43 h 4.18 l 4.22,-12.63 4.18,7.04 5.63,19.57 4.18,-23.79 h 4.1 l 4.22,16.79 4.18,-57.29 4.21,72.61 4.18,-11.09 4.22,-19.62 4.18,5.6 4.22,2.81 4.18,-22.43 4.22,36.41 4.18,-16.79 h 4.22 l 4.18,-19.62 4.1,22.43 h 4.22 l 4.18,-16.81 4.22,20.98 4.18,-4.17 5.62,-9.81 4.18,16.79 4.22,-12.57 4.18,-16.84 4.22,36.41 4.18,-23.79 h 4.22 l 4.1,23.79 4.18,-26.61 4.22,2.82 4.18,13.98 4.22,-19.57 4.18,9.81 4.21,-26.52 4.18,50.3 4.22,-21 4.18,9.79 4.22,-12.57 4.18,-4.22 5.51,13.98 4.22,-12.58 h 4.18 l 4.22,12.58 4.18,-9.76 4.21,-7.04 4.18,9.82 4.22,12.61 4.18,-12.61 4.22,-16.8 4.18,26.59 4.22,-15.39 4.18,-37.68 4.1,71.16 4.22,-20.9 4.18,-47.5 4.22,74.02 4.22,-40.5 4.18,-22.3 4.21,53.12 5.59,-19.6 4.18,12.57 4.22,-26.61 4.18,2.82 4.22,-29.3 4.1,61.41 4.18,-18.13 4.22,-46.09 4.22,64.22 4.18,-20.89 4.21,-37.7 4.18,71.16 4.22,-43.28 4.18,12.58 4.22,-23.78 4.18,14.02 4.22,15.39 4.18,-12.61 4.1,-2.78 4.22,-4.22 5.59,-2.82 4.21,26.61 4.18,-16.79 4.22,-50.28 4.18,75.39 4.22,-12.5 4.18,-25.2 4.22,-19.53 4.18,29.34 4.22,46.09 4.1,-55.9 4.18,-20.89 4.22,61.36 4.18,-13.86 4.22,-14.02 4.18,-23.8 4.22,30.78 4.18,5.63 4.21,-60.11 5.59,81 4.22,-23.71 4.18,-55.89 4.1,73.98 4.22,-13.86 4.18,-37.82 4.22,40.59 4.18,-64.29 4.22,88 4.18,-47.5 4.21,-26.48 4.18,58.59 4.22,-20.89 4.18,8.39 4.22,-15.39 4.18,-7.04 4.1,12.63 4.22,-48.91 4.18,46.1 4.22,47.5 5.59,-50.28 4.21,-4.22 4.18,-39.1 4.22,48.91 4.18,25.07 4.22,-61.36 4.18,78.2 4.22,-61.52 4.1,-16.68 4.18,73.98 4.22,-53.09 4.18,29.38 4.22,-19.57 4.22,-11.22 4.18,-22.3 4.21,81.02 4.18,-57.31 4.22,-26.52 4.18,64.22 5.59,-8.32 4.1,-67.07 4.22,95 4.18,-51.72 4.22,-33.52 4.22,43.33 4.18,30.69 4.21,-20.89 4.18,-22.43 4.22,9.82 4.18,6.98 4.22,-16.8 4.18,14.04 4.22,-51.72 4.1,71.32 4.18,-14.03 4.22,2.82 4.18,-12.61 4.22,-9.82 4.18,16.8 5.62,-27.96 4.18,30.77 4.22,-50.31 4.18,88.02 4.22,-53.1 4.18,8.41 4.1,-5.59 4.22,-14.02 4.18,-15.32 4.22,76.84 4.18,-58.72 4.22,26.61 4.18,-19.61 h 4.22 l 4.18,-29.3 4.21,79.61 4.18,-53.13 4.22,-26.48 4.1,79.61 4.18,-50.31 5.63,-36.28 4.18,73.98 4.22,-27.89 4.18,-39.11 4.22,69.8 4.18,-33.5 4.21,-39.11 4.18,83.83 4.22,-92.22 4.18,47.5 4.22,44.72 4.1,-58.72 4.18,28.02 4.22,-23.84 h 4.18 l 4.22,22.43 4.18,-36.41 4.22,30.78 4.22,7.04 5.58,-64.3 4.18,90.78 4.22,-36.28 4.18,-23.84 4.1,23.84 4.22,-40.52 4.18,33.52 4.22,37.69 4.18,-74.02 4.22,41.92 4.22,32.1 4.18,-27.93 4.21,-54.48 4.18,78.2 4.22,-16.68 4.18,-21.02 h 4.1 l 4.22,11.22 4.18,-7 4.22,2.78 5.59,-46.1 4.22,83.78 4.18,-27.89 4.21,-57.29 4.18,47.5 4.22,34.91 4.18,-71.21 4.22,73.98 4.18,-44.68 4.1,-29.3 4.22,81.02 4.18,-57.31 4.22,-26.52 4.18,33.51 4.22,43.28 4.18,-73.98 4.22,76.8 4.18,-50.32 4.22,22.43 5.58,-33.59 4.22,33.59 4.1,-58.71 4.18,93.6 4.22,-53.1 4.18,-37.68 4.22,67.1 4.18,-4.21 4.22,-67.11 4.18,44.72 4.22,36.28 4.18,-20.89 4.21,-29.41 4.18,16.8 4.11,-36.3 4.21,76.8 4.18,-47.5 4.22,16.79 4.18,-12.57 4.22,-44.72 5.59,47.5 4.22,43.31 4.18,-55.9 4.21,-23.71 4.18,36.3 4.22,33.5 4.1,-72.61 4.18,69.81 4.22,-30.7 4.18,-36.3 4.22,79.61 4.18,-53.13 4.22,-26.48 4.18,71.21 4.22,-40.51 4.22,-27.88 4.18,78.2 4.21,-61.52 4.18,-16.68 4.11,73.98 5.58,-40.5 4.22,-46.1 4.18,46.1 4.22,33.5 4.18,-69.8 4.22,83.8 4.22,-57.32 4.18,-30.7 4.21,78.2 4.18,-37.68 4.22,-43.28 4.1,68.39 4.18,-57.23 4.22,32.12 4.18,47.5 4.22,-57.32 4.18,-30.7 4.22,40.52 4.18,33.5 5.62,-19.48 4.18,-26.61 4.22,9.81 4.18,-36.33 4.1,83.83 4.22,-57.31 4.18,-20.89 4.22,68.39 4.18,-37.69 4.22,12.57 4.18,-9.79 4.22,-14 4.18,-25.11 4.22,39.11 4.18,30.7 4.22,-16.68 4.18,-64.3 4.1,83.78 4.22,-72.61 4.18,39.11 5.62,34.91 4.18,-74.02 4.22,-876.167 4.18,-285.508 h 127.5"
             style="fill:none;stroke:#ffc000;stroke-width:11.64500046;stroke-linecap:round;stroke-linejoin:round;stroke-miterlimit:10;stroke-dasharray:none;stroke-opacity:1"
             id="path4858"
             inkscape:connector-curvature="0" /><path
             d="m 420.82,1696.29 4.809,7 4.211,-9.82 4.18,9.82 4.218,-9.82 4.184,-1.4 4.219,-2.82 4.179,26.61 4.219,-26.61 4.18,-118.78 4.222,108.98 4.219,-46.09 4.059,160.71 4.222,-12.59 4.219,-48.91 4.18,-11.09 4.211,-22.41 4.179,-16.8 4.219,29.41 5.59,-18.21 4.18,-1.4 4.222,-11.21 4.219,48.91 4.18,-33.48 h 4.101 l 4.219,-7.04 4.18,4.22 4.211,-33.51 4.179,62.93 4.219,-14.03 4.18,-48.9 4.223,-563.21 4.179,-598.465 4.219,2515.005 4.18,-1333.84 4.218,22.43 4.18,11.21 4.102,-21.02 5.621,-5.59 4.179,-23.71 4.219,36.3 4.18,34.91 4.223,-74.02 4.179,82.42 4.219,-90.81 4.18,95 4.218,-57.32 4.18,7.04 4.223,12.57 4.097,-60.07 4.18,87.96 4.223,-27.89 4.179,-26.59 4.219,23.78 4.18,-50.26 4.211,57.3 4.18,5.59 4.218,-58.72 5.59,64.22 4.223,-15.32 4.179,-46.09 4.098,83.8 4.223,-60.09 4.179,-26.52 4.219,36.33 4.18,36.28 4.211,-69.8 4.18,76.8 4.218,-43.28 4.184,9.76 4.219,-23.78 4.179,16.8 4.219,-33.48 4.18,30.7 4.101,36.28 4.219,-23.71 4.18,-33.59 4.222,30.78 5.579,7.04 4.218,-61.52 4.184,81 4.219,-23.71 4.179,-12.57 4.219,2.78 4.18,-2.78 4.222,2.78 4.098,-16.8 4.18,29.41 4.222,-19.61 4.219,9.81 4.18,-50.31 4.211,47.5 4.179,-2.78 4.219,50.28 4.18,-95 4.223,85.18 4.179,-30.7 5.629,-26.6 4.059,22.43 4.222,11.21 4.219,-64.3 4.18,85.19 4.211,-75.43 4.179,74.02 4.219,-36.28 4.18,-30.7 4.223,76.79 4.179,-53.13 4.219,19.61 4.18,-16.79 4.218,-9.8 4.102,36.41 4.18,-22.39 4.218,-11.22 4.18,26.61 4.223,-60.11 4.179,85.18 5.622,-33.46 4.179,-14.04 h 4.219 l 4.18,29.43 4.218,-22.39 4.18,-4.22 4.102,9.81 4.218,-15.4 4.18,12.59 4.223,9.79 4.179,-29.41 4.219,22.43 4.18,-39.11 4.211,79.61 4.18,-57.31 4.218,-19.48 4.184,33.48 4.219,33.5 4.179,-20.89 5.51,-39.22 4.22,39.22 4.18,-2.82 4.22,-29.41 4.18,26.6 h 4.21 l 4.18,-12.58 4.22,-6.99 4.18,-20.89 4.22,30.7 4.18,37.69 4.22,-25.12 4.1,-12.57 4.18,-14.02 4.22,-15.32 4.18,69.8 4.22,-44.68 4.22,19.61 4.18,-32.23 4.21,14.02 5.59,25.21 4.18,-33.61 4.22,16.81 4.18,4.17 4.1,-9.76 4.22,2.78 4.18,-50.28 4.22,47.5 4.22,2.78 4.18,-2.78 4.21,27.89 4.18,-18.13 4.22,-43.28 4.18,69.8 4.22,-33.5 4.18,6.98 4.22,-13.98 4.1,1.4 4.18,15.39 4.22,-9.79 5.59,-14 4.21,-22.3 4.18,83.8 4.22,-60.09 4.18,25.2 4.22,-26.61 h 4.18 l 4.22,-11.21 4.18,22.43 4.1,36.28 4.22,-19.48 4.18,-64.3 4.22,85.19 4.18,-22.3 4.22,-12.61 4.18,-14 4.22,23.79 4.18,-60.07 4.21,85.19 5.59,-22.3 4.22,-15.39 4.1,-7.04 4.18,16.8 4.22,-27.96 4.18,30.77 h 4.22 l 4.18,-23.79 4.22,14 4.18,-33.48 4.21,30.7 4.18,37.69 4.22,-25.12 4.18,-57.29 4.22,81 4.1,-72.61 4.18,82.42 4.22,-53.13 4.18,19.61 4.22,-16.79 5.59,1.4 4.21,15.39 4.18,-12.57 4.22,-9.81 4.18,22.38 4.22,-22.38 4.18,15.4 4.1,1.41 4.22,-11.22 h 4.18 l 4.22,-26.48 4.18,66.98 4.22,-33.5 4.22,9.79 4.18,-6.98 4.21,-53.09 4.18,97.78 4.22,-50.28 4.18,-9.81 5.51,-26.52 4.18,82.42 4.22,-50.31 4.18,-32.11 4.22,86.61 4.22,-60.09 4.18,25.2 4.21,-19.61 4.18,4.22 4.22,7 4.18,-18.22 4.22,8.4 4.18,18.21 4.1,-25.2 4.22,9.81 4.18,15.39 4.22,-12.61 4.18,-14 4.22,-19.48 4.18,66.98 5.62,-46.09 4.18,-12.62 4.22,65.71 4.18,-37.69 4.22,-2.81 4.1,-47.5 4.18,85.18 4.22,-33.46 4.18,-9.82 h 4.22 l 4.18,-34.92 4.22,65.63 4.18,-18.13 4.22,-46.09 4.18,39.11 4.21,33.5 4.18,-23.71 4.11,-9.79 4.21,-19.62 4.18,33.64 5.63,-33.64 4.18,23.84 4.22,8.39 4.18,-19.61 4.22,-19.61 4.18,49.02 4.21,-35 4.18,2.77 4.22,26.61 4.18,-23.79 4.1,16.79 4.22,-16.79 4.18,4.22 h 4.22 l 4.18,2.78 h 4.22 l 4.18,-5.6 4.22,2.82 4.22,-36.33 5.58,64.22 4.18,-12.5 4.22,-12.61 4.1,-9.82 4.18,-23.66 4.22,61.36 4.18,-60 4.22,32.12 4.18,33.5 4.22,-23.71 4.22,-57.29 4.18,75.38 4.21,-61.36 4.18,76.79 4.22,-60.11 4.1,19.61 4.18,11.21 4.22,-42.04 4.18,35 4.22,-4.17 5.59,-5.59 4.22,-2.82 4.18,-26.52 4.21,67.03 4.18,-41.91 4.22,21.02 4.18,-28.02 4.22,8.4 4.1,22.39 4.18,-19.57 4.22,-14.02 4.18,30.82 4.22,-19.62 4.18,-6.99 4.22,29.38 4.18,-22.39 h 4.22 l 4.18,9.82 4.22,-21.02 5.58,21.02 4.1,-37.7 4.22,30.7 4.18,46.09 4.22,-43.31 4.18,-47.5 4.22,78.2 4.18,-64.18 4.22,64.18 4.18,-47.5 4.22,46.09 4.18,-36.29 4.21,-2.82 4.11,19.61 4.18,-5.57 4.21,-21.02 4.18,16.8 4.22,-7 4.18,9.81 4.22,1.41 h 5.59 l 4.22,-23.84 4.18,-9.68 4.21,29.3 4.18,18.2 4.22,8.32 4.1,-43.32 4.18,21.02 4.22,-40.52 4.18,71.21 4.22,-75.43 4.18,85.24 4.22,-97.82 4.18,103.41 4.22,-50.31 4.22,-47.5 4.18,44.72 4.21,2.78 4.11,34.91 5.58,-44.73 4.18,29.43 4.22,-29.43 4.18,4.22 4.22,-1.4 4.18,13.98 4.22,-13.98 4.22,-25.12 4.18,60 4.21,-41.88 4.18,43.29 4.11,-39.11 4.21,-4.18 4.18,18.22 4.22,-9.82 4.18,15.39 4.22,-5.57 4.18,-16.81 4.22,-7.03 4.18,46.14 5.62,-32.12 4.18,-6.99 4.22,26.61 4.18,-21.02 h 4.1 l 4.22,9.81 4.18,1.41 4.22,-7 4.18,5.59 4.22,-16.81 4.18,26.61 4.22,-12.61 4.18,-50.28 4.22,80.98 4.18,-18.09 4.22,-29.41 4.1,16.8 4.18,14.02 4.22,-60.12 4.18,81.01 5.62,-32.1 4.18,-15.4 4.22,12.59 4.18,4.22 4.22,-40.52 4.18,69.8 4.22,-29.28 4.18,-1.41 4.1,-23.79 4.22,40.59 4.18,-33.61 4.21,11.22 4.18,16.8 4.22,-28.02 4.18,-9.8 4.22,55.91 4.18,-58.72 4.22,39.22 h 4.18 l 5.62,-39.22 4.18,50.43 4.11,-23.82 4.21,-2.78 4.18,-11.22 4.22,23.79 4.18,-5.57 4.22,-51.72 4.18,88 4.22,-47.5 4.18,-9.8 4.22,36.41 4.22,-22.39 4.18,-4.22 4.1,-39.1 4.22,99.21 4.18,-65.7 4.21,25.2 4.18,-9.8 4.22,-22.43 5.59,26.6 4.18,-6.98 4.22,-36.3 4.22,73.98 4.18,-50.27 4.21,9.81 4.11,9.76 4.18,-16.8 4.21,4.22 4.18,25.21 4.22,-36.41 4.18,36.41 4.22,-32.2 4.18,9.81 4.22,-9.81 4.18,29.38 4.22,-33.59 4.18,26.59 4.22,-9.79 5.5,-14 4.18,-22.3 4.22,39.11 4.18,-5.59 4.22,40.46 4.18,-78.2 4.22,75.43 4.18,-40.51 4.22,18.21 4.18,-22.43 h 4.22 l 4.18,7.04 4.1,5.59 4.22,-5.59 4.18,-26.52 4.22,74.02 4.18,-75.43 4.21,57.23 4.18,-32.12 4.22,-8.4 5.59,-15.3 4.22,64.21 4.18,-47.5 4.22,26.61 4.1,-16.8 4.18,-4.22 4.22,16.79 4.18,-26.59 4.21,11.2 4.18,-23.7 4.22,54.41 4.18,-22.3 4.22,6.98 4.18,-9.79 4.22,-7 4.18,11.22 4.22,-50.32 4.1,46.1 4.18,33.5 4.22,-29.28 5.58,-14.04 4.22,23.84 4.18,-26.61 4.22,12.59 4.18,-9.82 4.22,7.04 h 4.18 l 4.22,9.76 4.22,-13.98 4.06,7 4.22,12.61 4.22,-15.39 4.18,-9.81 4.21,26.61 4.18,-33.64 4.22,22.43 h 4.18 l 4.22,-12.63 4.18,7.04 5.63,19.57 4.18,-23.79 h 4.1 l 4.22,16.79 4.18,-57.29 4.21,72.61 4.18,-11.09 4.22,-19.62 4.18,5.6 4.22,2.81 4.18,-22.43 4.22,36.41 4.18,-16.79 h 4.22 l 4.18,-19.62 4.1,22.43 h 4.22 l 4.18,-16.81 4.22,20.98 4.18,-4.17 5.62,-9.81 4.18,16.79 4.22,-12.57 4.18,-16.84 4.22,36.41 4.18,-23.79 h 4.22 l 4.1,23.79 4.18,-26.61 4.22,2.82 4.18,13.98 4.22,-19.57 4.18,9.81 4.21,-26.52 4.18,50.3 4.22,-21 4.18,9.79 4.22,-12.57 4.18,-4.22 5.51,13.98 4.22,-12.58 h 4.18 l 4.22,12.58 4.18,-9.76 4.21,-7.04 4.18,9.82 4.22,12.61 4.18,-12.61 4.22,-16.8 4.18,26.59 4.22,-15.39 4.18,-37.68 4.1,71.16 4.22,-20.9 4.18,-47.5 4.22,74.02 4.22,-40.5 4.18,-22.3 4.21,53.12 5.59,-19.6 4.18,12.57 4.22,-26.61 4.18,2.82 4.22,-29.3 4.1,61.41 4.18,-18.13 4.22,-46.09 4.22,64.22 4.18,-20.89 4.21,-37.7 4.18,71.16 4.22,-43.28 4.18,12.58 4.22,-23.78 4.18,14.02 4.22,15.39 4.18,-12.61 4.1,-2.78 4.22,-4.22 5.59,-2.82 4.21,26.61 4.18,-16.79 4.22,-50.28 4.18,75.39 4.22,-12.5 4.18,-25.2 4.22,-19.53 4.18,29.34 4.22,46.09 4.1,-55.9 4.18,-20.89 4.22,61.36 4.18,-13.86 4.22,-14.02 4.18,-23.8 4.22,30.78 4.18,5.63 4.21,-60.11 5.59,81 4.22,-23.71 4.18,-55.89 4.1,73.98 4.22,-13.86 4.18,-37.82 4.22,40.59 4.18,-64.29 4.22,88 4.18,-47.5 4.21,-26.48 4.18,58.59 4.22,-20.89 4.18,8.39 4.22,-15.39 4.18,-7.04 4.1,12.63 4.22,-48.91 4.18,46.1 4.22,47.5 5.59,-50.28 4.21,-4.22 4.18,-39.1 4.22,48.91 4.18,25.07 4.22,-61.36 4.18,78.2 4.22,-61.52 4.1,-16.68 4.18,73.98 4.22,-53.09 4.18,29.38 4.22,-19.57 4.22,-11.22 4.18,-22.3 4.21,81.02 4.18,-57.31 4.22,-26.52 4.18,64.22 5.59,-8.32 4.1,-67.07 4.22,95 4.18,-51.72 4.22,-33.52 4.22,43.33 4.18,30.69 4.21,-20.89 4.18,-22.43 4.22,9.82 4.18,6.98 4.22,-16.8 4.18,14.04 4.22,-51.72 4.1,71.32 4.18,-14.03 4.22,2.82 4.18,-12.61 4.22,-9.82 4.18,16.8 5.62,-27.96 4.18,30.77 4.22,-50.31 4.18,88.02 4.22,-53.1 4.18,8.41 4.1,-5.59 4.22,-14.02 4.18,-15.32 4.22,76.84 4.18,-58.72 4.22,26.61 4.18,-19.61 h 4.22 l 4.18,-29.3 4.21,79.61 4.18,-53.13 4.22,-26.48 4.1,79.61 4.18,-50.31 5.63,-36.28 4.18,73.98 4.22,-27.89 4.18,-39.11 4.22,69.8 4.18,-33.5 4.21,-36.3 4.18,81.02 4.22,-92.22 4.18,47.5 4.22,44.72 4.1,-58.72 4.18,28.02 4.22,-23.84 h 4.18 l 4.22,22.43 4.18,-36.41 4.22,30.78 4.22,7.04 5.58,-64.3 4.18,90.78 4.22,-36.28 4.18,-23.84 4.1,23.84 4.22,-40.52 4.18,33.52 4.22,37.69 4.18,-74.02 4.22,41.92 4.22,32.1 4.18,-27.93 4.21,-54.48 4.18,78.2 4.22,-16.68 4.18,-21.02 h 4.1 l 4.22,11.22 4.18,-7 4.22,2.78 5.59,-46.1 4.22,83.78 4.18,-27.89 4.21,-57.29 4.18,47.5 4.22,34.91 4.18,-71.21 4.22,73.98 4.18,-44.68 4.1,-29.3 4.22,81.02 4.18,-57.31 4.22,-26.52 4.18,33.51 4.22,43.28 4.18,-73.98 4.22,76.8 4.18,-50.32 4.22,22.43 5.58,-33.59 4.22,33.59 4.1,-58.71 4.18,93.6 4.22,-53.1 4.18,-37.68 4.22,67.1 4.18,-4.21 4.22,-67.11 4.18,44.72 4.22,36.28 4.18,-20.89 4.21,-29.41 4.18,16.8 4.11,-36.3 4.21,76.8 4.18,-47.5 4.22,16.79 4.18,-12.57 4.22,-44.72 5.59,47.5 4.22,43.31 4.18,-55.9 4.21,-23.71 4.18,36.3 4.22,33.5 4.1,-72.61 4.18,69.81 4.22,-30.7 4.18,-36.3 4.22,79.61 4.18,-53.13 4.22,-26.48 4.18,71.21 4.22,-40.51 4.22,-27.88 4.18,78.2 4.21,-61.52 4.18,-16.68 4.11,73.98 5.58,-40.5 4.22,-46.1 4.18,46.1 4.22,33.5 4.18,-69.8 4.22,83.8 4.22,-57.32 4.18,-30.7 4.21,78.2 4.18,-37.68 4.22,-43.28 4.1,68.39 4.18,-57.23 4.22,32.12 4.18,47.5 4.22,-57.32 4.18,-30.7 4.22,40.52 4.18,33.5 5.62,-19.48 4.18,-26.61 4.22,9.81 4.18,-36.33 4.1,83.83 4.22,-57.31 4.18,-20.89 4.22,68.39 4.18,-37.69 4.22,12.57 4.18,-9.79 4.22,-14 4.18,-25.11 4.22,39.11 4.18,30.7 4.22,-16.68 4.18,-64.3 4.1,83.78 4.22,-72.61 4.18,39.11 5.62,34.91 4.18,-74.02 4.22,74.02 4.18,-30.69 h 4.22 l 4.18,-4.22 4.22,-7 4.18,11.22 4.21,-4.22 4.11,-2.78 h 4.18 l 4.21,-16.84 4.18,23.84 4.22,2.76 4.18,-4.17 4.22,-16.81 4.18,26.61 4.22,-36.41 4.18,43.41 5.62,-16.8 4.18,-8.41 4.11,-1.4 4.21,16.79 4.18,-170.5 4.22,294.8 4.18,-27.89 4.22,-127.18 4.18,30.77 4.22,-2.81 4.18,-27.96 4.22,30.77 h 4.22 l 4.18,-26.59 4.49,14.02"
             style="fill:none;stroke:#a5a5a5;stroke-width:11.64500046;stroke-linecap:round;stroke-linejoin:round;stroke-miterlimit:10;stroke-dasharray:none;stroke-opacity:1"
             id="path4860"
             inkscape:connector-curvature="0" /></g></g><g
         id="g4862"><g
           id="g4864"
           clip-path="url(#clipPath4868)"><g
             id="g4870"
             transform="scale(10)"><text
               transform="matrix(1,0,0,-1,427.324,45.4371)"
               style="font-variant:normal;font-weight:normal;font-size:13.99199963px;font-family:'Times New Roman';-inkscape-font-specification:TimesNewRomanPSMT;writing-mode:lr-tb;fill:#595959;fill-opacity:1;fill-rule:nonzero;stroke:none"
               id="text4876"><tspan
                 x="0"
                 y="0"
                 id="tspan4872">0</tspan><tspan
                 x="0 6.9959998"
                 y="-23.970301"
                 sodipodi:role="line"
                 id="tspan4874">10</tspan></text>
<text
               transform="matrix(1,0,0,-1,427.324,93.3672)"
               style="font-variant:normal;font-weight:normal;font-size:13.96800041px;font-family:'Times New Roman';-inkscape-font-specification:TimesNewRomanPSMT;writing-mode:lr-tb;fill:#595959;fill-opacity:1;fill-rule:nonzero;stroke:none"
               id="text4882"><tspan
                 x="0 6.9840002"
                 y="0"
                 sodipodi:role="line"
                 id="tspan4878">20</tspan><tspan
                 x="0 6.9840002"
                 y="-23.9699"
                 sodipodi:role="line"
                 id="tspan4880">30</tspan></text>
<text
               transform="matrix(1,0,0,-1,427.324,141.3172)"
               style="font-variant:normal;font-weight:normal;font-size:13.99199963px;font-family:'Times New Roman';-inkscape-font-specification:TimesNewRomanPSMT;writing-mode:lr-tb;fill:#595959;fill-opacity:1;fill-rule:nonzero;stroke:none"
               id="text4886"><tspan
                 x="0 6.9959998"
                 y="0"
                 sodipodi:role="line"
                 id="tspan4884">40</tspan></text>
<text
               transform="matrix(1,0,0,-1,427.324,165.2672)"
               style="font-variant:normal;font-weight:normal;font-size:13.96800041px;font-family:'Times New Roman';-inkscape-font-specification:TimesNewRomanPSMT;writing-mode:lr-tb;fill:#595959;fill-opacity:1;fill-rule:nonzero;stroke:none"
               id="text4892"><tspan
                 x="0 6.9840002"
                 y="0"
                 sodipodi:role="line"
                 id="tspan4888">50</tspan><tspan
                 x="0 6.9840002"
                 y="-23.980101"
                 sodipodi:role="line"
                 id="tspan4890">60</tspan></text>
<text
               transform="matrix(1,0,0,-1,427.324,213.2172)"
               style="font-variant:normal;font-weight:normal;font-size:13.99199963px;font-family:'Times New Roman';-inkscape-font-specification:TimesNewRomanPSMT;writing-mode:lr-tb;fill:#595959;fill-opacity:1;fill-rule:nonzero;stroke:none"
               id="text4898"><tspan
                 x="0 6.9959998"
                 y="0"
                 sodipodi:role="line"
                 id="tspan4894">70</tspan><tspan
                 x="-404.30399"
                 y="167.78"
                 id="tspan4896">0</tspan></text>
<text
               transform="matrix(1,0,0,-1,23.02,62.2075)"
               style="font-variant:normal;font-weight:normal;font-size:13.96800041px;font-family:'Times New Roman';-inkscape-font-specification:TimesNewRomanPSMT;writing-mode:lr-tb;fill:#595959;fill-opacity:1;fill-rule:nonzero;stroke:none"
               id="text4914"><tspan
                 x="0"
                 y="0"
                 id="tspan4900">5</tspan><tspan
                 x="-6.9839802 1.9999999e-005"
                 y="-16.779699"
                 sodipodi:role="line"
                 id="tspan4902">10</tspan><tspan
                 x="-6.9839802 1.9999999e-005"
                 y="-33.559799"
                 sodipodi:role="line"
                 id="tspan4904">15</tspan><tspan
                 x="-6.9839802 1.9999999e-005"
                 y="-50.3297"
                 sodipodi:role="line"
                 id="tspan4906">20</tspan><tspan
                 x="-6.9839802 1.9999999e-005"
                 y="-67.109802"
                 sodipodi:role="line"
                 id="tspan4908">25</tspan><tspan
                 x="-6.9839802 1.9999999e-005"
                 y="-83.8797"
                 sodipodi:role="line"
                 id="tspan4910">30</tspan><tspan
                 x="-6.9839802 1.9999999e-005"
                 y="-100.6598"
                 sodipodi:role="line"
                 id="tspan4912">35</tspan></text>
<text
               transform="matrix(1,0,0,-1,16.03602,179.6673)"
               style="font-variant:normal;font-weight:normal;font-size:13.99199963px;font-family:'Times New Roman';-inkscape-font-specification:TimesNewRomanPSMT;writing-mode:lr-tb;fill:#595959;fill-opacity:1;fill-rule:nonzero;stroke:none"
               id="text4922"><tspan
                 x="0 6.9959998"
                 y="0"
                 sodipodi:role="line"
                 id="tspan4916">40</tspan><tspan
                 x="0 6.9959998"
                 y="-16.7801"
                 sodipodi:role="line"
                 id="tspan4918">45</tspan><tspan
                 x="0 6.9959998"
                 y="-33.549999"
                 sodipodi:role="line"
                 id="tspan4920">50</tspan></text>
<text
               transform="matrix(-4e-8,1,1,4e-8,46.8039,34.4672)"
               style="font-variant:normal;font-weight:normal;font-size:13.99199963px;font-family:'Times New Roman';-inkscape-font-specification:TimesNewRomanPSMT;writing-mode:lr-tb;fill:#595959;fill-opacity:1;fill-rule:nonzero;stroke:none"
               id="text4926"><tspan
                 x="0"
                 y="0"
                 id="tspan4924">1</tspan></text>
<text
               transform="matrix(-4e-8,1,1,4e-8,62.5938,27.4871)"
               style="font-variant:normal;font-weight:normal;font-size:13.96800041px;font-family:'Times New Roman';-inkscape-font-specification:TimesNewRomanPSMT;writing-mode:lr-tb;fill:#595959;fill-opacity:1;fill-rule:nonzero;stroke:none"
               id="text4932"><tspan
                 x="0 6.9840002"
                 y="0"
                 sodipodi:role="line"
                 id="tspan4928">38</tspan><tspan
                 x="0 6.9840002"
                 y="15.7699"
                 sodipodi:role="line"
                 id="tspan4930">75</tspan></text>
<text
               transform="matrix(-4e-8,1,1,4e-8,94.1336,20.4973)"
               style="font-variant:normal;font-weight:normal;font-size:13.99199963px;font-family:'Times New Roman';-inkscape-font-specification:TimesNewRomanPSMT;writing-mode:lr-tb;fill:#595959;fill-opacity:1;fill-rule:nonzero;stroke:none"
               id="text4936"><tspan
                 x="0 6.9959998 13.992"
                 y="0"
                 sodipodi:role="line"
                 id="tspan4934">112</tspan></text>
<text
               transform="matrix(-4e-8,1,1,4e-8,109.924,20.4973)"
               style="font-variant:normal;font-weight:normal;font-size:13.96800041px;font-family:'Times New Roman';-inkscape-font-specification:TimesNewRomanPSMT;writing-mode:lr-tb;fill:#595959;fill-opacity:1;fill-rule:nonzero;stroke:none"
               id="text4946"><tspan
                 x="0 6.9840002 13.968"
                 y="0"
                 sodipodi:role="line"
                 id="tspan4938">149</tspan><tspan
                 x="0 6.9840002 13.968"
                 y="15.7699"
                 sodipodi:role="line"
                 id="tspan4940">186</tspan><tspan
                 x="0 6.9840002 13.968"
                 y="31.5597"
                 sodipodi:role="line"
                 id="tspan4942">223</tspan><tspan
                 x="0 6.9840002 13.968"
                 y="47.330002"
                 sodipodi:role="line"
                 id="tspan4944">260</tspan></text>
<text
               transform="matrix(-4e-8,1,1,4e-8,173.024,20.4973)"
               style="font-variant:normal;font-weight:normal;font-size:13.99199963px;font-family:'Times New Roman';-inkscape-font-specification:TimesNewRomanPSMT;writing-mode:lr-tb;fill:#595959;fill-opacity:1;fill-rule:nonzero;stroke:none"
               id="text4950"><tspan
                 x="0 6.9959998 13.992"
                 y="0"
                 sodipodi:role="line"
                 id="tspan4948">297</tspan></text>
<text
               transform="matrix(-4e-8,1,1,4e-8,188.814,20.4973)"
               style="font-variant:normal;font-weight:normal;font-size:13.96800041px;font-family:'Times New Roman';-inkscape-font-specification:TimesNewRomanPSMT;writing-mode:lr-tb;fill:#595959;fill-opacity:1;fill-rule:nonzero;stroke:none"
               id="text4960"><tspan
                 x="0 6.9840002 13.968"
                 y="0"
                 sodipodi:role="line"
                 id="tspan4952">334</tspan><tspan
                 x="0 6.9840002 13.968"
                 y="15.7703"
                 sodipodi:role="line"
                 id="tspan4954">371</tspan><tspan
                 x="0 6.9840002 13.968"
                 y="31.560499"
                 sodipodi:role="line"
                 id="tspan4956">408</tspan><tspan
                 x="0 6.9840002 13.968"
                 y="47.330399"
                 sodipodi:role="line"
                 id="tspan4958">445</tspan></text>
<text
               transform="matrix(-4e-8,1,1,4e-8,251.904,20.4973)"
               style="font-variant:normal;font-weight:normal;font-size:13.99199963px;font-family:'Times New Roman';-inkscape-font-specification:TimesNewRomanPSMT;writing-mode:lr-tb;fill:#595959;fill-opacity:1;fill-rule:nonzero;stroke:none"
               id="text4964"><tspan
                 x="0 6.9959998 13.992"
                 y="0"
                 sodipodi:role="line"
                 id="tspan4962">482</tspan></text>
<text
               transform="matrix(-4e-8,1,1,4e-8,267.704,20.4973)"
               style="font-variant:normal;font-weight:normal;font-size:13.96800041px;font-family:'Times New Roman';-inkscape-font-specification:TimesNewRomanPSMT;writing-mode:lr-tb;fill:#595959;fill-opacity:1;fill-rule:nonzero;stroke:none"
               id="text4970"><tspan
                 x="0 6.9840002 13.968"
                 y="0"
                 sodipodi:role="line"
                 id="tspan4966">519</tspan><tspan
                 x="0 6.9840002 13.968"
                 y="15.7598"
                 sodipodi:role="line"
                 id="tspan4968">556</tspan></text>
<text
               transform="matrix(-4e-8,1,1,4e-8,299.234,20.4973)"
               style="font-variant:normal;font-weight:normal;font-size:13.99199963px;font-family:'Times New Roman';-inkscape-font-specification:TimesNewRomanPSMT;writing-mode:lr-tb;fill:#595959;fill-opacity:1;fill-rule:nonzero;stroke:none"
               id="text4974"><tspan
                 x="0 6.9959998 13.992"
                 y="0"
                 sodipodi:role="line"
                 id="tspan4972">593</tspan></text>
<text
               transform="matrix(-4e-8,1,1,4e-8,315.024,20.4973)"
               style="font-variant:normal;font-weight:normal;font-size:13.96800041px;font-family:'Times New Roman';-inkscape-font-specification:TimesNewRomanPSMT;writing-mode:lr-tb;fill:#595959;fill-opacity:1;fill-rule:nonzero;stroke:none"
               id="text4978"><tspan
                 x="0 6.9840002 13.968"
                 y="0"
                 sodipodi:role="line"
                 id="tspan4976">630</tspan></text>
<text
               transform="matrix(-4e-8,1,1,4e-8,330.794,20.4973)"
               style="font-variant:normal;font-weight:normal;font-size:13.99199963px;font-family:'Times New Roman';-inkscape-font-specification:TimesNewRomanPSMT;writing-mode:lr-tb;fill:#595959;fill-opacity:1;fill-rule:nonzero;stroke:none"
               id="text4982"><tspan
                 x="0 6.9959998 13.992"
                 y="0"
                 sodipodi:role="line"
                 id="tspan4980">667</tspan></text>
<text
               transform="matrix(-4e-8,1,1,4e-8,346.584,20.4973)"
               style="font-variant:normal;font-weight:normal;font-size:13.96800041px;font-family:'Times New Roman';-inkscape-font-specification:TimesNewRomanPSMT;writing-mode:lr-tb;fill:#595959;fill-opacity:1;fill-rule:nonzero;stroke:none"
               id="text4988"><tspan
                 x="0 6.9840002 13.968"
                 y="0"
                 sodipodi:role="line"
                 id="tspan4984">704</tspan><tspan
                 x="0 6.9840002 13.968"
                 y="15.7703"
                 sodipodi:role="line"
                 id="tspan4986">741</tspan></text>
<text
               transform="matrix(-4e-8,1,1,4e-8,378.124,20.4973)"
               style="font-variant:normal;font-weight:normal;font-size:13.99199963px;font-family:'Times New Roman';-inkscape-font-specification:TimesNewRomanPSMT;writing-mode:lr-tb;fill:#595959;fill-opacity:1;fill-rule:nonzero;stroke:none"
               id="text4992"><tspan
                 x="0 6.9959998 13.992"
                 y="0"
                 sodipodi:role="line"
                 id="tspan4990">778</tspan></text>
<text
               transform="matrix(-4e-8,1,1,4e-8,393.914,20.4973)"
               style="font-variant:normal;font-weight:normal;font-size:13.96800041px;font-family:'Times New Roman';-inkscape-font-specification:TimesNewRomanPSMT;writing-mode:lr-tb;fill:#595959;fill-opacity:1;fill-rule:nonzero;stroke:none"
               id="text4996"><tspan
                 x="0 6.9840002 13.968"
                 y="0"
                 sodipodi:role="line"
                 id="tspan4994">815</tspan></text>
<text
               transform="matrix(-4e-8,1,1,4e-8,409.684,20.4973)"
               style="font-variant:normal;font-weight:normal;font-size:13.99199963px;font-family:'Times New Roman';-inkscape-font-specification:TimesNewRomanPSMT;writing-mode:lr-tb;fill:#595959;fill-opacity:1;fill-rule:nonzero;stroke:none"
               id="text5000"><tspan
                 x="0 6.9959998 13.992"
                 y="0"
                 sodipodi:role="line"
                 id="tspan4998">852</tspan></text>
<text
               transform="matrix(-4e-8,1,1,4e-8,457.804,84.8172)"
               style="font-variant:normal;font-weight:normal;font-size:13.96800041px;font-family:'Times New Roman';-inkscape-font-specification:TimesNewRomanPSMT;writing-mode:lr-tb;fill:#595959;fill-opacity:1;fill-rule:nonzero;stroke:none"
               id="text5006"><tspan
                 x="0 9.3166561 15.518448 20.099785 24.709051 30.854935 36.288486 43.272488 46.91832 51.527584 57.67347 61.556572 67.758362 71.375992 75.985252 80.594521 87.578522 93.01207"
                 y="0"
                 sodipodi:role="line"
                 id="tspan5002">Refresh rate (fps)</tspan><tspan
                 x="10.0801 19.396755 27.232763 37.317661 40.809658 47.793659 53.227211 59.345154 66.189301 72.335182 75.939087"
                 y="-448.34399"
                 sodipodi:role="line"
                 id="tspan5004">CPU usage %</tspan></text>
<text
               transform="matrix(1,0,0,-1,188.354,3.98711)"
               style="font-variant:normal;font-weight:normal;font-size:13.96800041px;font-family:'Times New Roman';-inkscape-font-specification:TimesNewRomanPSMT;writing-mode:lr-tb;fill:#595959;fill-opacity:1;fill-rule:nonzero;stroke:none"
               id="text5010"><tspan
                 x="0 8.1155157 11.998619 22.907715 29.067661 34.501213 38.384319 44.586109 55.453213 62.437214 65.803505 70.412758 75.846306"
                 y="0"
                 sodipodi:role="line"
                 id="tspan5008">Timestamp (s)</tspan></text>
</g></g></g><path
         d="M 170.121,2422.97 H 393.629"
         style="fill:none;stroke:#4472c4;stroke-width:11.64500046;stroke-linecap:round;stroke-linejoin:round;stroke-miterlimit:10;stroke-dasharray:none;stroke-opacity:1"
         id="path5012"
         inkscape:connector-curvature="0" /><g
         id="g5014"><g
           id="g5016"
           clip-path="url(#clipPath5020)"><g
             id="g5022"
             transform="scale(10)"><text
               transform="matrix(1,0,0,-1,41.7438,237.938)"
               style="font-variant:normal;font-weight:normal;font-size:13.99199963px;font-family:'Times New Roman';-inkscape-font-specification:TimesNewRomanPSMT;writing-mode:lr-tb;fill:#595959;fill-opacity:1;fill-rule:nonzero;stroke:none"
               id="text5026"><tspan
                 x="0 9.3326635 17.07024 30.754612 37.75061 43.067608 49.336147 56.33215"
                 y="0"
                 sodipodi:role="line"
                 id="tspan5024">CPUusage</tspan></text>
</g></g></g><path
         d="m 1142.23,2422.97 h 223.59"
         style="fill:none;stroke:#ed7d31;stroke-width:11.64500046;stroke-linecap:round;stroke-linejoin:round;stroke-miterlimit:10;stroke-dasharray:none;stroke-opacity:1"
         id="path5028"
         inkscape:connector-curvature="0" /><g
         id="g5030"><g
           id="g5032"
           clip-path="url(#clipPath5036)"><g
             id="g5038"
             transform="scale(10)"><text
               transform="matrix(1,0,0,-1,138.984,237.938)"
               style="font-variant:normal;font-weight:normal;font-size:13.99199963px;font-family:'Times New Roman';-inkscape-font-specification:TimesNewRomanPSMT;writing-mode:lr-tb;fill:#595959;fill-opacity:1;fill-rule:nonzero;stroke:none"
               id="text5042"><tspan
                 x="0 6.9959998 13.992 17.448044 22.051447 29.047447 34.490337 37.988335 44.24276 51.238758 58.23476 61.98457 66.727814 73.723816 77.473526 81.363304 87.673729"
                 y="0"
                 sodipodi:role="line"
                 id="tspan5040">20 fps controller</tspan></text>
</g></g></g><path
         d="m 2413.05,2422.97 h 223.47"
         style="fill:none;stroke:#ffc000;stroke-width:11.64500046;stroke-linecap:round;stroke-linejoin:round;stroke-miterlimit:10;stroke-dasharray:none;stroke-opacity:1"
         id="path5044"
         inkscape:connector-curvature="0" /><g
         id="g5046"><g
           id="g5048"
           clip-path="url(#clipPath5052)"><g
             id="g5054"
             transform="scale(10)"><text
               transform="matrix(1,0,0,-1,266.094,237.938)"
               style="font-variant:normal;font-weight:normal;font-size:13.99199963px;font-family:'Times New Roman';-inkscape-font-specification:TimesNewRomanPSMT;writing-mode:lr-tb;fill:#595959;fill-opacity:1;fill-rule:nonzero;stroke:none"
               id="text5058"><tspan
                 x="0 7.779552 11.571305 17.839832 24.835833 31.831833 37.946259 44.214787"
                 y="0"
                 sodipodi:role="line"
                 id="tspan5056">Playback</tspan></text>
</g></g></g><path
         d="m 3272.42,2422.97 h 223.63"
         style="fill:none;stroke:#a5a5a5;stroke-width:11.64500046;stroke-linecap:round;stroke-linejoin:round;stroke-miterlimit:10;stroke-dasharray:none;stroke-opacity:1"
         id="path5060"
         inkscape:connector-curvature="0" /><g
         id="g5062"><g
           id="g5064"
           clip-path="url(#clipPath5068)"><g
             id="g5070"
             transform="scale(10)"><text
               transform="matrix(1,0,0,-1,352.034,237.938)"
               style="font-variant:normal;font-weight:normal;font-size:13.99199963px;font-family:'Times New Roman';-inkscape-font-specification:TimesNewRomanPSMT;writing-mode:lr-tb;fill:#595959;fill-opacity:1;fill-rule:nonzero;stroke:none"
               id="text5074"><tspan
                 x="0 6.9959998 13.992 17.49 22.079195 29.075195 34.518082 38.016083 44.284561 51.28056 58.276562 62.026348 66.769615 73.765617 77.515305 81.405083 87.715477"
                 y="0"
                 sodipodi:role="line"
                 id="tspan5072">50 fps controller</tspan></text>
</g></g></g></g></g></svg>